<svg version="1" xmlns="http://www.w3.org/2000/svg" width="933.333" height="933.333" viewBox="0 0 700.000000 700.000000"><path d="M165 166.5L8.5 323l50 49.8c39.4 39.3 52.4 51.7 61.5 58.4 31.5 23.3 63.2 36.9 102.7 44 11 1.9 16.1 2.3 37.3 2.3 21.2 0 26.2-.4 37.5-2.4 47.1-8.4 85.7-28.3 117.7-60.8 11.7-11.8 18-19.6 26.7-32.8 15.7-23.8 26.1-50 31.8-79.5 3.1-16.4 4.3-49.1 2.4-66.1-4.9-42.8-21.7-84-47.8-117.3-3.1-3.9-28.4-29.9-56.2-57.9L321.5 10 165 166.5z"/><path d="M497 369v126H244v195h448V243H497v126z"/></svg>