<svg viewBox="0 0 393 172" fill="none" xmlns="http://www.w3.org/2000/svg">
<path d="M66.7363 27.7051C66.7363 29.0996 66.3867 30.1836 65.6875 30.957C64.9922 31.7305 64.0059 32.1172 62.7285 32.1172C61.4355 32.1172 60.4414 31.7344 59.7461 30.9688C59.0547 30.1992 58.709 29.1074 58.709 27.6934C58.709 26.2793 59.0566 25.1934 59.752 24.4355C60.4512 23.6777 61.4473 23.2988 62.7402 23.2988C64.0137 23.2988 64.998 23.6836 65.6934 24.4531C66.3887 25.2227 66.7363 26.3066 66.7363 27.7051ZM60.1973 27.7051C60.1973 28.7598 60.4102 29.5605 60.8359 30.1074C61.2617 30.6504 61.8926 30.9219 62.7285 30.9219C63.5605 30.9219 64.1875 30.6523 64.6094 30.1133C65.0352 29.5742 65.248 28.7715 65.248 27.7051C65.248 26.6543 65.0371 25.8574 64.6152 25.3145C64.1973 24.7715 63.5723 24.5 62.7402 24.5C61.9004 24.5 61.2656 24.7715 60.8359 25.3145C60.4102 25.8574 60.1973 26.6543 60.1973 27.7051ZM71.7168 32.1172C70.8965 32.1172 70.2598 31.8223 69.8066 31.2324H69.7246C69.7793 31.7793 69.8066 32.1113 69.8066 32.2285V34.8828H68.4297V25.5195H69.543C69.5742 25.6406 69.6387 25.9297 69.7363 26.3867H69.8066C70.2363 25.7305 70.8809 25.4023 71.7402 25.4023C72.5488 25.4023 73.1777 25.6953 73.627 26.2812C74.0801 26.8672 74.3066 27.6895 74.3066 28.748C74.3066 29.8066 74.0762 30.6328 73.6152 31.2266C73.1582 31.8203 72.5254 32.1172 71.7168 32.1172ZM71.3828 26.5273C70.8359 26.5273 70.4355 26.6875 70.1816 27.0078C69.9316 27.3281 69.8066 27.8398 69.8066 28.543V28.748C69.8066 29.5371 69.9316 30.1094 70.1816 30.4648C70.4316 30.8164 70.8398 30.9922 71.4062 30.9922C71.8828 30.9922 72.25 30.7969 72.5078 30.4062C72.7656 30.0156 72.8945 29.459 72.8945 28.7363C72.8945 28.0098 72.7656 27.4609 72.5078 27.0898C72.2539 26.7148 71.8789 26.5273 71.3828 26.5273ZM79.1934 32.1172C78.373 32.1172 77.7363 31.8223 77.2832 31.2324H77.2012C77.2559 31.7793 77.2832 32.1113 77.2832 32.2285V34.8828H75.9062V25.5195H77.0195C77.0508 25.6406 77.1152 25.9297 77.2129 26.3867H77.2832C77.7129 25.7305 78.3574 25.4023 79.2168 25.4023C80.0254 25.4023 80.6543 25.6953 81.1035 26.2812C81.5566 26.8672 81.7832 27.6895 81.7832 28.748C81.7832 29.8066 81.5527 30.6328 81.0918 31.2266C80.6348 31.8203 80.002 32.1172 79.1934 32.1172ZM78.8594 26.5273C78.3125 26.5273 77.9121 26.6875 77.6582 27.0078C77.4082 27.3281 77.2832 27.8398 77.2832 28.543V28.748C77.2832 29.5371 77.4082 30.1094 77.6582 30.4648C77.9082 30.8164 78.3164 30.9922 78.8828 30.9922C79.3594 30.9922 79.7266 30.7969 79.9844 30.4062C80.2422 30.0156 80.3711 29.459 80.3711 28.7363C80.3711 28.0098 80.2422 27.4609 79.9844 27.0898C79.7305 26.7148 79.3555 26.5273 78.8594 26.5273ZM89.1309 28.748C89.1309 29.8066 88.8594 30.6328 88.3164 31.2266C87.7734 31.8203 87.0176 32.1172 86.0488 32.1172C85.4434 32.1172 84.9082 31.9805 84.4434 31.707C83.9785 31.4336 83.6211 31.041 83.3711 30.5293C83.1211 30.0176 82.9961 29.4238 82.9961 28.748C82.9961 27.6973 83.2656 26.877 83.8047 26.2871C84.3438 25.6973 85.1035 25.4023 86.084 25.4023C87.0215 25.4023 87.7637 25.7051 88.3105 26.3105C88.8574 26.9121 89.1309 27.7246 89.1309 28.748ZM84.4141 28.748C84.4141 30.2441 84.9668 30.9922 86.0723 30.9922C87.166 30.9922 87.7129 30.2441 87.7129 28.748C87.7129 27.2676 87.1621 26.5273 86.0605 26.5273C85.4824 26.5273 85.0625 26.7188 84.8008 27.1016C84.543 27.4844 84.4141 28.0332 84.4141 28.748ZM94.0059 25.4023C94.2832 25.4023 94.5117 25.4219 94.6914 25.4609L94.5566 26.7441C94.3613 26.6973 94.1582 26.6738 93.9473 26.6738C93.3965 26.6738 92.9492 26.8535 92.6055 27.2129C92.2656 27.5723 92.0957 28.0391 92.0957 28.6133V32H90.7188V25.5195H91.7969L91.9785 26.6621H92.0488C92.2637 26.2754 92.543 25.9688 92.8867 25.7422C93.2344 25.5156 93.6074 25.4023 94.0059 25.4023ZM98.3125 31.0039C98.6484 31.0039 98.9844 30.9512 99.3203 30.8457V31.8828C99.168 31.9492 98.9707 32.0039 98.7285 32.0469C98.4902 32.0938 98.2422 32.1172 97.9844 32.1172C96.6797 32.1172 96.0273 31.4297 96.0273 30.0547V26.5625H95.1426V25.9531L96.0918 25.4492L96.5605 24.0781H97.4102V25.5195H99.2559V26.5625H97.4102V30.0312C97.4102 30.3633 97.4922 30.6094 97.6562 30.7695C97.8242 30.9258 98.043 31.0039 98.3125 31.0039ZM105.191 32L104.998 31.1504H104.928C104.736 31.4512 104.463 31.6875 104.107 31.8594C103.756 32.0312 103.354 32.1172 102.9 32.1172C102.115 32.1172 101.529 31.9219 101.143 31.5312C100.756 31.1406 100.562 30.5488 100.562 29.7559V25.5195H101.951V29.5156C101.951 30.0117 102.053 30.3848 102.256 30.6348C102.459 30.8809 102.777 31.0039 103.211 31.0039C103.789 31.0039 104.213 30.832 104.482 30.4883C104.756 30.1406 104.893 29.5605 104.893 28.748V25.5195H106.275V32H105.191ZM113.939 32H112.557V28.0156C112.557 27.5156 112.455 27.1426 112.252 26.8965C112.053 26.6504 111.734 26.5273 111.297 26.5273C110.715 26.5273 110.289 26.6992 110.02 27.043C109.75 27.3867 109.615 27.9629 109.615 28.7715V32H108.238V25.5195H109.316L109.51 26.3691H109.58C109.775 26.0605 110.053 25.8223 110.412 25.6543C110.771 25.4863 111.17 25.4023 111.607 25.4023C113.162 25.4023 113.939 26.1934 113.939 27.7754V32ZM117.232 32H115.855V25.5195H117.232V32ZM115.773 23.8027C115.773 23.5566 115.84 23.3672 115.973 23.2344C116.109 23.1016 116.303 23.0352 116.553 23.0352C116.795 23.0352 116.982 23.1016 117.115 23.2344C117.252 23.3672 117.32 23.5566 117.32 23.8027C117.32 24.0371 117.252 24.2227 117.115 24.3594C116.982 24.4922 116.795 24.5586 116.553 24.5586C116.303 24.5586 116.109 24.4922 115.973 24.3594C115.84 24.2227 115.773 24.0371 115.773 23.8027ZM121.621 31.0039C121.957 31.0039 122.293 30.9512 122.629 30.8457V31.8828C122.477 31.9492 122.279 32.0039 122.037 32.0469C121.799 32.0938 121.551 32.1172 121.293 32.1172C119.988 32.1172 119.336 31.4297 119.336 30.0547V26.5625H118.451V25.9531L119.4 25.4492L119.869 24.0781H120.719V25.5195H122.564V26.5625H120.719V30.0312C120.719 30.3633 120.801 30.6094 120.965 30.7695C121.133 30.9258 121.352 31.0039 121.621 31.0039ZM122.945 25.5195H124.445L125.764 29.1934C125.963 29.7168 126.096 30.209 126.162 30.6699H126.209C126.244 30.4551 126.309 30.1953 126.402 29.8906C126.496 29.582 126.992 28.125 127.891 25.5195H129.379L126.607 32.8613C126.104 34.209 125.264 34.8828 124.088 34.8828C123.783 34.8828 123.486 34.8496 123.197 34.7832V33.6934C123.404 33.7402 123.641 33.7637 123.906 33.7637C124.57 33.7637 125.037 33.3789 125.307 32.6094L125.547 32L122.945 25.5195Z" fill="#444444"/>
<path d="M190.131 31V22.4336H191.531V31H190.131ZM199.354 31H197.971V27.0156C197.971 26.5156 197.869 26.1426 197.666 25.8965C197.467 25.6504 197.148 25.5273 196.711 25.5273C196.129 25.5273 195.703 25.6992 195.434 26.043C195.164 26.3867 195.029 26.9629 195.029 27.7715V31H193.652V24.5195H194.73L194.924 25.3691H194.994C195.189 25.0605 195.467 24.8223 195.826 24.6543C196.186 24.4863 196.584 24.4023 197.021 24.4023C198.576 24.4023 199.354 25.1934 199.354 26.7754V31ZM210.205 25.0234C210.205 25.918 209.912 26.6035 209.326 27.0801C208.74 27.5566 207.906 27.7949 206.824 27.7949H205.934V31H204.533V22.4336H207C208.07 22.4336 208.871 22.6523 209.402 23.0898C209.938 23.5273 210.205 24.1719 210.205 25.0234ZM205.934 26.6172H206.678C207.396 26.6172 207.924 26.4922 208.26 26.2422C208.596 25.9922 208.764 25.6016 208.764 25.0703C208.764 24.5781 208.613 24.2109 208.312 23.9688C208.012 23.7266 207.543 23.6055 206.906 23.6055H205.934V26.6172ZM215.057 24.4023C215.334 24.4023 215.562 24.4219 215.742 24.4609L215.607 25.7441C215.412 25.6973 215.209 25.6738 214.998 25.6738C214.447 25.6738 214 25.8535 213.656 26.2129C213.316 26.5723 213.146 27.0391 213.146 27.6133V31H211.77V24.5195H212.848L213.029 25.6621H213.1C213.314 25.2754 213.594 24.9688 213.938 24.7422C214.285 24.5156 214.658 24.4023 215.057 24.4023ZM222.697 27.748C222.697 28.8066 222.426 29.6328 221.883 30.2266C221.34 30.8203 220.584 31.1172 219.615 31.1172C219.01 31.1172 218.475 30.9805 218.01 30.707C217.545 30.4336 217.188 30.041 216.938 29.5293C216.688 29.0176 216.562 28.4238 216.562 27.748C216.562 26.6973 216.832 25.877 217.371 25.2871C217.91 24.6973 218.67 24.4023 219.65 24.4023C220.588 24.4023 221.33 24.7051 221.877 25.3105C222.424 25.9121 222.697 26.7246 222.697 27.748ZM217.98 27.748C217.98 29.2441 218.533 29.9922 219.639 29.9922C220.732 29.9922 221.279 29.2441 221.279 27.748C221.279 26.2676 220.729 25.5273 219.627 25.5273C219.049 25.5273 218.629 25.7188 218.367 26.1016C218.109 26.4844 217.98 27.0332 217.98 27.748ZM229.758 24.5195V25.2754L228.65 25.4805C228.752 25.6172 228.836 25.7852 228.902 25.9844C228.969 26.1836 229.002 26.3945 229.002 26.6172C229.002 27.2852 228.771 27.8105 228.311 28.1934C227.85 28.5762 227.215 28.7676 226.406 28.7676C226.199 28.7676 226.012 28.752 225.844 28.7207C225.547 28.9043 225.398 29.1191 225.398 29.3652C225.398 29.5137 225.467 29.625 225.604 29.6992C225.744 29.7734 226 29.8105 226.371 29.8105H227.502C228.217 29.8105 228.76 29.9629 229.131 30.2676C229.502 30.5723 229.688 31.0117 229.688 31.5859C229.688 32.3203 229.385 32.8867 228.779 33.2852C228.174 33.6836 227.299 33.8828 226.154 33.8828C225.271 33.8828 224.598 33.7266 224.133 33.4141C223.668 33.1016 223.436 32.6562 223.436 32.0781C223.436 31.6797 223.561 31.3438 223.811 31.0703C224.064 30.8008 224.418 30.6133 224.871 30.5078C224.688 30.4297 224.535 30.3047 224.414 30.1328C224.297 29.957 224.238 29.7734 224.238 29.582C224.238 29.3398 224.307 29.1348 224.443 28.9668C224.58 28.7988 224.783 28.6328 225.053 28.4688C224.717 28.3242 224.443 28.0898 224.232 27.7656C224.025 27.4375 223.922 27.0547 223.922 26.6172C223.922 25.9141 224.143 25.3691 224.584 24.9824C225.029 24.5957 225.662 24.4023 226.482 24.4023C226.666 24.4023 226.857 24.416 227.057 24.4434C227.26 24.4668 227.412 24.4922 227.514 24.5195H229.758ZM224.666 32.0078C224.666 32.3047 224.799 32.5332 225.064 32.6934C225.334 32.8535 225.711 32.9336 226.195 32.9336C226.945 32.9336 227.504 32.8262 227.871 32.6113C228.238 32.3965 228.422 32.1113 228.422 31.7559C228.422 31.4746 228.32 31.2734 228.117 31.1523C227.918 31.0352 227.545 30.9766 226.998 30.9766H225.955C225.561 30.9766 225.246 31.0684 225.012 31.252C224.781 31.4395 224.666 31.6914 224.666 32.0078ZM225.258 26.6172C225.258 27.0234 225.361 27.3359 225.568 27.5547C225.779 27.7734 226.08 27.8828 226.471 27.8828C227.268 27.8828 227.666 27.457 227.666 26.6055C227.666 26.1836 227.566 25.8594 227.367 25.6328C227.172 25.4023 226.873 25.2871 226.471 25.2871C226.072 25.2871 225.77 25.4004 225.562 25.627C225.359 25.8535 225.258 26.1836 225.258 26.6172ZM234.252 24.4023C234.529 24.4023 234.758 24.4219 234.938 24.4609L234.803 25.7441C234.607 25.6973 234.404 25.6738 234.193 25.6738C233.643 25.6738 233.195 25.8535 232.852 26.2129C232.512 26.5723 232.342 27.0391 232.342 27.6133V31H230.965V24.5195H232.043L232.225 25.6621H232.295C232.51 25.2754 232.789 24.9688 233.133 24.7422C233.48 24.5156 233.854 24.4023 234.252 24.4023ZM238.975 31.1172C237.967 31.1172 237.178 30.8242 236.607 30.2383C236.041 29.6484 235.758 28.8379 235.758 27.8066C235.758 26.748 236.021 25.916 236.549 25.3105C237.076 24.7051 237.801 24.4023 238.723 24.4023C239.578 24.4023 240.254 24.6621 240.75 25.1816C241.246 25.7012 241.494 26.416 241.494 27.3262V28.0703H237.176C237.195 28.6992 237.365 29.1836 237.686 29.5234C238.006 29.8594 238.457 30.0273 239.039 30.0273C239.422 30.0273 239.777 29.9922 240.105 29.9219C240.438 29.8477 240.793 29.7266 241.172 29.5586V30.6777C240.836 30.8379 240.496 30.9512 240.152 31.0176C239.809 31.084 239.416 31.1172 238.975 31.1172ZM238.723 25.4453C238.285 25.4453 237.934 25.584 237.668 25.8613C237.406 26.1387 237.25 26.543 237.199 27.0742H240.141C240.133 26.5391 240.004 26.1348 239.754 25.8613C239.504 25.584 239.16 25.4453 238.723 25.4453ZM247.412 29.1543C247.412 29.7871 247.182 30.2734 246.721 30.6133C246.26 30.9492 245.6 31.1172 244.74 31.1172C243.877 31.1172 243.184 30.9863 242.66 30.7246V29.5352C243.422 29.8867 244.131 30.0625 244.787 30.0625C245.635 30.0625 246.059 29.8066 246.059 29.2949C246.059 29.1309 246.012 28.9941 245.918 28.8848C245.824 28.7754 245.67 28.6621 245.455 28.5449C245.24 28.4277 244.941 28.2949 244.559 28.1465C243.812 27.8574 243.307 27.5684 243.041 27.2793C242.779 26.9902 242.648 26.6152 242.648 26.1543C242.648 25.5996 242.871 25.1699 243.316 24.8652C243.766 24.5566 244.375 24.4023 245.145 24.4023C245.906 24.4023 246.627 24.5566 247.307 24.8652L246.861 25.9023C246.162 25.6133 245.574 25.4688 245.098 25.4688C244.371 25.4688 244.008 25.6758 244.008 26.0898C244.008 26.293 244.102 26.4648 244.289 26.6055C244.48 26.7461 244.895 26.9395 245.531 27.1855C246.066 27.3926 246.455 27.582 246.697 27.7539C246.939 27.9258 247.119 28.125 247.236 28.3516C247.354 28.5742 247.412 28.8418 247.412 29.1543ZM253.26 29.1543C253.26 29.7871 253.029 30.2734 252.568 30.6133C252.107 30.9492 251.447 31.1172 250.588 31.1172C249.725 31.1172 249.031 30.9863 248.508 30.7246V29.5352C249.27 29.8867 249.979 30.0625 250.635 30.0625C251.482 30.0625 251.906 29.8066 251.906 29.2949C251.906 29.1309 251.859 28.9941 251.766 28.8848C251.672 28.7754 251.518 28.6621 251.303 28.5449C251.088 28.4277 250.789 28.2949 250.406 28.1465C249.66 27.8574 249.154 27.5684 248.889 27.2793C248.627 26.9902 248.496 26.6152 248.496 26.1543C248.496 25.5996 248.719 25.1699 249.164 24.8652C249.613 24.5566 250.223 24.4023 250.992 24.4023C251.754 24.4023 252.475 24.5566 253.154 24.8652L252.709 25.9023C252.01 25.6133 251.422 25.4688 250.945 25.4688C250.219 25.4688 249.855 25.6758 249.855 26.0898C249.855 26.293 249.949 26.4648 250.137 26.6055C250.328 26.7461 250.742 26.9395 251.379 27.1855C251.914 27.3926 252.303 27.582 252.545 27.7539C252.787 27.9258 252.967 28.125 253.084 28.3516C253.201 28.5742 253.26 28.8418 253.26 29.1543Z" fill="#444444"/>
<path d="M195.07 68.6738C195.07 69.4355 194.795 70.0332 194.244 70.4668C193.693 70.9004 192.934 71.1172 191.965 71.1172C190.996 71.1172 190.203 70.9668 189.586 70.666V69.3418C189.977 69.5254 190.391 69.6699 190.828 69.7754C191.27 69.8809 191.68 69.9336 192.059 69.9336C192.613 69.9336 193.021 69.8281 193.283 69.6172C193.549 69.4062 193.682 69.123 193.682 68.7676C193.682 68.4473 193.561 68.1758 193.318 67.9531C193.076 67.7305 192.576 67.4668 191.818 67.1621C191.037 66.8457 190.486 66.4844 190.166 66.0781C189.846 65.6719 189.686 65.1836 189.686 64.6133C189.686 63.8984 189.939 63.3359 190.447 62.9258C190.955 62.5156 191.637 62.3105 192.492 62.3105C193.312 62.3105 194.129 62.4902 194.941 62.8496L194.496 63.9922C193.734 63.6719 193.055 63.5117 192.457 63.5117C192.004 63.5117 191.66 63.6113 191.426 63.8105C191.191 64.0059 191.074 64.2656 191.074 64.5898C191.074 64.8125 191.121 65.0039 191.215 65.1641C191.309 65.3203 191.463 65.4688 191.678 65.6094C191.893 65.75 192.279 65.9355 192.838 66.166C193.467 66.4277 193.928 66.6719 194.221 66.8984C194.514 67.125 194.729 67.3809 194.865 67.666C195.002 67.9512 195.07 68.2871 195.07 68.6738ZM201.152 71L200.959 70.1504H200.889C200.697 70.4512 200.424 70.6875 200.068 70.8594C199.717 71.0312 199.314 71.1172 198.861 71.1172C198.076 71.1172 197.49 70.9219 197.104 70.5312C196.717 70.1406 196.523 69.5488 196.523 68.7559V64.5195H197.912V68.5156C197.912 69.0117 198.014 69.3848 198.217 69.6348C198.42 69.8809 198.738 70.0039 199.172 70.0039C199.75 70.0039 200.174 69.832 200.443 69.4883C200.717 69.1406 200.854 68.5605 200.854 67.748V64.5195H202.236V71H201.152ZM207.51 64.4023C208.318 64.4023 208.947 64.6953 209.396 65.2812C209.85 65.8672 210.076 66.6895 210.076 67.748C210.076 68.8105 209.848 69.6387 209.391 70.2324C208.934 70.8223 208.299 71.1172 207.486 71.1172C206.666 71.1172 206.029 70.8223 205.576 70.2324H205.482L205.23 71H204.199V61.8828H205.576V64.0508C205.576 64.2109 205.568 64.4492 205.553 64.7656C205.537 65.082 205.525 65.2832 205.518 65.3691H205.576C206.014 64.7246 206.658 64.4023 207.51 64.4023ZM207.152 65.5273C206.598 65.5273 206.197 65.6914 205.951 66.0195C205.709 66.3438 205.584 66.8887 205.576 67.6543V67.748C205.576 68.5371 205.701 69.1094 205.951 69.4648C206.201 69.8164 206.609 69.9922 207.176 69.9922C207.664 69.9922 208.033 69.7988 208.283 69.4121C208.537 69.0254 208.664 68.4668 208.664 67.7363C208.664 66.2637 208.16 65.5273 207.152 65.5273ZM217.137 71H215.754V67.0039C215.754 66.5078 215.66 66.1387 215.473 65.8965C215.285 65.6504 214.992 65.5273 214.594 65.5273C214.062 65.5273 213.672 65.7012 213.422 66.0488C213.176 66.3926 213.053 66.9668 213.053 67.7715V71H211.676V64.5195H212.754L212.947 65.3691H213.018C213.197 65.0605 213.457 64.8223 213.797 64.6543C214.141 64.4863 214.518 64.4023 214.928 64.4023C215.924 64.4023 216.584 64.7422 216.908 65.4219H217.002C217.193 65.1016 217.463 64.8516 217.811 64.6719C218.158 64.4922 218.557 64.4023 219.006 64.4023C219.779 64.4023 220.342 64.5977 220.693 64.9883C221.049 65.3789 221.227 65.9746 221.227 66.7754V71H219.85V67.0039C219.85 66.5078 219.754 66.1387 219.562 65.8965C219.375 65.6504 219.082 65.5273 218.684 65.5273C218.148 65.5273 217.756 65.6953 217.506 66.0312C217.26 66.3633 217.137 66.875 217.137 67.5664V71ZM224.525 71H223.148V64.5195H224.525V71ZM223.066 62.8027C223.066 62.5566 223.133 62.3672 223.266 62.2344C223.402 62.1016 223.596 62.0352 223.846 62.0352C224.088 62.0352 224.275 62.1016 224.408 62.2344C224.545 62.3672 224.613 62.5566 224.613 62.8027C224.613 63.0371 224.545 63.2227 224.408 63.3594C224.275 63.4922 224.088 63.5586 223.846 63.5586C223.596 63.5586 223.402 63.4922 223.266 63.3594C223.133 63.2227 223.066 63.0371 223.066 62.8027ZM228.914 70.0039C229.25 70.0039 229.586 69.9512 229.922 69.8457V70.8828C229.77 70.9492 229.572 71.0039 229.33 71.0469C229.092 71.0938 228.844 71.1172 228.586 71.1172C227.281 71.1172 226.629 70.4297 226.629 69.0547V65.5625H225.744V64.9531L226.693 64.4492L227.162 63.0781H228.012V64.5195H229.857V65.5625H228.012V69.0312C228.012 69.3633 228.094 69.6094 228.258 69.7695C228.426 69.9258 228.645 70.0039 228.914 70.0039ZM233.637 70.0039C233.973 70.0039 234.309 69.9512 234.645 69.8457V70.8828C234.492 70.9492 234.295 71.0039 234.053 71.0469C233.814 71.0938 233.566 71.1172 233.309 71.1172C232.004 71.1172 231.352 70.4297 231.352 69.0547V65.5625H230.467V64.9531L231.416 64.4492L231.885 63.0781H232.734V64.5195H234.58V65.5625H232.734V69.0312C232.734 69.3633 232.816 69.6094 232.98 69.7695C233.148 69.9258 233.367 70.0039 233.637 70.0039ZM238.775 71.1172C237.768 71.1172 236.979 70.8242 236.408 70.2383C235.842 69.6484 235.559 68.8379 235.559 67.8066C235.559 66.748 235.822 65.916 236.35 65.3105C236.877 64.7051 237.602 64.4023 238.523 64.4023C239.379 64.4023 240.055 64.6621 240.551 65.1816C241.047 65.7012 241.295 66.416 241.295 67.3262V68.0703H236.977C236.996 68.6992 237.166 69.1836 237.486 69.5234C237.807 69.8594 238.258 70.0273 238.84 70.0273C239.223 70.0273 239.578 69.9922 239.906 69.9219C240.238 69.8477 240.594 69.7266 240.973 69.5586V70.6777C240.637 70.8379 240.297 70.9512 239.953 71.0176C239.609 71.084 239.217 71.1172 238.775 71.1172ZM238.523 65.4453C238.086 65.4453 237.734 65.584 237.469 65.8613C237.207 66.1387 237.051 66.543 237 67.0742H239.941C239.934 66.5391 239.805 66.1348 239.555 65.8613C239.305 65.584 238.961 65.4453 238.523 65.4453ZM245.045 71.1172C244.236 71.1172 243.605 70.8242 243.152 70.2383C242.699 69.6523 242.473 68.8301 242.473 67.7715C242.473 66.709 242.701 65.8828 243.158 65.293C243.619 64.6992 244.256 64.4023 245.068 64.4023C245.92 64.4023 246.568 64.7168 247.014 65.3457H247.084C247.018 64.8809 246.984 64.5137 246.984 64.2441V61.8828H248.367V71H247.289L247.049 70.1504H246.984C246.543 70.7949 245.896 71.1172 245.045 71.1172ZM245.414 70.0039C245.98 70.0039 246.393 69.8457 246.65 69.5293C246.908 69.209 247.041 68.6914 247.049 67.9766V67.7832C247.049 66.9668 246.916 66.3867 246.65 66.043C246.385 65.6992 245.969 65.5273 245.402 65.5273C244.918 65.5273 244.545 65.7246 244.283 66.1191C244.021 66.5098 243.891 67.0684 243.891 67.7949C243.891 68.5137 244.018 69.0625 244.271 69.4414C244.525 69.8164 244.906 70.0039 245.414 70.0039Z" fill="#444444"/>
<path d="M195.445 110L194.59 107.621H191.314L190.477 110H189L192.205 101.398H193.729L196.934 110H195.445ZM194.221 106.414L193.418 104.082C193.359 103.926 193.277 103.68 193.172 103.344C193.07 103.008 193 102.762 192.961 102.605C192.855 103.086 192.701 103.611 192.498 104.182L191.725 106.414H194.221ZM201.205 110.117C200.385 110.117 199.748 109.822 199.295 109.232H199.213C199.268 109.779 199.295 110.111 199.295 110.229V112.883H197.918V103.52H199.031C199.062 103.641 199.127 103.93 199.225 104.387H199.295C199.725 103.73 200.369 103.402 201.229 103.402C202.037 103.402 202.666 103.695 203.115 104.281C203.568 104.867 203.795 105.689 203.795 106.748C203.795 107.807 203.564 108.633 203.104 109.227C202.646 109.82 202.014 110.117 201.205 110.117ZM200.871 104.527C200.324 104.527 199.924 104.688 199.67 105.008C199.42 105.328 199.295 105.84 199.295 106.543V106.748C199.295 107.537 199.42 108.109 199.67 108.465C199.92 108.816 200.328 108.992 200.895 108.992C201.371 108.992 201.738 108.797 201.996 108.406C202.254 108.016 202.383 107.459 202.383 106.736C202.383 106.01 202.254 105.461 201.996 105.09C201.742 104.715 201.367 104.527 200.871 104.527ZM208.682 110.117C207.861 110.117 207.225 109.822 206.771 109.232H206.689C206.744 109.779 206.771 110.111 206.771 110.229V112.883H205.395V103.52H206.508C206.539 103.641 206.604 103.93 206.701 104.387H206.771C207.201 103.73 207.846 103.402 208.705 103.402C209.514 103.402 210.143 103.695 210.592 104.281C211.045 104.867 211.271 105.689 211.271 106.748C211.271 107.807 211.041 108.633 210.58 109.227C210.123 109.82 209.49 110.117 208.682 110.117ZM208.348 104.527C207.801 104.527 207.4 104.688 207.146 105.008C206.896 105.328 206.771 105.84 206.771 106.543V106.748C206.771 107.537 206.896 108.109 207.146 108.465C207.396 108.816 207.805 108.992 208.371 108.992C208.848 108.992 209.215 108.797 209.473 108.406C209.73 108.016 209.859 107.459 209.859 106.736C209.859 106.01 209.73 105.461 209.473 105.09C209.219 104.715 208.844 104.527 208.348 104.527ZM216.158 103.402C216.436 103.402 216.664 103.422 216.844 103.461L216.709 104.744C216.514 104.697 216.311 104.674 216.1 104.674C215.549 104.674 215.102 104.854 214.758 105.213C214.418 105.572 214.248 106.039 214.248 106.613V110H212.871V103.52H213.949L214.131 104.662H214.201C214.416 104.275 214.695 103.969 215.039 103.742C215.387 103.516 215.76 103.402 216.158 103.402ZM223.799 106.748C223.799 107.807 223.527 108.633 222.984 109.227C222.441 109.82 221.686 110.117 220.717 110.117C220.111 110.117 219.576 109.98 219.111 109.707C218.646 109.434 218.289 109.041 218.039 108.529C217.789 108.018 217.664 107.424 217.664 106.748C217.664 105.697 217.934 104.877 218.473 104.287C219.012 103.697 219.771 103.402 220.752 103.402C221.689 103.402 222.432 103.705 222.979 104.311C223.525 104.912 223.799 105.725 223.799 106.748ZM219.082 106.748C219.082 108.244 219.635 108.992 220.74 108.992C221.834 108.992 222.381 108.244 222.381 106.748C222.381 105.268 221.83 104.527 220.729 104.527C220.15 104.527 219.73 104.719 219.469 105.102C219.211 105.484 219.082 106.033 219.082 106.748ZM226.863 110L224.402 103.52H225.855L227.174 107.287C227.4 107.92 227.537 108.432 227.584 108.822H227.631C227.666 108.541 227.803 108.029 228.041 107.287L229.359 103.52H230.824L228.352 110H226.863ZM234.639 110.117C233.631 110.117 232.842 109.824 232.271 109.238C231.705 108.648 231.422 107.838 231.422 106.807C231.422 105.748 231.686 104.916 232.213 104.311C232.74 103.705 233.465 103.402 234.387 103.402C235.242 103.402 235.918 103.662 236.414 104.182C236.91 104.701 237.158 105.416 237.158 106.326V107.07H232.84C232.859 107.699 233.029 108.184 233.35 108.523C233.67 108.859 234.121 109.027 234.703 109.027C235.086 109.027 235.441 108.992 235.77 108.922C236.102 108.848 236.457 108.727 236.836 108.559V109.678C236.5 109.838 236.16 109.951 235.816 110.018C235.473 110.084 235.08 110.117 234.639 110.117ZM234.387 104.445C233.949 104.445 233.598 104.584 233.332 104.861C233.07 105.139 232.914 105.543 232.863 106.074H235.805C235.797 105.539 235.668 105.135 235.418 104.861C235.168 104.584 234.824 104.445 234.387 104.445ZM240.908 110.117C240.1 110.117 239.469 109.824 239.016 109.238C238.562 108.652 238.336 107.83 238.336 106.771C238.336 105.709 238.564 104.883 239.021 104.293C239.482 103.699 240.119 103.402 240.932 103.402C241.783 103.402 242.432 103.717 242.877 104.346H242.947C242.881 103.881 242.848 103.514 242.848 103.244V100.883H244.23V110H243.152L242.912 109.15H242.848C242.406 109.795 241.76 110.117 240.908 110.117ZM241.277 109.004C241.844 109.004 242.256 108.846 242.514 108.529C242.771 108.209 242.904 107.691 242.912 106.977V106.783C242.912 105.967 242.779 105.387 242.514 105.043C242.248 104.699 241.832 104.527 241.266 104.527C240.781 104.527 240.408 104.725 240.146 105.119C239.885 105.51 239.754 106.068 239.754 106.795C239.754 107.514 239.881 108.062 240.135 108.441C240.389 108.816 240.77 109.004 241.277 109.004Z" fill="#444444"/>
<path d="M195.445 150L194.59 147.621H191.314L190.477 150H189L192.205 141.398H193.729L196.934 150H195.445ZM194.221 146.414L193.418 144.082C193.359 143.926 193.277 143.68 193.172 143.344C193.07 143.008 193 142.762 192.961 142.605C192.855 143.086 192.701 143.611 192.498 144.182L191.725 146.414H194.221ZM200.531 150.117C199.551 150.117 198.805 149.832 198.293 149.262C197.785 148.688 197.531 147.865 197.531 146.795C197.531 145.705 197.797 144.867 198.328 144.281C198.863 143.695 199.635 143.402 200.643 143.402C201.326 143.402 201.941 143.529 202.488 143.783L202.072 144.891C201.49 144.664 201.01 144.551 200.631 144.551C199.51 144.551 198.949 145.295 198.949 146.783C198.949 147.51 199.088 148.057 199.365 148.424C199.646 148.787 200.057 148.969 200.596 148.969C201.209 148.969 201.789 148.816 202.336 148.512V149.713C202.09 149.857 201.826 149.961 201.545 150.023C201.268 150.086 200.93 150.117 200.531 150.117ZM206.273 149.004C206.609 149.004 206.945 148.951 207.281 148.846V149.883C207.129 149.949 206.932 150.004 206.689 150.047C206.451 150.094 206.203 150.117 205.945 150.117C204.641 150.117 203.988 149.43 203.988 148.055V144.562H203.104V143.953L204.053 143.449L204.521 142.078H205.371V143.52H207.217V144.562H205.371V148.031C205.371 148.363 205.453 148.609 205.617 148.77C205.785 148.926 206.004 149.004 206.273 149.004ZM209.959 150H208.582V143.52H209.959V150ZM208.5 141.803C208.5 141.557 208.566 141.367 208.699 141.234C208.836 141.102 209.029 141.035 209.279 141.035C209.521 141.035 209.709 141.102 209.842 141.234C209.979 141.367 210.047 141.557 210.047 141.803C210.047 142.037 209.979 142.223 209.842 142.359C209.709 142.492 209.521 142.559 209.279 142.559C209.029 142.559 208.836 142.492 208.699 142.359C208.566 142.223 208.5 142.037 208.5 141.803ZM213.41 150L210.949 143.52H212.402L213.721 147.287C213.947 147.92 214.084 148.432 214.131 148.822H214.178C214.213 148.541 214.35 148.029 214.588 147.287L215.906 143.52H217.371L214.898 150H213.41ZM221.186 150.117C220.178 150.117 219.389 149.824 218.818 149.238C218.252 148.648 217.969 147.838 217.969 146.807C217.969 145.748 218.232 144.916 218.76 144.311C219.287 143.705 220.012 143.402 220.934 143.402C221.789 143.402 222.465 143.662 222.961 144.182C223.457 144.701 223.705 145.416 223.705 146.326V147.07H219.387C219.406 147.699 219.576 148.184 219.896 148.523C220.217 148.859 220.668 149.027 221.25 149.027C221.633 149.027 221.988 148.992 222.316 148.922C222.648 148.848 223.004 148.727 223.383 148.559V149.678C223.047 149.838 222.707 149.951 222.363 150.018C222.02 150.084 221.627 150.117 221.186 150.117ZM220.934 144.445C220.496 144.445 220.145 144.584 219.879 144.861C219.617 145.139 219.461 145.543 219.41 146.074H222.352C222.344 145.539 222.215 145.135 221.965 144.861C221.715 144.584 221.371 144.445 220.934 144.445Z" fill="#444444"/>
<path d="M321.775 22.5117C320.971 22.5117 320.338 22.7969 319.877 23.3672C319.416 23.9375 319.186 24.7246 319.186 25.7285C319.186 26.7793 319.406 27.5742 319.848 28.1133C320.293 28.6523 320.936 28.9219 321.775 28.9219C322.139 28.9219 322.49 28.8867 322.83 28.8164C323.17 28.7422 323.523 28.6484 323.891 28.5352V29.7363C323.219 29.9902 322.457 30.1172 321.605 30.1172C320.352 30.1172 319.389 29.7383 318.717 28.9805C318.045 28.2188 317.709 27.1309 317.709 25.7168C317.709 24.8262 317.871 24.0469 318.195 23.3789C318.523 22.7109 318.996 22.1992 319.613 21.8438C320.23 21.4883 320.955 21.3105 321.787 21.3105C322.662 21.3105 323.471 21.4941 324.213 21.8613L323.709 23.0273C323.42 22.8906 323.113 22.7715 322.789 22.6699C322.469 22.5645 322.131 22.5117 321.775 22.5117ZM331.338 26.748C331.338 27.8066 331.066 28.6328 330.523 29.2266C329.98 29.8203 329.225 30.1172 328.256 30.1172C327.65 30.1172 327.115 29.9805 326.65 29.707C326.186 29.4336 325.828 29.041 325.578 28.5293C325.328 28.0176 325.203 27.4238 325.203 26.748C325.203 25.6973 325.473 24.877 326.012 24.2871C326.551 23.6973 327.311 23.4023 328.291 23.4023C329.229 23.4023 329.971 23.7051 330.518 24.3105C331.064 24.9121 331.338 25.7246 331.338 26.748ZM326.621 26.748C326.621 28.2441 327.174 28.9922 328.279 28.9922C329.373 28.9922 329.92 28.2441 329.92 26.748C329.92 25.2676 329.369 24.5273 328.268 24.5273C327.689 24.5273 327.27 24.7188 327.008 25.1016C326.75 25.4844 326.621 26.0332 326.621 26.748ZM338.627 30H337.244V26.0156C337.244 25.5156 337.143 25.1426 336.939 24.8965C336.74 24.6504 336.422 24.5273 335.984 24.5273C335.402 24.5273 334.977 24.6992 334.707 25.043C334.438 25.3867 334.303 25.9629 334.303 26.7715V30H332.926V23.5195H334.004L334.197 24.3691H334.268C334.463 24.0605 334.74 23.8223 335.1 23.6543C335.459 23.4863 335.857 23.4023 336.295 23.4023C337.85 23.4023 338.627 24.1934 338.627 25.7754V30ZM343.156 30.1172C342.176 30.1172 341.43 29.832 340.918 29.2617C340.41 28.6875 340.156 27.8652 340.156 26.7949C340.156 25.7051 340.422 24.8672 340.953 24.2812C341.488 23.6953 342.26 23.4023 343.268 23.4023C343.951 23.4023 344.566 23.5293 345.113 23.7832L344.697 24.8906C344.115 24.6641 343.635 24.5508 343.256 24.5508C342.135 24.5508 341.574 25.2949 341.574 26.7832C341.574 27.5098 341.713 28.0566 341.99 28.4238C342.271 28.7871 342.682 28.9688 343.221 28.9688C343.834 28.9688 344.414 28.8164 344.961 28.5117V29.7129C344.715 29.8574 344.451 29.9609 344.17 30.0234C343.893 30.0859 343.555 30.1172 343.156 30.1172ZM347.861 30H346.484V20.8828H347.861V30ZM354.406 30L354.213 29.1504H354.143C353.951 29.4512 353.678 29.6875 353.322 29.8594C352.971 30.0312 352.568 30.1172 352.115 30.1172C351.33 30.1172 350.744 29.9219 350.357 29.5312C349.971 29.1406 349.777 28.5488 349.777 27.7559V23.5195H351.166V27.5156C351.166 28.0117 351.268 28.3848 351.471 28.6348C351.674 28.8809 351.992 29.0039 352.426 29.0039C353.004 29.0039 353.428 28.832 353.697 28.4883C353.971 28.1406 354.107 27.5605 354.107 26.748V23.5195H355.49V30H354.406ZM359.639 30.1172C358.83 30.1172 358.199 29.8242 357.746 29.2383C357.293 28.6523 357.066 27.8301 357.066 26.7715C357.066 25.709 357.295 24.8828 357.752 24.293C358.213 23.6992 358.85 23.4023 359.662 23.4023C360.514 23.4023 361.162 23.7168 361.607 24.3457H361.678C361.611 23.8809 361.578 23.5137 361.578 23.2441V20.8828H362.961V30H361.883L361.643 29.1504H361.578C361.137 29.7949 360.49 30.1172 359.639 30.1172ZM360.008 29.0039C360.574 29.0039 360.986 28.8457 361.244 28.5293C361.502 28.209 361.635 27.6914 361.643 26.9766V26.7832C361.643 25.9668 361.51 25.3867 361.244 25.043C360.979 24.6992 360.562 24.5273 359.996 24.5273C359.512 24.5273 359.139 24.7246 358.877 25.1191C358.615 25.5098 358.484 26.0684 358.484 26.7949C358.484 27.5137 358.611 28.0625 358.865 28.4414C359.119 28.8164 359.5 29.0039 360.008 29.0039ZM367.76 30.1172C366.752 30.1172 365.963 29.8242 365.393 29.2383C364.826 28.6484 364.543 27.8379 364.543 26.8066C364.543 25.748 364.807 24.916 365.334 24.3105C365.861 23.7051 366.586 23.4023 367.508 23.4023C368.363 23.4023 369.039 23.6621 369.535 24.1816C370.031 24.7012 370.279 25.416 370.279 26.3262V27.0703H365.961C365.98 27.6992 366.15 28.1836 366.471 28.5234C366.791 28.8594 367.242 29.0273 367.824 29.0273C368.207 29.0273 368.562 28.9922 368.891 28.9219C369.223 28.8477 369.578 28.7266 369.957 28.5586V29.6777C369.621 29.8379 369.281 29.9512 368.938 30.0176C368.594 30.084 368.201 30.1172 367.76 30.1172ZM367.508 24.4453C367.07 24.4453 366.719 24.584 366.453 24.8613C366.191 25.1387 366.035 25.543 365.984 26.0742H368.926C368.918 25.5391 368.789 25.1348 368.539 24.8613C368.289 24.584 367.945 24.4453 367.508 24.4453ZM374.029 30.1172C373.221 30.1172 372.59 29.8242 372.137 29.2383C371.684 28.6523 371.457 27.8301 371.457 26.7715C371.457 25.709 371.686 24.8828 372.143 24.293C372.604 23.6992 373.24 23.4023 374.053 23.4023C374.904 23.4023 375.553 23.7168 375.998 24.3457H376.068C376.002 23.8809 375.969 23.5137 375.969 23.2441V20.8828H377.352V30H376.273L376.033 29.1504H375.969C375.527 29.7949 374.881 30.1172 374.029 30.1172ZM374.398 29.0039C374.965 29.0039 375.377 28.8457 375.635 28.5293C375.893 28.209 376.025 27.6914 376.033 26.9766V26.7832C376.033 25.9668 375.9 25.3867 375.635 25.043C375.369 24.6992 374.953 24.5273 374.387 24.5273C373.902 24.5273 373.529 24.7246 373.268 25.1191C373.006 25.5098 372.875 26.0684 372.875 26.7949C372.875 27.5137 373.002 28.0625 373.256 28.4414C373.51 28.8164 373.891 29.0039 374.398 29.0039Z" fill="#444444"/>
<path d="M325.736 65.7051C325.736 67.0996 325.387 68.1836 324.688 68.957C323.992 69.7305 323.006 70.1172 321.729 70.1172C320.436 70.1172 319.441 69.7344 318.746 68.9688C318.055 68.1992 317.709 67.1074 317.709 65.6934C317.709 64.2793 318.057 63.1934 318.752 62.4355C319.451 61.6777 320.447 61.2988 321.74 61.2988C323.014 61.2988 323.998 61.6836 324.693 62.4531C325.389 63.2227 325.736 64.3066 325.736 65.7051ZM319.197 65.7051C319.197 66.7598 319.41 67.5605 319.836 68.1074C320.262 68.6504 320.893 68.9219 321.729 68.9219C322.561 68.9219 323.188 68.6523 323.609 68.1133C324.035 67.5742 324.248 66.7715 324.248 65.7051C324.248 64.6543 324.037 63.8574 323.615 63.3145C323.197 62.7715 322.572 62.5 321.74 62.5C320.9 62.5 320.266 62.7715 319.836 63.3145C319.41 63.8574 319.197 64.6543 319.197 65.7051ZM333.131 70H331.748V66.0156C331.748 65.5156 331.646 65.1426 331.443 64.8965C331.244 64.6504 330.926 64.5273 330.488 64.5273C329.906 64.5273 329.48 64.6992 329.211 65.043C328.941 65.3867 328.807 65.9629 328.807 66.7715V70H327.43V63.5195H328.508L328.701 64.3691H328.771C328.967 64.0605 329.244 63.8223 329.604 63.6543C329.963 63.4863 330.361 63.4023 330.799 63.4023C332.354 63.4023 333.131 64.1934 333.131 65.7754V70ZM345.066 70H343.66V66.1387H339.711V70H338.311V61.4336H339.711V64.9375H343.66V61.4336H345.066V70ZM352.924 66.748C352.924 67.8066 352.652 68.6328 352.109 69.2266C351.566 69.8203 350.811 70.1172 349.842 70.1172C349.236 70.1172 348.701 69.9805 348.236 69.707C347.771 69.4336 347.414 69.041 347.164 68.5293C346.914 68.0176 346.789 67.4238 346.789 66.748C346.789 65.6973 347.059 64.877 347.598 64.2871C348.137 63.6973 348.896 63.4023 349.877 63.4023C350.814 63.4023 351.557 63.7051 352.104 64.3105C352.65 64.9121 352.924 65.7246 352.924 66.748ZM348.207 66.748C348.207 68.2441 348.76 68.9922 349.865 68.9922C350.959 68.9922 351.506 68.2441 351.506 66.748C351.506 65.2676 350.955 64.5273 349.854 64.5273C349.275 64.5273 348.855 64.7188 348.594 65.1016C348.336 65.4844 348.207 66.0332 348.207 66.748ZM355.889 70H354.512V60.8828H355.889V70ZM360.049 70.1172C359.24 70.1172 358.609 69.8242 358.156 69.2383C357.703 68.6523 357.477 67.8301 357.477 66.7715C357.477 65.709 357.705 64.8828 358.162 64.293C358.623 63.6992 359.26 63.4023 360.072 63.4023C360.924 63.4023 361.572 63.7168 362.018 64.3457H362.088C362.021 63.8809 361.988 63.5137 361.988 63.2441V60.8828H363.371V70H362.293L362.053 69.1504H361.988C361.547 69.7949 360.9 70.1172 360.049 70.1172ZM360.418 69.0039C360.984 69.0039 361.396 68.8457 361.654 68.5293C361.912 68.209 362.045 67.6914 362.053 66.9766V66.7832C362.053 65.9668 361.92 65.3867 361.654 65.043C361.389 64.6992 360.973 64.5273 360.406 64.5273C359.922 64.5273 359.549 64.7246 359.287 65.1191C359.025 65.5098 358.895 66.0684 358.895 66.7949C358.895 67.5137 359.021 68.0625 359.275 68.4414C359.529 68.8164 359.91 69.0039 360.418 69.0039Z" fill="#444444"/>
<path d="M319.531 106.418H320.504C321.156 106.418 321.629 106.297 321.922 106.055C322.215 105.812 322.361 105.453 322.361 104.977C322.361 104.492 322.203 104.145 321.887 103.934C321.57 103.723 321.094 103.617 320.457 103.617H319.531V106.418ZM319.531 107.578V111H318.131V102.434H320.551C321.656 102.434 322.475 102.641 323.006 103.055C323.537 103.469 323.803 104.094 323.803 104.93C323.803 105.996 323.248 106.756 322.139 107.209L324.559 111H322.965L320.914 107.578H319.531ZM328.49 111.117C327.482 111.117 326.693 110.824 326.123 110.238C325.557 109.648 325.273 108.838 325.273 107.807C325.273 106.748 325.537 105.916 326.064 105.311C326.592 104.705 327.316 104.402 328.238 104.402C329.094 104.402 329.77 104.662 330.266 105.182C330.762 105.701 331.01 106.416 331.01 107.326V108.07H326.691C326.711 108.699 326.881 109.184 327.201 109.523C327.521 109.859 327.973 110.027 328.555 110.027C328.938 110.027 329.293 109.992 329.621 109.922C329.953 109.848 330.309 109.727 330.688 109.559V110.678C330.352 110.838 330.012 110.951 329.668 111.018C329.324 111.084 328.932 111.117 328.49 111.117ZM328.238 105.445C327.801 105.445 327.449 105.584 327.184 105.861C326.922 106.139 326.766 106.543 326.715 107.074H329.656C329.648 106.539 329.52 106.135 329.27 105.861C329.02 105.584 328.676 105.445 328.238 105.445ZM331.912 113.883C331.498 113.883 331.154 113.834 330.881 113.736V112.646C331.146 112.717 331.418 112.752 331.695 112.752C332.281 112.752 332.574 112.42 332.574 111.756V104.52H333.951V111.85C333.951 112.518 333.775 113.023 333.424 113.367C333.076 113.711 332.572 113.883 331.912 113.883ZM332.492 102.803C332.492 102.557 332.559 102.367 332.691 102.234C332.828 102.102 333.021 102.035 333.271 102.035C333.514 102.035 333.701 102.102 333.834 102.234C333.971 102.367 334.039 102.557 334.039 102.803C334.039 103.037 333.971 103.223 333.834 103.359C333.701 103.492 333.514 103.559 333.271 103.559C333.021 103.559 332.828 103.492 332.691 103.359C332.559 103.223 332.492 103.037 332.492 102.803ZM338.756 111.117C337.748 111.117 336.959 110.824 336.389 110.238C335.822 109.648 335.539 108.838 335.539 107.807C335.539 106.748 335.803 105.916 336.33 105.311C336.857 104.705 337.582 104.402 338.504 104.402C339.359 104.402 340.035 104.662 340.531 105.182C341.027 105.701 341.275 106.416 341.275 107.326V108.07H336.957C336.977 108.699 337.146 109.184 337.467 109.523C337.787 109.859 338.238 110.027 338.82 110.027C339.203 110.027 339.559 109.992 339.887 109.922C340.219 109.848 340.574 109.727 340.953 109.559V110.678C340.617 110.838 340.277 110.951 339.934 111.018C339.59 111.084 339.197 111.117 338.756 111.117ZM338.504 105.445C338.066 105.445 337.715 105.584 337.449 105.861C337.188 106.139 337.031 106.543 336.98 107.074H339.922C339.914 106.539 339.785 106.135 339.535 105.861C339.285 105.584 338.941 105.445 338.504 105.445ZM345.453 111.117C344.473 111.117 343.727 110.832 343.215 110.262C342.707 109.688 342.453 108.865 342.453 107.795C342.453 106.705 342.719 105.867 343.25 105.281C343.785 104.695 344.557 104.402 345.564 104.402C346.248 104.402 346.863 104.529 347.41 104.783L346.994 105.891C346.412 105.664 345.932 105.551 345.553 105.551C344.432 105.551 343.871 106.295 343.871 107.783C343.871 108.51 344.01 109.057 344.287 109.424C344.568 109.787 344.979 109.969 345.518 109.969C346.131 109.969 346.711 109.816 347.258 109.512V110.713C347.012 110.857 346.748 110.961 346.467 111.023C346.189 111.086 345.852 111.117 345.453 111.117ZM351.195 110.004C351.531 110.004 351.867 109.951 352.203 109.846V110.883C352.051 110.949 351.854 111.004 351.611 111.047C351.373 111.094 351.125 111.117 350.867 111.117C349.562 111.117 348.91 110.43 348.91 109.055V105.562H348.025V104.953L348.975 104.449L349.443 103.078H350.293V104.52H352.139V105.562H350.293V109.031C350.293 109.363 350.375 109.609 350.539 109.77C350.707 109.926 350.926 110.004 351.195 110.004ZM356.334 111.117C355.326 111.117 354.537 110.824 353.967 110.238C353.4 109.648 353.117 108.838 353.117 107.807C353.117 106.748 353.381 105.916 353.908 105.311C354.436 104.705 355.16 104.402 356.082 104.402C356.938 104.402 357.613 104.662 358.109 105.182C358.605 105.701 358.854 106.416 358.854 107.326V108.07H354.535C354.555 108.699 354.725 109.184 355.045 109.523C355.365 109.859 355.816 110.027 356.398 110.027C356.781 110.027 357.137 109.992 357.465 109.922C357.797 109.848 358.152 109.727 358.531 109.559V110.678C358.195 110.838 357.855 110.951 357.512 111.018C357.168 111.084 356.775 111.117 356.334 111.117ZM356.082 105.445C355.645 105.445 355.293 105.584 355.027 105.861C354.766 106.139 354.609 106.543 354.559 107.074H357.5C357.492 106.539 357.363 106.135 357.113 105.861C356.863 105.584 356.52 105.445 356.082 105.445ZM362.604 111.117C361.795 111.117 361.164 110.824 360.711 110.238C360.258 109.652 360.031 108.83 360.031 107.771C360.031 106.709 360.26 105.883 360.717 105.293C361.178 104.699 361.814 104.402 362.627 104.402C363.479 104.402 364.127 104.717 364.572 105.346H364.643C364.576 104.881 364.543 104.514 364.543 104.244V101.883H365.926V111H364.848L364.607 110.15H364.543C364.102 110.795 363.455 111.117 362.604 111.117ZM362.973 110.004C363.539 110.004 363.951 109.846 364.209 109.529C364.467 109.209 364.6 108.691 364.607 107.977V107.783C364.607 106.967 364.475 106.387 364.209 106.043C363.943 105.699 363.527 105.527 362.961 105.527C362.477 105.527 362.104 105.725 361.842 106.119C361.58 106.51 361.449 107.068 361.449 107.795C361.449 108.514 361.576 109.062 361.83 109.441C362.084 109.816 362.465 110.004 362.973 110.004Z" fill="#444444"/>
<path d="M60.5312 67.418H61.5039C62.1562 67.418 62.6289 67.2969 62.9219 67.0547C63.2148 66.8125 63.3613 66.4531 63.3613 65.9766C63.3613 65.4922 63.2031 65.1445 62.8867 64.9336C62.5703 64.7227 62.0938 64.6172 61.457 64.6172H60.5312V67.418ZM60.5312 68.5781V72H59.1309V63.4336H61.5508C62.6562 63.4336 63.4746 63.6406 64.0059 64.0547C64.5371 64.4688 64.8027 65.0938 64.8027 65.9297C64.8027 66.9961 64.248 67.7559 63.1387 68.209L65.5586 72H63.9648L61.9141 68.5781H60.5312ZM69.4902 72.1172C68.4824 72.1172 67.6934 71.8242 67.123 71.2383C66.5566 70.6484 66.2734 69.8379 66.2734 68.8066C66.2734 67.748 66.5371 66.916 67.0645 66.3105C67.5918 65.7051 68.3164 65.4023 69.2383 65.4023C70.0938 65.4023 70.7695 65.6621 71.2656 66.1816C71.7617 66.7012 72.0098 67.416 72.0098 68.3262V69.0703H67.6914C67.7109 69.6992 67.8809 70.1836 68.2012 70.5234C68.5215 70.8594 68.9727 71.0273 69.5547 71.0273C69.9375 71.0273 70.293 70.9922 70.6211 70.9219C70.9531 70.8477 71.3086 70.7266 71.6875 70.5586V71.6777C71.3516 71.8379 71.0117 71.9512 70.668 72.0176C70.3242 72.084 69.9316 72.1172 69.4902 72.1172ZM69.2383 66.4453C68.8008 66.4453 68.4492 66.584 68.1836 66.8613C67.9219 67.1387 67.7656 67.543 67.7148 68.0742H70.6562C70.6484 67.5391 70.5195 67.1348 70.2695 66.8613C70.0195 66.584 69.6758 66.4453 69.2383 66.4453ZM76.1406 71.0156C76.7188 71.0156 77.1328 70.8496 77.3828 70.5176C77.6367 70.1816 77.7637 69.6758 77.7637 69V68.7832C77.7637 67.9824 77.6328 67.4062 77.3711 67.0547C77.1133 66.7031 76.6953 66.5273 76.1172 66.5273C75.625 66.5273 75.25 66.7227 74.9922 67.1133C74.7344 67.5039 74.6055 68.0645 74.6055 68.7949C74.6055 70.2754 75.1172 71.0156 76.1406 71.0156ZM75.748 72.1172C74.9473 72.1172 74.3203 71.8242 73.8672 71.2383C73.4141 70.6484 73.1875 69.8262 73.1875 68.7715C73.1875 67.7168 73.418 66.8926 73.8789 66.2988C74.3398 65.7012 74.9746 65.4023 75.7832 65.4023C76.1895 65.4023 76.5527 65.4785 76.873 65.6309C77.1973 65.7793 77.4863 66.0254 77.7402 66.3691H77.7871L77.9395 65.5195H79.082V74.8828H77.6992V72.1348C77.6992 71.9629 77.707 71.7812 77.7227 71.5898C77.7383 71.3984 77.752 71.252 77.7637 71.1504H77.6875C77.2812 71.7949 76.6348 72.1172 75.748 72.1172ZM85.6211 72L85.4277 71.1504H85.3574C85.166 71.4512 84.8926 71.6875 84.5371 71.8594C84.1855 72.0312 83.7832 72.1172 83.3301 72.1172C82.5449 72.1172 81.959 71.9219 81.5723 71.5312C81.1855 71.1406 80.9922 70.5488 80.9922 69.7559V65.5195H82.3809V69.5156C82.3809 70.0117 82.4824 70.3848 82.6855 70.6348C82.8887 70.8809 83.207 71.0039 83.6406 71.0039C84.2188 71.0039 84.6426 70.832 84.9121 70.4883C85.1855 70.1406 85.3223 69.5605 85.3223 68.748V65.5195H86.7051V72H85.6211ZM91.498 72.1172C90.4902 72.1172 89.7012 71.8242 89.1309 71.2383C88.5645 70.6484 88.2812 69.8379 88.2812 68.8066C88.2812 67.748 88.5449 66.916 89.0723 66.3105C89.5996 65.7051 90.3242 65.4023 91.2461 65.4023C92.1016 65.4023 92.7773 65.6621 93.2734 66.1816C93.7695 66.7012 94.0176 67.416 94.0176 68.3262V69.0703H89.6992C89.7188 69.6992 89.8887 70.1836 90.209 70.5234C90.5293 70.8594 90.9805 71.0273 91.5625 71.0273C91.9453 71.0273 92.3008 70.9922 92.6289 70.9219C92.9609 70.8477 93.3164 70.7266 93.6953 70.5586V71.6777C93.3594 71.8379 93.0195 71.9512 92.6758 72.0176C92.332 72.084 91.9395 72.1172 91.498 72.1172ZM91.2461 66.4453C90.8086 66.4453 90.457 66.584 90.1914 66.8613C89.9297 67.1387 89.7734 67.543 89.7227 68.0742H92.6641C92.6562 67.5391 92.5273 67.1348 92.2773 66.8613C92.0273 66.584 91.6836 66.4453 91.2461 66.4453ZM99.9355 70.1543C99.9355 70.7871 99.7051 71.2734 99.2441 71.6133C98.7832 71.9492 98.123 72.1172 97.2637 72.1172C96.4004 72.1172 95.707 71.9863 95.1836 71.7246V70.5352C95.9453 70.8867 96.6543 71.0625 97.3105 71.0625C98.1582 71.0625 98.582 70.8066 98.582 70.2949C98.582 70.1309 98.5352 69.9941 98.4414 69.8848C98.3477 69.7754 98.1934 69.6621 97.9785 69.5449C97.7637 69.4277 97.4648 69.2949 97.082 69.1465C96.3359 68.8574 95.8301 68.5684 95.5645 68.2793C95.3027 67.9902 95.1719 67.6152 95.1719 67.1543C95.1719 66.5996 95.3945 66.1699 95.8398 65.8652C96.2891 65.5566 96.8984 65.4023 97.668 65.4023C98.4297 65.4023 99.1504 65.5566 99.8301 65.8652L99.3848 66.9023C98.6855 66.6133 98.0977 66.4688 97.6211 66.4688C96.8945 66.4688 96.5312 66.6758 96.5312 67.0898C96.5312 67.293 96.625 67.4648 96.8125 67.6055C97.0039 67.7461 97.418 67.9395 98.0547 68.1855C98.5898 68.3926 98.9785 68.582 99.2207 68.7539C99.4629 68.9258 99.6426 69.125 99.7598 69.3516C99.877 69.5742 99.9355 69.8418 99.9355 70.1543ZM103.844 71.0039C104.18 71.0039 104.516 70.9512 104.852 70.8457V71.8828C104.699 71.9492 104.502 72.0039 104.26 72.0469C104.021 72.0938 103.773 72.1172 103.516 72.1172C102.211 72.1172 101.559 71.4297 101.559 70.0547V66.5625H100.674V65.9531L101.623 65.4492L102.092 64.0781H102.941V65.5195H104.787V66.5625H102.941V70.0312C102.941 70.3633 103.023 70.6094 103.188 70.7695C103.355 70.9258 103.574 71.0039 103.844 71.0039Z" fill="#444444"/>
<path d="M62.6348 107.354H65.7871V111.654C65.2715 111.822 64.7754 111.941 64.2988 112.012C63.8262 112.082 63.3145 112.117 62.7637 112.117C61.4668 112.117 60.4668 111.734 59.7637 110.969C59.0605 110.199 58.709 109.115 58.709 107.717C58.709 106.338 59.1055 105.26 59.8984 104.482C60.6914 103.701 61.7832 103.311 63.1738 103.311C64.0684 103.311 64.916 103.482 65.7168 103.826L65.2246 104.992C64.5293 104.672 63.834 104.512 63.1387 104.512C62.2246 104.512 61.502 104.799 60.9707 105.373C60.4395 105.947 60.1738 106.732 60.1738 107.729C60.1738 108.775 60.4121 109.572 60.8887 110.119C61.3691 110.662 62.0586 110.934 62.957 110.934C63.4102 110.934 63.8945 110.877 64.4102 110.764V108.555H62.6348V107.354ZM70.9902 105.402C71.2676 105.402 71.4961 105.422 71.6758 105.461L71.541 106.744C71.3457 106.697 71.1426 106.674 70.9316 106.674C70.3809 106.674 69.9336 106.854 69.5898 107.213C69.25 107.572 69.0801 108.039 69.0801 108.613V112H67.7031V105.52H68.7812L68.9629 106.662H69.0332C69.248 106.275 69.5273 105.969 69.8711 105.742C70.2188 105.516 70.5918 105.402 70.9902 105.402ZM76.9375 112L76.6621 111.098H76.6152C76.3027 111.492 75.9883 111.762 75.6719 111.906C75.3555 112.047 74.9492 112.117 74.4531 112.117C73.8164 112.117 73.3184 111.945 72.959 111.602C72.6035 111.258 72.4258 110.771 72.4258 110.143C72.4258 109.475 72.6738 108.971 73.1699 108.631C73.666 108.291 74.4219 108.105 75.4375 108.074L76.5566 108.039V107.693C76.5566 107.279 76.459 106.971 76.2637 106.768C76.0723 106.561 75.7734 106.457 75.3672 106.457C75.0352 106.457 74.7168 106.506 74.4121 106.604C74.1074 106.701 73.8145 106.816 73.5332 106.949L73.0879 105.965C73.4395 105.781 73.8242 105.643 74.2422 105.549C74.6602 105.451 75.0547 105.402 75.4258 105.402C76.25 105.402 76.8711 105.582 77.2891 105.941C77.7109 106.301 77.9219 106.865 77.9219 107.635V112H76.9375ZM74.8867 111.062C75.3867 111.062 75.7871 110.924 76.0879 110.646C76.3926 110.365 76.5449 109.973 76.5449 109.469V108.906L75.7129 108.941C75.0645 108.965 74.5918 109.074 74.2949 109.27C74.002 109.461 73.8555 109.756 73.8555 110.154C73.8555 110.443 73.9414 110.668 74.1133 110.828C74.2852 110.984 74.543 111.062 74.8867 111.062ZM85.5449 112H84.1621V108.016C84.1621 107.516 84.0605 107.143 83.8574 106.896C83.6582 106.65 83.3398 106.527 82.9023 106.527C82.3203 106.527 81.8945 106.699 81.625 107.043C81.3555 107.387 81.2207 107.963 81.2207 108.771V112H79.8438V105.52H80.9219L81.1152 106.369H81.1855C81.3809 106.061 81.6582 105.822 82.0176 105.654C82.377 105.486 82.7754 105.402 83.2129 105.402C84.7676 105.402 85.5449 106.193 85.5449 107.775V112ZM89.875 111.004C90.2109 111.004 90.5469 110.951 90.8828 110.846V111.883C90.7305 111.949 90.5332 112.004 90.291 112.047C90.0527 112.094 89.8047 112.117 89.5469 112.117C88.2422 112.117 87.5898 111.43 87.5898 110.055V106.562H86.7051V105.953L87.6543 105.449L88.123 104.078H88.9727V105.52H90.8184V106.562H88.9727V110.031C88.9727 110.363 89.0547 110.609 89.2188 110.77C89.3867 110.926 89.6055 111.004 89.875 111.004Z" fill="#444444"/>
<path d="M150.272 38.7279C157.302 45.7574 168.698 45.7574 175.728 38.7279L150.272 13.2721C143.243 20.3015 143.243 31.6985 150.272 38.7279Z" fill="#00AFD7"/>
<path d="M175.728 13.2721C168.698 6.24264 157.302 6.24264 150.272 13.2721L175.728 38.7279C182.757 31.6985 182.757 20.3015 175.728 13.2721Z" fill="#E0F5FA"/>
<path d="M150.272 78.7279C157.302 85.7574 168.698 85.7574 175.728 78.7279L150.272 53.2721C143.243 60.3015 143.243 71.6985 150.272 78.7279Z" fill="#0047BB"/>
<path d="M175.728 53.2721C168.698 46.2426 157.302 46.2426 150.272 53.2721L175.728 78.7279C182.757 71.6985 182.757 60.3015 175.728 53.2721Z" fill="#EAEAF8"/>
<path d="M150.272 118.728C157.302 125.757 168.698 125.757 175.728 118.728L150.272 93.2721C143.243 100.302 143.243 111.698 150.272 118.728Z" fill="#00A499"/>
<path d="M175.728 93.2721C168.698 86.2426 157.302 86.2426 150.272 93.2721L175.728 118.728C182.757 111.698 182.757 100.302 175.728 93.2721Z" fill="#C5EDE9"/>
<path d="M278.272 118.728C285.301 125.757 296.698 125.757 303.728 118.728L278.272 93.2721C271.243 100.302 271.243 111.699 278.272 118.728Z" fill="#E45757"/>
<path d="M303.728 93.2721C296.698 86.2427 285.301 86.2427 278.272 93.2721L303.728 118.728C310.757 111.699 310.757 100.302 303.728 93.2721Z" fill="#FCEBEB"/>
<path d="M150.272 158.728C157.302 165.757 168.698 165.757 175.728 158.728L150.272 133.272C143.243 140.302 143.243 151.698 150.272 158.728Z" fill="#00B140"/>
<path d="M175.728 133.272C168.698 126.243 157.302 126.243 150.272 133.272L175.728 158.728C182.757 151.698 182.757 140.302 175.728 133.272Z" fill="#E0F6E8"/>
<path d="M278.272 38.7279C285.302 45.7574 296.698 45.7574 303.728 38.7279L278.272 13.2721C271.243 20.3015 271.243 31.6985 278.272 38.7279Z" fill="#071D49"/>
<path d="M303.728 13.2721C296.698 6.24264 285.302 6.24264 278.272 13.2721L303.728 38.7279C310.757 31.6985 310.757 20.3015 303.728 13.2721Z" fill="#EAEAEF"/>
<path d="M278.272 78.7279C285.302 85.7574 296.698 85.7574 303.728 78.7279L278.272 53.2721C271.243 60.3015 271.243 71.6985 278.272 78.7279Z" fill="#999999"/>
<path d="M303.728 53.2721C296.698 46.2426 285.302 46.2426 278.272 53.2721L303.728 78.7279C310.757 71.6985 310.757 60.3015 303.728 53.2721Z" fill="#F3F3F3"/>
<circle cx="32" cy="107" r="18" fill="#666666"/>
<path fill-rule="evenodd" clip-rule="evenodd" d="M32 74.4118C36.0934 74.4118 39.4118 71.0934 39.4118 67C39.4118 62.9066 36.0934 59.5882 32 59.5882C27.9066 59.5882 24.5882 62.9066 24.5882 67C24.5882 71.0934 27.9066 74.4118 32 74.4118ZM32 85C41.9411 85 50 76.9411 50 67C50 57.0589 41.9411 49 32 49C22.0589 49 14 57.0589 14 67C14 76.9411 22.0589 85 32 85Z" fill="#666666"/>
<path fill-rule="evenodd" clip-rule="evenodd" d="M31.8824 19.5882C34.8062 19.5882 37.1765 17.218 37.1765 14.2941C37.1765 11.3703 34.8062 9 31.8824 9C28.9585 9 26.5882 11.3703 26.5882 14.2941C26.5882 17.218 28.9585 19.5882 31.8824 19.5882ZM47.7647 20.6471C47.7647 23.5709 45.3945 25.9412 42.4706 25.9412C39.5467 25.9412 37.1765 23.5709 37.1765 20.6471C37.1765 17.7232 39.5467 15.3529 42.4706 15.3529C45.3945 15.3529 47.7647 17.7232 47.7647 20.6471ZM42.4706 38.6471C45.3945 38.6471 47.7647 36.2768 47.7647 33.3529C47.7647 30.4291 45.3945 28.0588 42.4706 28.0588C39.5467 28.0588 37.1765 30.4291 37.1765 33.3529C37.1765 36.2768 39.5467 38.6471 42.4706 38.6471ZM31.8824 45C34.8062 45 37.1765 42.6297 37.1765 39.7059C37.1765 36.782 34.8062 34.4118 31.8824 34.4118C28.9585 34.4118 26.5882 36.782 26.5882 39.7059C26.5882 42.6297 28.9585 45 31.8824 45ZM21.2941 38.6471C24.218 38.6471 26.5882 36.2768 26.5882 33.3529C26.5882 30.4291 24.218 28.0588 21.2941 28.0588C18.3703 28.0588 16 30.4291 16 33.3529C16 36.2768 18.3703 38.6471 21.2941 38.6471ZM26.5882 20.6471C26.5882 23.5709 24.218 25.9412 21.2941 25.9412C18.3703 25.9412 16 23.5709 16 20.6471C16 17.7232 18.3703 15.3529 21.2941 15.3529C24.218 15.3529 26.5882 17.7232 26.5882 20.6471Z" fill="#666666"/>
</svg>
