<svg viewBox="0 0 1232 116" fill="none" xmlns="http://www.w3.org/2000/svg">
<rect x="1142" y="78" width="77" height="23" rx="11.5" fill="#F7F7F9"/>
<path d="M1172.17 85.8877C1171.3 85.8877 1170.62 86.1966 1170.12 86.8145C1169.62 87.4323 1169.37 88.285 1169.37 89.3726C1169.37 90.5109 1169.61 91.3721 1170.08 91.9561C1170.57 92.54 1171.26 92.832 1172.17 92.832C1172.57 92.832 1172.95 92.7939 1173.32 92.7178C1173.68 92.6374 1174.07 92.5358 1174.46 92.4131V93.7144C1173.74 93.9894 1172.91 94.127 1171.99 94.127C1170.63 94.127 1169.59 93.7165 1168.86 92.8955C1168.13 92.0703 1167.77 90.8918 1167.77 89.3599C1167.77 88.395 1167.94 87.5508 1168.29 86.8271C1168.65 86.1035 1169.16 85.5492 1169.83 85.1641C1170.5 84.779 1171.28 84.5864 1172.19 84.5864C1173.13 84.5864 1174.01 84.7853 1174.81 85.1831L1174.27 86.4463C1173.95 86.2982 1173.62 86.1691 1173.27 86.0591C1172.92 85.9448 1172.56 85.8877 1172.17 85.8877ZM1177.8 94H1176.31V84.123H1177.8V94ZM1186.16 90.4771C1186.16 91.6239 1185.87 92.5189 1185.28 93.1621C1184.69 93.8053 1183.87 94.127 1182.82 94.127C1182.17 94.127 1181.59 93.9788 1181.09 93.6826C1180.58 93.3864 1180.19 92.9611 1179.92 92.4067C1179.65 91.8524 1179.52 91.2091 1179.52 90.4771C1179.52 89.3387 1179.81 88.45 1180.39 87.811C1180.98 87.172 1181.8 86.8525 1182.86 86.8525C1183.88 86.8525 1184.68 87.1805 1185.27 87.8364C1185.87 88.4881 1186.16 89.3683 1186.16 90.4771ZM1181.05 90.4771C1181.05 92.0978 1181.65 92.9082 1182.85 92.9082C1184.03 92.9082 1184.63 92.0978 1184.63 90.4771C1184.63 88.8732 1184.03 88.0713 1182.84 88.0713C1182.21 88.0713 1181.76 88.2786 1181.47 88.6934C1181.19 89.1081 1181.05 89.7026 1181.05 90.4771ZM1192.6 92.0005C1192.6 92.686 1192.35 93.2129 1191.85 93.5811C1191.35 93.945 1190.64 94.127 1189.71 94.127C1188.77 94.127 1188.02 93.9852 1187.45 93.7017V92.4131C1188.28 92.7939 1189.05 92.9844 1189.76 92.9844C1190.67 92.9844 1191.13 92.7072 1191.13 92.1528C1191.13 91.9751 1191.08 91.827 1190.98 91.7085C1190.88 91.59 1190.71 91.4673 1190.48 91.3403C1190.25 91.2134 1189.92 91.0695 1189.51 90.9087C1188.7 90.5955 1188.15 90.2824 1187.86 89.9692C1187.58 89.6561 1187.44 89.2498 1187.44 88.7505C1187.44 88.1496 1187.68 87.6841 1188.16 87.354C1188.65 87.0197 1189.31 86.8525 1190.14 86.8525C1190.97 86.8525 1191.75 87.0197 1192.49 87.354L1192 88.4775C1191.25 88.1644 1190.61 88.0078 1190.09 88.0078C1189.31 88.0078 1188.91 88.2321 1188.91 88.6807C1188.91 88.9007 1189.01 89.0869 1189.22 89.2393C1189.42 89.3916 1189.87 89.6011 1190.56 89.8677C1191.14 90.092 1191.56 90.2972 1191.83 90.4834C1192.09 90.6696 1192.28 90.8854 1192.41 91.1309C1192.54 91.3721 1192.6 91.6619 1192.6 92.0005ZM1197.28 94.127C1196.19 94.127 1195.34 93.8096 1194.72 93.1748C1194.11 92.5358 1193.8 91.6577 1193.8 90.5405C1193.8 89.3937 1194.09 88.4924 1194.66 87.8364C1195.23 87.1805 1196.01 86.8525 1197.01 86.8525C1197.94 86.8525 1198.67 87.134 1199.21 87.6968C1199.75 88.2596 1200.01 89.034 1200.01 90.02V90.8262H1195.34C1195.36 91.5075 1195.54 92.0322 1195.89 92.4004C1196.24 92.7643 1196.72 92.9463 1197.35 92.9463C1197.77 92.9463 1198.15 92.9082 1198.51 92.832C1198.87 92.7516 1199.25 92.6204 1199.67 92.4385V93.6509C1199.3 93.8244 1198.93 93.9471 1198.56 94.019C1198.19 94.091 1197.76 94.127 1197.28 94.127ZM1197.01 87.9824C1196.54 87.9824 1196.16 88.1326 1195.87 88.4331C1195.59 88.7336 1195.42 89.1715 1195.36 89.7471H1198.55C1198.54 89.1673 1198.4 88.7293 1198.13 88.4331C1197.86 88.1326 1197.49 87.9824 1197.01 87.9824ZM1204.08 94.127C1203.2 94.127 1202.52 93.8096 1202.03 93.1748C1201.54 92.54 1201.29 91.6493 1201.29 90.5024C1201.29 89.3514 1201.54 88.4564 1202.03 87.8174C1202.53 87.1742 1203.22 86.8525 1204.1 86.8525C1205.02 86.8525 1205.73 87.1932 1206.21 87.8745H1206.29C1206.21 87.3709 1206.18 86.9731 1206.18 86.6812V84.123H1207.68V94H1206.51L1206.25 93.0796H1206.18C1205.7 93.7778 1205 94.127 1204.08 94.127ZM1204.48 92.9209C1205.09 92.9209 1205.54 92.7495 1205.82 92.4067C1206.1 92.0597 1206.24 91.499 1206.25 90.7246V90.5151C1206.25 89.6307 1206.1 89.0023 1205.82 88.6299C1205.53 88.2575 1205.08 88.0713 1204.46 88.0713C1203.94 88.0713 1203.53 88.285 1203.25 88.7124C1202.97 89.1356 1202.83 89.7407 1202.83 90.5278C1202.83 91.3065 1202.96 91.901 1203.24 92.3115C1203.51 92.7178 1203.93 92.9209 1204.48 92.9209Z" fill="#444444"/>
<circle cx="1153.5" cy="89.5" r="8.5" fill="#071D49"/>
<rect x="848" y="78" width="290" height="23" rx="11.5" fill="#E0F6E8"/>
<path d="M879.982 94L879.056 91.4229H875.507L874.6 94H873L876.472 84.6816H878.123L881.595 94H879.982ZM878.656 90.1152L877.786 87.5889C877.723 87.4196 877.634 87.153 877.52 86.7891C877.41 86.4251 877.333 86.1585 877.291 85.9893C877.177 86.5098 877.01 87.0789 876.79 87.6968L875.952 90.1152H878.656ZM885.492 94.127C884.43 94.127 883.622 93.818 883.067 93.2002C882.517 92.5781 882.242 91.6873 882.242 90.5278C882.242 89.3472 882.53 88.4395 883.105 87.8047C883.685 87.1699 884.521 86.8525 885.613 86.8525C886.353 86.8525 887.02 86.9901 887.612 87.2651L887.162 88.4648C886.531 88.2194 886.011 88.0967 885.6 88.0967C884.386 88.0967 883.778 88.9028 883.778 90.5151C883.778 91.3022 883.929 91.8947 884.229 92.2925C884.534 92.686 884.978 92.8828 885.562 92.8828C886.226 92.8828 886.855 92.7178 887.447 92.3877V93.689C887.181 93.8455 886.895 93.9577 886.59 94.0254C886.29 94.0931 885.924 94.127 885.492 94.127ZM891.713 92.9209C892.077 92.9209 892.441 92.8638 892.805 92.7495V93.873C892.64 93.945 892.426 94.0042 892.164 94.0508C891.905 94.1016 891.637 94.127 891.357 94.127C889.944 94.127 889.237 93.3822 889.237 91.8926V88.1094H888.279V87.4492L889.307 86.9033L889.815 85.418H890.735V86.9795H892.735V88.1094H890.735V91.8672C890.735 92.2269 890.824 92.4935 891.002 92.667C891.184 92.8363 891.421 92.9209 891.713 92.9209ZM895.706 94H894.214V86.9795H895.706V94ZM894.125 85.1196C894.125 84.853 894.197 84.6478 894.341 84.5039C894.489 84.36 894.698 84.2881 894.969 84.2881C895.232 84.2881 895.435 84.36 895.579 84.5039C895.727 84.6478 895.801 84.853 895.801 85.1196C895.801 85.3735 895.727 85.5745 895.579 85.7227C895.435 85.8665 895.232 85.9385 894.969 85.9385C894.698 85.9385 894.489 85.8665 894.341 85.7227C894.197 85.5745 894.125 85.3735 894.125 85.1196ZM899.444 94L896.778 86.9795H898.353L899.781 91.061C900.026 91.7466 900.174 92.3009 900.225 92.7241H900.276C900.314 92.4194 900.462 91.8651 900.72 91.061L902.148 86.9795H903.735L901.057 94H899.444ZM907.868 94.127C906.776 94.127 905.921 93.8096 905.303 93.1748C904.69 92.5358 904.383 91.6577 904.383 90.5405C904.383 89.3937 904.668 88.4924 905.24 87.8364C905.811 87.1805 906.596 86.8525 907.595 86.8525C908.521 86.8525 909.254 87.134 909.791 87.6968C910.328 88.2596 910.597 89.034 910.597 90.02V90.8262H905.919C905.94 91.5075 906.124 92.0322 906.471 92.4004C906.818 92.7643 907.307 92.9463 907.938 92.9463C908.352 92.9463 908.737 92.9082 909.093 92.832C909.452 92.7516 909.838 92.6204 910.248 92.4385V93.6509C909.884 93.8244 909.516 93.9471 909.144 94.019C908.771 94.091 908.346 94.127 907.868 94.127ZM907.595 87.9824C907.121 87.9824 906.74 88.1326 906.452 88.4331C906.169 88.7336 905.999 89.1715 905.944 89.7471H909.131C909.122 89.1673 908.983 88.7293 908.712 88.4331C908.441 88.1326 908.069 87.9824 907.595 87.9824Z" fill="#444444"/>
<circle cx="859.5" cy="89.5" r="8.5" fill="#00B140"/>
<rect x="738" y="47" width="481" height="23" rx="11.5" fill="#FCEBEB"/>
<path d="M765.742 58.0361H766.796C767.503 58.0361 768.015 57.9049 768.332 57.6426C768.649 57.3802 768.808 56.9909 768.808 56.4746C768.808 55.9499 768.637 55.5732 768.294 55.3447C767.951 55.1162 767.435 55.002 766.745 55.002H765.742V58.0361ZM765.742 59.293V63H764.225V53.7197H766.847C768.044 53.7197 768.931 53.944 769.506 54.3926C770.082 54.8411 770.37 55.5182 770.37 56.4238C770.37 57.5791 769.769 58.4022 768.567 58.8931L771.188 63H769.462L767.24 59.293H765.742ZM775.448 63.127C774.356 63.127 773.501 62.8096 772.883 62.1748C772.27 61.5358 771.963 60.6577 771.963 59.5405C771.963 58.3937 772.249 57.4924 772.82 56.8364C773.391 56.1805 774.176 55.8525 775.175 55.8525C776.102 55.8525 776.834 56.134 777.371 56.6968C777.909 57.2596 778.177 58.034 778.177 59.02V59.8262H773.499C773.52 60.5075 773.704 61.0322 774.051 61.4004C774.398 61.7643 774.887 61.9463 775.518 61.9463C775.932 61.9463 776.317 61.9082 776.673 61.832C777.033 61.7516 777.418 61.6204 777.828 61.4385V62.6509C777.464 62.8244 777.096 62.9471 776.724 63.019C776.351 63.091 775.926 63.127 775.448 63.127ZM775.175 56.9824C774.701 56.9824 774.32 57.1326 774.032 57.4331C773.749 57.7336 773.579 58.1715 773.524 58.7471H776.711C776.702 58.1673 776.563 57.7293 776.292 57.4331C776.021 57.1326 775.649 56.9824 775.175 56.9824ZM779.155 66.123C778.706 66.123 778.334 66.0701 778.038 65.9644V64.7837C778.325 64.8599 778.619 64.8979 778.92 64.8979C779.555 64.8979 779.872 64.5382 779.872 63.8188V55.9795H781.364V63.9204C781.364 64.644 781.173 65.1921 780.792 65.5645C780.416 65.9368 779.87 66.123 779.155 66.123ZM779.783 54.1196C779.783 53.853 779.855 53.6478 779.999 53.5039C780.147 53.36 780.357 53.2881 780.627 53.2881C780.89 53.2881 781.093 53.36 781.237 53.5039C781.385 53.6478 781.459 53.853 781.459 54.1196C781.459 54.3735 781.385 54.5745 781.237 54.7227C781.093 54.8665 780.89 54.9385 780.627 54.9385C780.357 54.9385 780.147 54.8665 779.999 54.7227C779.855 54.5745 779.783 54.3735 779.783 54.1196ZM786.569 63.127C785.477 63.127 784.622 62.8096 784.004 62.1748C783.391 61.5358 783.084 60.6577 783.084 59.5405C783.084 58.3937 783.37 57.4924 783.941 56.8364C784.512 56.1805 785.297 55.8525 786.296 55.8525C787.223 55.8525 787.955 56.134 788.492 56.6968C789.03 57.2596 789.298 58.034 789.298 59.02V59.8262H784.62C784.641 60.5075 784.825 61.0322 785.172 61.4004C785.519 61.7643 786.008 61.9463 786.639 61.9463C787.053 61.9463 787.438 61.9082 787.794 61.832C788.154 61.7516 788.539 61.6204 788.949 61.4385V62.6509C788.585 62.8244 788.217 62.9471 787.845 63.019C787.472 63.091 787.047 63.127 786.569 63.127ZM786.296 56.9824C785.822 56.9824 785.441 57.1326 785.153 57.4331C784.87 57.7336 784.701 58.1715 784.646 58.7471H787.832C787.824 58.1673 787.684 57.7293 787.413 57.4331C787.142 57.1326 786.77 56.9824 786.296 56.9824ZM793.824 63.127C792.762 63.127 791.954 62.818 791.399 62.2002C790.849 61.5781 790.574 60.6873 790.574 59.5278C790.574 58.3472 790.862 57.4395 791.438 56.8047C792.017 56.1699 792.853 55.8525 793.945 55.8525C794.685 55.8525 795.352 55.9901 795.944 56.2651L795.494 57.4648C794.863 57.2194 794.343 57.0967 793.932 57.0967C792.718 57.0967 792.11 57.9028 792.11 59.5151C792.11 60.3022 792.261 60.8947 792.561 61.2925C792.866 61.686 793.31 61.8828 793.894 61.8828C794.558 61.8828 795.187 61.7178 795.779 61.3877V62.689C795.513 62.8455 795.227 62.9577 794.922 63.0254C794.622 63.0931 794.256 63.127 793.824 63.127ZM800.045 61.9209C800.409 61.9209 800.773 61.8638 801.137 61.7495V62.873C800.972 62.945 800.758 63.0042 800.496 63.0508C800.237 63.1016 799.969 63.127 799.689 63.127C798.276 63.127 797.569 62.3822 797.569 60.8926V57.1094H796.611V56.4492L797.639 55.9033L798.147 54.418H799.067V55.9795H801.067V57.1094H799.067V60.8672C799.067 61.2269 799.156 61.4935 799.334 61.667C799.516 61.8363 799.753 61.9209 800.045 61.9209ZM805.612 63.127C804.52 63.127 803.665 62.8096 803.047 62.1748C802.434 61.5358 802.127 60.6577 802.127 59.5405C802.127 58.3937 802.413 57.4924 802.984 56.8364C803.555 56.1805 804.34 55.8525 805.339 55.8525C806.266 55.8525 806.998 56.134 807.535 56.6968C808.073 57.2596 808.341 58.034 808.341 59.02V59.8262H803.663C803.684 60.5075 803.868 61.0322 804.215 61.4004C804.562 61.7643 805.051 61.9463 805.682 61.9463C806.096 61.9463 806.481 61.9082 806.837 61.832C807.197 61.7516 807.582 61.6204 807.992 61.4385V62.6509C807.628 62.8244 807.26 62.9471 806.888 63.019C806.515 63.091 806.09 63.127 805.612 63.127ZM805.339 56.9824C804.865 56.9824 804.484 57.1326 804.196 57.4331C803.913 57.7336 803.743 58.1715 803.688 58.7471H806.875C806.867 58.1673 806.727 57.7293 806.456 57.4331C806.185 57.1326 805.813 56.9824 805.339 56.9824ZM812.404 63.127C811.528 63.127 810.844 62.8096 810.354 62.1748C809.863 61.54 809.617 60.6493 809.617 59.5024C809.617 58.3514 809.865 57.4564 810.36 56.8174C810.859 56.1742 811.549 55.8525 812.429 55.8525C813.352 55.8525 814.054 56.1932 814.537 56.8745H814.613C814.541 56.3709 814.505 55.9731 814.505 55.6812V53.123H816.003V63H814.835L814.575 62.0796H814.505C814.027 62.7778 813.326 63.127 812.404 63.127ZM812.804 61.9209C813.417 61.9209 813.864 61.7495 814.143 61.4067C814.422 61.0597 814.566 60.499 814.575 59.7246V59.5151C814.575 58.6307 814.431 58.0023 814.143 57.6299C813.855 57.2575 813.405 57.0713 812.791 57.0713C812.266 57.0713 811.862 57.285 811.579 57.7124C811.295 58.1356 811.153 58.7407 811.153 59.5278C811.153 60.3065 811.291 60.901 811.566 61.3115C811.841 61.7178 812.254 61.9209 812.804 61.9209Z" fill="#444444"/>
<circle cx="749.5" cy="58.5" r="6" stroke="#E45757" stroke-width="5"/>
<rect x="584" y="47" width="150" height="23" rx="11.5" fill="#EAEAF8"/>
<path d="M615.576 60.48C615.576 61.3052 615.278 61.9526 614.681 62.4224C614.084 62.8921 613.261 63.127 612.212 63.127C611.162 63.127 610.303 62.964 609.635 62.6382V61.2036C610.058 61.4025 610.507 61.5591 610.98 61.6733C611.459 61.7876 611.903 61.8447 612.313 61.8447C612.914 61.8447 613.357 61.7305 613.64 61.502C613.928 61.2734 614.072 60.9666 614.072 60.5815C614.072 60.2345 613.941 59.9404 613.678 59.6992C613.416 59.458 612.874 59.1724 612.053 58.8423C611.207 58.4995 610.61 58.1081 610.263 57.668C609.916 57.2279 609.743 56.6989 609.743 56.0811C609.743 55.3066 610.018 54.6973 610.568 54.2529C611.118 53.8086 611.856 53.5864 612.783 53.5864C613.672 53.5864 614.556 53.7811 615.437 54.1704L614.954 55.4082C614.129 55.0612 613.393 54.8877 612.745 54.8877C612.254 54.8877 611.882 54.9956 611.628 55.2114C611.374 55.423 611.247 55.7044 611.247 56.0557C611.247 56.2969 611.298 56.5042 611.399 56.6777C611.501 56.847 611.668 57.0078 611.901 57.1602C612.134 57.3125 612.553 57.5135 613.158 57.7632C613.839 58.0467 614.338 58.3112 614.656 58.5566C614.973 58.8021 615.206 59.0793 615.354 59.3882C615.502 59.6971 615.576 60.061 615.576 60.48ZM622.165 63L621.956 62.0796H621.879C621.672 62.4054 621.376 62.6615 620.991 62.8477C620.61 63.0339 620.174 63.127 619.683 63.127C618.833 63.127 618.198 62.9154 617.779 62.4922C617.36 62.069 617.15 61.4279 617.15 60.5688V55.9795H618.655V60.3086C618.655 60.846 618.765 61.2502 618.985 61.521C619.205 61.7876 619.55 61.9209 620.02 61.9209C620.646 61.9209 621.105 61.7347 621.397 61.3623C621.693 60.9857 621.841 60.3573 621.841 59.4771V55.9795H623.339V63H622.165ZM629.052 55.8525C629.928 55.8525 630.61 56.1699 631.096 56.8047C631.587 57.4395 631.833 58.3302 631.833 59.4771C631.833 60.6281 631.585 61.5252 631.09 62.1685C630.595 62.8075 629.907 63.127 629.027 63.127C628.138 63.127 627.448 62.8075 626.958 62.1685H626.856L626.583 63H625.466V53.123H626.958V55.4717C626.958 55.6452 626.949 55.9033 626.932 56.2461C626.915 56.5889 626.903 56.8068 626.894 56.8999H626.958C627.431 56.2017 628.13 55.8525 629.052 55.8525ZM628.665 57.0713C628.064 57.0713 627.63 57.249 627.364 57.6045C627.101 57.9557 626.966 58.5461 626.958 59.3755V59.4771C626.958 60.3319 627.093 60.9518 627.364 61.3369C627.635 61.7178 628.077 61.9082 628.69 61.9082C629.219 61.9082 629.619 61.6987 629.89 61.2798C630.165 60.8608 630.303 60.2557 630.303 59.4644C630.303 57.869 629.757 57.0713 628.665 57.0713ZM639.481 63H637.983V58.6709C637.983 58.1335 637.882 57.7336 637.679 57.4712C637.476 57.2046 637.158 57.0713 636.727 57.0713C636.151 57.0713 635.728 57.2596 635.457 57.6362C635.19 58.0086 635.057 58.6307 635.057 59.5024V63H633.565V55.9795H634.733L634.943 56.8999H635.019C635.214 56.5656 635.495 56.3075 635.863 56.1255C636.236 55.9435 636.644 55.8525 637.088 55.8525C638.167 55.8525 638.883 56.2207 639.234 56.957H639.335C639.543 56.61 639.835 56.3392 640.211 56.1445C640.588 55.9499 641.02 55.8525 641.506 55.8525C642.344 55.8525 642.954 56.0641 643.334 56.4873C643.72 56.9105 643.912 57.5558 643.912 58.4233V63H642.42V58.6709C642.42 58.1335 642.317 57.7336 642.109 57.4712C641.906 57.2046 641.589 57.0713 641.157 57.0713C640.577 57.0713 640.152 57.2533 639.881 57.6172C639.615 57.9769 639.481 58.5312 639.481 59.2803V63ZM647.486 63H645.994V55.9795H647.486V63ZM645.905 54.1196C645.905 53.853 645.977 53.6478 646.121 53.5039C646.269 53.36 646.479 53.2881 646.75 53.2881C647.012 53.2881 647.215 53.36 647.359 53.5039C647.507 53.6478 647.581 53.853 647.581 54.1196C647.581 54.3735 647.507 54.5745 647.359 54.7227C647.215 54.8665 647.012 54.9385 646.75 54.9385C646.479 54.9385 646.269 54.8665 646.121 54.7227C645.977 54.5745 645.905 54.3735 645.905 54.1196ZM652.24 61.9209C652.604 61.9209 652.968 61.8638 653.332 61.7495V62.873C653.167 62.945 652.953 63.0042 652.691 63.0508C652.433 63.1016 652.164 63.127 651.885 63.127C650.471 63.127 649.765 62.3822 649.765 60.8926V57.1094H648.806V56.4492L649.834 55.9033L650.342 54.418H651.263V55.9795H653.262V57.1094H651.263V60.8672C651.263 61.2269 651.352 61.4935 651.529 61.667C651.711 61.8363 651.948 61.9209 652.24 61.9209ZM657.356 61.9209C657.72 61.9209 658.084 61.8638 658.448 61.7495V62.873C658.283 62.945 658.069 63.0042 657.807 63.0508C657.549 63.1016 657.28 63.127 657.001 63.127C655.588 63.127 654.881 62.3822 654.881 60.8926V57.1094H653.922V56.4492L654.951 55.9033L655.458 54.418H656.379V55.9795H658.378V57.1094H656.379V60.8672C656.379 61.2269 656.468 61.4935 656.646 61.667C656.827 61.8363 657.064 61.9209 657.356 61.9209ZM662.923 63.127C661.832 63.127 660.977 62.8096 660.359 62.1748C659.745 61.5358 659.438 60.6577 659.438 59.5405C659.438 58.3937 659.724 57.4924 660.295 56.8364C660.867 56.1805 661.652 55.8525 662.65 55.8525C663.577 55.8525 664.309 56.134 664.847 56.6968C665.384 57.2596 665.653 58.034 665.653 59.02V59.8262H660.975C660.996 60.5075 661.18 61.0322 661.527 61.4004C661.874 61.7643 662.363 61.9463 662.993 61.9463C663.408 61.9463 663.793 61.9082 664.148 61.832C664.508 61.7516 664.893 61.6204 665.304 61.4385V62.6509C664.94 62.8244 664.572 62.9471 664.199 63.019C663.827 63.091 663.402 63.127 662.923 63.127ZM662.65 56.9824C662.176 56.9824 661.796 57.1326 661.508 57.4331C661.224 57.7336 661.055 58.1715 661 58.7471H664.187C664.178 58.1673 664.038 57.7293 663.768 57.4331C663.497 57.1326 663.124 56.9824 662.65 56.9824ZM669.715 63.127C668.839 63.127 668.156 62.8096 667.665 62.1748C667.174 61.54 666.929 60.6493 666.929 59.5024C666.929 58.3514 667.176 57.4564 667.671 56.8174C668.171 56.1742 668.861 55.8525 669.741 55.8525C670.663 55.8525 671.366 56.1932 671.848 56.8745H671.924C671.852 56.3709 671.816 55.9731 671.816 55.6812V53.123H673.314V63H672.146L671.886 62.0796H671.816C671.338 62.7778 670.638 63.127 669.715 63.127ZM670.115 61.9209C670.729 61.9209 671.175 61.7495 671.455 61.4067C671.734 61.0597 671.878 60.499 671.886 59.7246V59.5151C671.886 58.6307 671.742 58.0023 671.455 57.6299C671.167 57.2575 670.716 57.0713 670.103 57.0713C669.578 57.0713 669.174 57.285 668.89 57.7124C668.607 58.1356 668.465 58.7407 668.465 59.5278C668.465 60.3065 668.602 60.901 668.877 61.3115C669.153 61.7178 669.565 61.9209 670.115 61.9209Z" fill="#444444"/>
<circle cx="595.5" cy="58.5" r="6" stroke="#0047BB" stroke-width="5"/>
<rect x="432" y="47" width="148" height="23" rx="11.5" fill="#E0F5FA"/>
<path d="M465.772 58.271C465.772 59.8029 465.347 60.9751 464.497 61.7876C463.646 62.5959 462.421 63 460.821 63H458.225V53.7197H461.094C462.571 53.7197 463.72 54.1175 464.541 54.9131C465.362 55.7087 465.772 56.828 465.772 58.271ZM464.173 58.3218C464.173 56.1001 463.134 54.9893 461.056 54.9893H459.742V61.7241H460.821C463.056 61.7241 464.173 60.59 464.173 58.3218ZM471.174 55.8525C471.475 55.8525 471.722 55.8737 471.917 55.916L471.771 57.3062C471.559 57.2554 471.339 57.23 471.111 57.23C470.514 57.23 470.03 57.4246 469.657 57.814C469.289 58.2033 469.105 58.709 469.105 59.3311V63H467.613V55.9795H468.781L468.978 57.2173H469.054C469.287 56.7983 469.59 56.4661 469.962 56.2207C470.339 55.9753 470.743 55.8525 471.174 55.8525ZM477.617 63L477.319 62.0225H477.268C476.93 62.4499 476.589 62.7419 476.246 62.8984C475.903 63.0508 475.463 63.127 474.926 63.127C474.236 63.127 473.696 62.9408 473.307 62.5684C472.922 62.196 472.729 61.6691 472.729 60.9878C472.729 60.2642 472.998 59.7183 473.536 59.3501C474.073 58.9819 474.892 58.7809 475.992 58.7471L477.205 58.709V58.3345C477.205 57.8859 477.099 57.5516 476.887 57.3315C476.68 57.1073 476.356 56.9951 475.916 56.9951C475.556 56.9951 475.211 57.048 474.881 57.1538C474.551 57.2596 474.234 57.3844 473.929 57.5283L473.447 56.4619C473.828 56.263 474.244 56.1128 474.697 56.0112C475.15 55.9054 475.577 55.8525 475.979 55.8525C476.872 55.8525 477.545 56.0472 477.998 56.4365C478.455 56.8258 478.684 57.4373 478.684 58.271V63H477.617ZM475.396 61.9844C475.937 61.9844 476.371 61.8341 476.697 61.5337C477.027 61.229 477.192 60.8037 477.192 60.2578V59.6484L476.291 59.6865C475.588 59.7119 475.076 59.8304 474.754 60.042C474.437 60.2493 474.278 60.5688 474.278 61.0005C474.278 61.3136 474.371 61.557 474.558 61.7305C474.744 61.8997 475.023 61.9844 475.396 61.9844ZM484.289 57.1094H482.575V63H481.077V57.1094H479.921V56.4111L481.077 55.9541V55.4971C481.077 54.6676 481.271 54.054 481.661 53.6562C482.05 53.2542 482.645 53.0532 483.444 53.0532C483.969 53.0532 484.485 53.14 484.993 53.3135L484.6 54.4434C484.231 54.3249 483.88 54.2656 483.546 54.2656C483.207 54.2656 482.96 54.3714 482.803 54.583C482.651 54.7904 482.575 55.1035 482.575 55.5225V55.9795H484.289V57.1094ZM488.104 61.9209C488.467 61.9209 488.831 61.8638 489.195 61.7495V62.873C489.03 62.945 488.817 63.0042 488.554 63.0508C488.296 63.1016 488.027 63.127 487.748 63.127C486.335 63.127 485.628 62.3822 485.628 60.8926V57.1094H484.669V56.4492L485.698 55.9033L486.206 54.418H487.126V55.9795H489.125V57.1094H487.126V60.8672C487.126 61.2269 487.215 61.4935 487.393 61.667C487.575 61.8363 487.812 61.9209 488.104 61.9209Z" fill="#444444"/>
<circle cx="443.5" cy="58.5" r="6" stroke="#00AFD7" stroke-width="5"/>
<rect x="310" y="16" width="909" height="23" rx="11.5" fill="#F3F3F3"/>
<path d="M345.34 27.271C345.34 28.8029 344.915 29.9751 344.064 30.7876C343.214 31.5959 341.989 32 340.389 32H337.793V22.7197H340.662C342.139 22.7197 343.288 23.1175 344.109 23.9131C344.93 24.7087 345.34 25.828 345.34 27.271ZM343.741 27.3218C343.741 25.1001 342.702 23.9893 340.624 23.9893H339.31V30.7241H340.389C342.624 30.7241 343.741 29.59 343.741 27.3218ZM350.247 32.127C349.155 32.127 348.3 31.8096 347.683 31.1748C347.069 30.5358 346.762 29.6577 346.762 28.5405C346.762 27.3937 347.048 26.4924 347.619 25.8364C348.19 25.1805 348.975 24.8525 349.974 24.8525C350.901 24.8525 351.633 25.134 352.17 25.6968C352.708 26.2596 352.977 27.034 352.977 28.02V28.8262H348.298C348.319 29.5075 348.504 30.0322 348.851 30.4004C349.198 30.7643 349.686 30.9463 350.317 30.9463C350.732 30.9463 351.117 30.9082 351.472 30.832C351.832 30.7516 352.217 30.6204 352.627 30.4385V31.6509C352.263 31.8244 351.895 31.9471 351.523 32.019C351.151 32.091 350.725 32.127 350.247 32.127ZM349.974 25.9824C349.5 25.9824 349.119 26.1326 348.832 26.4331C348.548 26.7336 348.379 27.1715 348.324 27.7471H351.51C351.502 27.1673 351.362 26.7293 351.091 26.4331C350.82 26.1326 350.448 25.9824 349.974 25.9824ZM358.194 26.1094H356.48V32H354.982V26.1094H353.827V25.4111L354.982 24.9541V24.4971C354.982 23.6676 355.177 23.054 355.566 22.6562C355.956 22.2542 356.55 22.0532 357.35 22.0532C357.875 22.0532 358.391 22.14 358.899 22.3135L358.505 23.4434C358.137 23.3249 357.786 23.2656 357.452 23.2656C357.113 23.2656 356.866 23.3714 356.709 23.583C356.557 23.7904 356.48 24.1035 356.48 24.5225V24.9795H358.194V26.1094ZM362.46 32.127C361.368 32.127 360.513 31.8096 359.895 31.1748C359.282 30.5358 358.975 29.6577 358.975 28.5405C358.975 27.3937 359.261 26.4924 359.832 25.8364C360.403 25.1805 361.188 24.8525 362.187 24.8525C363.114 24.8525 363.846 25.134 364.383 25.6968C364.921 26.2596 365.189 27.034 365.189 28.02V28.8262H360.511C360.532 29.5075 360.716 30.0322 361.063 30.4004C361.41 30.7643 361.899 30.9463 362.53 30.9463C362.944 30.9463 363.33 30.9082 363.685 30.832C364.045 30.7516 364.43 30.6204 364.84 30.4385V31.6509C364.476 31.8244 364.108 31.9471 363.736 32.019C363.363 32.091 362.938 32.127 362.46 32.127ZM362.187 25.9824C361.713 25.9824 361.332 26.1326 361.044 26.4331C360.761 26.7336 360.592 27.1715 360.537 27.7471H363.723C363.715 27.1673 363.575 26.7293 363.304 26.4331C363.033 26.1326 362.661 25.9824 362.187 25.9824ZM370.445 24.8525C370.746 24.8525 370.993 24.8737 371.188 24.916L371.042 26.3062C370.83 26.2554 370.61 26.23 370.382 26.23C369.785 26.23 369.301 26.4246 368.928 26.814C368.56 27.2033 368.376 27.709 368.376 28.3311V32H366.884V24.9795H368.052L368.249 26.2173H368.325C368.558 25.7983 368.86 25.4661 369.233 25.2207C369.61 24.9753 370.014 24.8525 370.445 24.8525ZM376.057 24.8525C376.357 24.8525 376.605 24.8737 376.799 24.916L376.653 26.3062C376.442 26.2554 376.222 26.23 375.993 26.23C375.396 26.23 374.912 26.4246 374.54 26.814C374.171 27.2033 373.987 27.709 373.987 28.3311V32H372.496V24.9795H373.664L373.86 26.2173H373.936C374.169 25.7983 374.472 25.4661 374.844 25.2207C375.221 24.9753 375.625 24.8525 376.057 24.8525ZM381.173 32.127C380.081 32.127 379.226 31.8096 378.608 31.1748C377.995 30.5358 377.688 29.6577 377.688 28.5405C377.688 27.3937 377.974 26.4924 378.545 25.8364C379.116 25.1805 379.901 24.8525 380.9 24.8525C381.827 24.8525 382.559 25.134 383.096 25.6968C383.634 26.2596 383.902 27.034 383.902 28.02V28.8262H379.224C379.245 29.5075 379.429 30.0322 379.776 30.4004C380.123 30.7643 380.612 30.9463 381.243 30.9463C381.657 30.9463 382.042 30.9082 382.398 30.832C382.758 30.7516 383.143 30.6204 383.553 30.4385V31.6509C383.189 31.8244 382.821 31.9471 382.449 32.019C382.076 32.091 381.651 32.127 381.173 32.127ZM380.9 25.9824C380.426 25.9824 380.045 26.1326 379.757 26.4331C379.474 26.7336 379.304 27.1715 379.249 27.7471H382.436C382.428 27.1673 382.288 26.7293 382.017 26.4331C381.746 26.1326 381.374 25.9824 380.9 25.9824ZM387.965 32.127C387.089 32.127 386.405 31.8096 385.915 31.1748C385.424 30.54 385.178 29.6493 385.178 28.5024C385.178 27.3514 385.426 26.4564 385.921 25.8174C386.42 25.1742 387.11 24.8525 387.99 24.8525C388.913 24.8525 389.615 25.1932 390.098 25.8745H390.174C390.102 25.3709 390.066 24.9731 390.066 24.6812V22.123H391.564V32H390.396L390.136 31.0796H390.066C389.588 31.7778 388.887 32.127 387.965 32.127ZM388.365 30.9209C388.978 30.9209 389.425 30.7495 389.704 30.4067C389.983 30.0597 390.127 29.499 390.136 28.7246V28.5151C390.136 27.6307 389.992 27.0023 389.704 26.6299C389.416 26.2575 388.966 26.0713 388.352 26.0713C387.827 26.0713 387.423 26.285 387.14 26.7124C386.856 27.1356 386.714 27.7407 386.714 28.5278C386.714 29.3065 386.852 29.901 387.127 30.3115C387.402 30.7178 387.815 30.9209 388.365 30.9209Z" fill="#444444"/>
<path fill-rule="evenodd" clip-rule="evenodd" d="M322.221 24C323.689 24 324.878 22.8807 324.878 21.5C324.878 20.1193 323.689 19 322.221 19C320.754 19 319.564 20.1193 319.564 21.5C319.564 22.8807 320.754 24 322.221 24ZM330.192 24.5C330.192 25.8807 329.002 27 327.535 27C326.067 27 324.878 25.8807 324.878 24.5C324.878 23.1193 326.067 22 327.535 22C329.002 22 330.192 23.1193 330.192 24.5ZM327.535 33C329.002 33 330.192 31.8807 330.192 30.5C330.192 29.1193 329.002 28 327.535 28C326.067 28 324.878 29.1193 324.878 30.5C324.878 31.8807 326.067 33 327.535 33ZM322.221 36C323.689 36 324.878 34.8807 324.878 33.5C324.878 32.1193 323.689 31 322.221 31C320.754 31 319.564 32.1193 319.564 33.5C319.564 34.8807 320.754 36 322.221 36ZM316.908 33C318.375 33 319.564 31.8807 319.564 30.5C319.564 29.1193 318.375 28 316.908 28C315.44 28 314.251 29.1193 314.251 30.5C314.251 31.8807 315.44 33 316.908 33ZM319.564 24.5C319.564 25.8807 318.375 27 316.908 27C315.44 27 314.251 25.8807 314.251 24.5C314.251 23.1193 315.44 22 316.908 22C318.375 22 319.564 23.1193 319.564 24.5Z" fill="#999999"/>
<rect x="179" y="16" width="127" height="23" rx="11.5" fill="#EAEAF8"/>
<path d="M205.225 32V22.7197H206.742V30.6987H210.671V32H205.225ZM220.51 27.3472C220.51 28.8579 220.132 30.0322 219.374 30.8701C218.621 31.708 217.552 32.127 216.168 32.127C214.768 32.127 213.691 31.7122 212.938 30.8828C212.188 30.0492 211.814 28.8664 211.814 27.3345C211.814 25.8026 212.191 24.6261 212.944 23.8052C213.701 22.9842 214.78 22.5737 216.181 22.5737C217.561 22.5737 218.627 22.9906 219.38 23.8242C220.134 24.6579 220.51 25.8322 220.51 27.3472ZM213.426 27.3472C213.426 28.4897 213.657 29.3573 214.118 29.9497C214.579 30.5379 215.263 30.832 216.168 30.832C217.07 30.832 217.749 30.54 218.206 29.9561C218.667 29.3721 218.898 28.5024 218.898 27.3472C218.898 26.2088 218.669 25.3455 218.212 24.7573C217.76 24.1691 217.083 23.875 216.181 23.875C215.271 23.875 214.584 24.1691 214.118 24.7573C213.657 25.3455 213.426 26.2088 213.426 27.3472ZM222.503 32V22.7197H224.021V32H222.503ZM235.205 29.48C235.205 30.3052 234.907 30.9526 234.31 31.4224C233.713 31.8921 232.89 32.127 231.841 32.127C230.791 32.127 229.932 31.964 229.264 31.6382V30.2036C229.687 30.4025 230.135 30.5591 230.609 30.6733C231.088 30.7876 231.532 30.8447 231.942 30.8447C232.543 30.8447 232.986 30.7305 233.269 30.502C233.557 30.2734 233.701 29.9666 233.701 29.5815C233.701 29.2345 233.569 28.9404 233.307 28.6992C233.045 28.458 232.503 28.1724 231.682 27.8423C230.836 27.4995 230.239 27.1081 229.892 26.668C229.545 26.2279 229.372 25.6989 229.372 25.0811C229.372 24.3066 229.647 23.6973 230.197 23.2529C230.747 22.8086 231.485 22.5864 232.412 22.5864C233.301 22.5864 234.185 22.7811 235.065 23.1704L234.583 24.4082C233.758 24.0612 233.021 23.8877 232.374 23.8877C231.883 23.8877 231.511 23.9956 231.257 24.2114C231.003 24.423 230.876 24.7044 230.876 25.0557C230.876 25.2969 230.927 25.5042 231.028 25.6777C231.13 25.847 231.297 26.0078 231.53 26.1602C231.763 26.3125 232.181 26.5135 232.787 26.7632C233.468 27.0467 233.967 27.3112 234.285 27.5566C234.602 27.8021 234.835 28.0793 234.983 28.3882C235.131 28.6971 235.205 29.061 235.205 29.48ZM241.794 32L241.584 31.0796H241.508C241.301 31.4054 241.005 31.6615 240.62 31.8477C240.239 32.0339 239.803 32.127 239.312 32.127C238.461 32.127 237.827 31.9154 237.408 31.4922C236.989 31.069 236.779 30.4279 236.779 29.5688V24.9795H238.284V29.3086C238.284 29.846 238.394 30.2502 238.614 30.521C238.834 30.7876 239.179 30.9209 239.648 30.9209C240.275 30.9209 240.734 30.7347 241.026 30.3623C241.322 29.9857 241.47 29.3573 241.47 28.4771V24.9795H242.968V32H241.794ZM248.681 24.8525C249.557 24.8525 250.238 25.1699 250.725 25.8047C251.216 26.4395 251.461 27.3302 251.461 28.4771C251.461 29.6281 251.214 30.5252 250.719 31.1685C250.224 31.8075 249.536 32.127 248.656 32.127C247.767 32.127 247.077 31.8075 246.586 31.1685H246.485L246.212 32H245.095V22.123H246.586V24.4717C246.586 24.6452 246.578 24.9033 246.561 25.2461C246.544 25.5889 246.531 25.8068 246.523 25.8999H246.586C247.06 25.2017 247.759 24.8525 248.681 24.8525ZM248.294 26.0713C247.693 26.0713 247.259 26.249 246.993 26.6045C246.73 26.9557 246.595 27.5461 246.586 28.3755V28.4771C246.586 29.3319 246.722 29.9518 246.993 30.3369C247.264 30.7178 247.706 30.9082 248.319 30.9082C248.848 30.9082 249.248 30.6987 249.519 30.2798C249.794 29.8608 249.932 29.2557 249.932 28.4644C249.932 26.869 249.386 26.0713 248.294 26.0713ZM259.11 32H257.612V27.6709C257.612 27.1335 257.511 26.7336 257.308 26.4712C257.104 26.2046 256.787 26.0713 256.355 26.0713C255.78 26.0713 255.357 26.2596 255.086 26.6362C254.819 27.0086 254.686 27.6307 254.686 28.5024V32H253.194V24.9795H254.362L254.572 25.8999H254.648C254.843 25.5656 255.124 25.3075 255.492 25.1255C255.865 24.9435 256.273 24.8525 256.717 24.8525C257.796 24.8525 258.512 25.2207 258.863 25.957H258.964C259.172 25.61 259.464 25.3392 259.84 25.1445C260.217 24.9499 260.649 24.8525 261.135 24.8525C261.973 24.8525 262.583 25.0641 262.963 25.4873C263.348 25.9105 263.541 26.5558 263.541 27.4233V32H262.049V27.6709C262.049 27.1335 261.946 26.7336 261.738 26.4712C261.535 26.2046 261.218 26.0713 260.786 26.0713C260.206 26.0713 259.781 26.2533 259.51 26.6172C259.244 26.9769 259.11 27.5312 259.11 28.2803V32ZM267.115 32H265.623V24.9795H267.115V32ZM265.534 23.1196C265.534 22.853 265.606 22.6478 265.75 22.5039C265.898 22.36 266.108 22.2881 266.378 22.2881C266.641 22.2881 266.844 22.36 266.988 22.5039C267.136 22.6478 267.21 22.853 267.21 23.1196C267.21 23.3735 267.136 23.5745 266.988 23.7227C266.844 23.8665 266.641 23.9385 266.378 23.9385C266.108 23.9385 265.898 23.8665 265.75 23.7227C265.606 23.5745 265.534 23.3735 265.534 23.1196ZM271.869 30.9209C272.233 30.9209 272.597 30.8638 272.961 30.7495V31.873C272.796 31.945 272.582 32.0042 272.32 32.0508C272.062 32.1016 271.793 32.127 271.514 32.127C270.1 32.127 269.394 31.3822 269.394 29.8926V26.1094H268.435V25.4492L269.463 24.9033L269.971 23.418H270.892V24.9795H272.891V26.1094H270.892V29.8672C270.892 30.2269 270.98 30.4935 271.158 30.667C271.34 30.8363 271.577 30.9209 271.869 30.9209ZM276.985 30.9209C277.349 30.9209 277.713 30.8638 278.077 30.7495V31.873C277.912 31.945 277.698 32.0042 277.436 32.0508C277.178 32.1016 276.909 32.127 276.63 32.127C275.216 32.127 274.51 31.3822 274.51 29.8926V26.1094H273.551V25.4492L274.58 24.9033L275.087 23.418H276.008V24.9795H278.007V26.1094H276.008V29.8672C276.008 30.2269 276.097 30.4935 276.274 30.667C276.456 30.8363 276.693 30.9209 276.985 30.9209ZM282.552 32.127C281.46 32.127 280.606 31.8096 279.988 31.1748C279.374 30.5358 279.067 29.6577 279.067 28.5405C279.067 27.3937 279.353 26.4924 279.924 25.8364C280.496 25.1805 281.281 24.8525 282.279 24.8525C283.206 24.8525 283.938 25.134 284.476 25.6968C285.013 26.2596 285.282 27.034 285.282 28.02V28.8262H280.604C280.625 29.5075 280.809 30.0322 281.156 30.4004C281.503 30.7643 281.992 30.9463 282.622 30.9463C283.037 30.9463 283.422 30.9082 283.777 30.832C284.137 30.7516 284.522 30.6204 284.933 30.4385V31.6509C284.569 31.8244 284.201 31.9471 283.828 32.019C283.456 32.091 283.03 32.127 282.552 32.127ZM282.279 25.9824C281.805 25.9824 281.424 26.1326 281.137 26.4331C280.853 26.7336 280.684 27.1715 280.629 27.7471H283.815C283.807 27.1673 283.667 26.7293 283.396 26.4331C283.126 26.1326 282.753 25.9824 282.279 25.9824ZM289.344 32.127C288.468 32.127 287.785 31.8096 287.294 31.1748C286.803 30.54 286.558 29.6493 286.558 28.5024C286.558 27.3514 286.805 26.4564 287.3 25.8174C287.8 25.1742 288.489 24.8525 289.37 24.8525C290.292 24.8525 290.995 25.1932 291.477 25.8745H291.553C291.481 25.3709 291.445 24.9731 291.445 24.6812V22.123H292.943V32H291.775L291.515 31.0796H291.445C290.967 31.7778 290.267 32.127 289.344 32.127ZM289.744 30.9209C290.358 30.9209 290.804 30.7495 291.083 30.4067C291.363 30.0597 291.507 29.499 291.515 28.7246V28.5151C291.515 27.6307 291.371 27.0023 291.083 26.6299C290.796 26.2575 290.345 26.0713 289.731 26.0713C289.207 26.0713 288.803 26.285 288.519 26.7124C288.236 27.1356 288.094 27.7407 288.094 28.5278C288.094 29.3065 288.231 29.901 288.506 30.3115C288.781 30.7178 289.194 30.9209 289.744 30.9209Z" fill="#444444"/>
<path fill-rule="evenodd" clip-rule="evenodd" d="M190.5 24C191.881 24 193 22.8807 193 21.5C193 20.1193 191.881 19 190.5 19C189.119 19 188 20.1193 188 21.5C188 22.8807 189.119 24 190.5 24ZM198 24.5C198 25.8807 196.881 27 195.5 27C194.119 27 193 25.8807 193 24.5C193 23.1193 194.119 22 195.5 22C196.881 22 198 23.1193 198 24.5ZM195.5 33C196.881 33 198 31.8807 198 30.5C198 29.1193 196.881 28 195.5 28C194.119 28 193 29.1193 193 30.5C193 31.8807 194.119 33 195.5 33ZM190.5 36C191.881 36 193 34.8807 193 33.5C193 32.1193 191.881 31 190.5 31C189.119 31 188 32.1193 188 33.5C188 34.8807 189.119 36 190.5 36ZM185.5 33C186.881 33 188 31.8807 188 30.5C188 29.1193 186.881 28 185.5 28C184.119 28 183 29.1193 183 30.5C183 31.8807 184.119 33 185.5 33ZM188 24.5C188 25.8807 186.881 27 185.5 27C184.119 27 183 25.8807 183 24.5C183 23.1193 184.119 22 185.5 22C186.881 22 188 23.1193 188 24.5Z" fill="#0047BB"/>
<rect x="12" y="16" width="163" height="23" rx="11.5" fill="#E0F5FA"/>
<path d="M40.7422 27.0361H41.7959C42.5026 27.0361 43.0146 26.9049 43.332 26.6426C43.6494 26.3802 43.8081 25.9909 43.8081 25.4746C43.8081 24.9499 43.6367 24.5732 43.2939 24.3447C42.9512 24.1162 42.4349 24.002 41.7451 24.002H40.7422V27.0361ZM40.7422 28.293V32H39.2251V22.7197H41.8467C43.0443 22.7197 43.9308 22.944 44.5063 23.3926C45.0819 23.8411 45.3696 24.5182 45.3696 25.4238C45.3696 26.5791 44.7687 27.4022 43.5669 27.8931L46.1885 32H44.4619L42.2402 28.293H40.7422ZM50.4478 32.127C49.356 32.127 48.5011 31.8096 47.8833 31.1748C47.2697 30.5358 46.9629 29.6577 46.9629 28.5405C46.9629 27.3937 47.2485 26.4924 47.8198 25.8364C48.3911 25.1805 49.1761 24.8525 50.1748 24.8525C51.1016 24.8525 51.8337 25.134 52.3711 25.6968C52.9085 26.2596 53.1772 27.034 53.1772 28.02V28.8262H48.499C48.5202 29.5075 48.7043 30.0322 49.0513 30.4004C49.3983 30.7643 49.887 30.9463 50.5176 30.9463C50.9323 30.9463 51.3174 30.9082 51.6729 30.832C52.0326 30.7516 52.4176 30.6204 52.8281 30.4385V31.6509C52.4642 31.8244 52.096 31.9471 51.7236 32.019C51.3512 32.091 50.9259 32.127 50.4478 32.127ZM50.1748 25.9824C49.7008 25.9824 49.32 26.1326 49.0322 26.4331C48.7487 26.7336 48.5794 27.1715 48.5244 27.7471H51.7109C51.7025 27.1673 51.5628 26.7293 51.292 26.4331C51.0212 26.1326 50.6488 25.9824 50.1748 25.9824ZM59.5884 30.0005C59.5884 30.686 59.3387 31.2129 58.8394 31.5811C58.34 31.945 57.6248 32.127 56.6938 32.127C55.7586 32.127 55.0075 31.9852 54.4404 31.7017V30.4131C55.2656 30.7939 56.0337 30.9844 56.7446 30.9844C57.6629 30.9844 58.1221 30.7072 58.1221 30.1528C58.1221 29.9751 58.0713 29.827 57.9697 29.7085C57.8682 29.59 57.701 29.4673 57.4683 29.3403C57.2355 29.2134 56.9118 29.0695 56.4971 28.9087C55.6888 28.5955 55.1408 28.2824 54.853 27.9692C54.5695 27.6561 54.4277 27.2498 54.4277 26.7505C54.4277 26.1496 54.6689 25.6841 55.1514 25.354C55.638 25.0197 56.2982 24.8525 57.1318 24.8525C57.957 24.8525 58.7378 25.0197 59.4741 25.354L58.9917 26.4775C58.2342 26.1644 57.5973 26.0078 57.0811 26.0078C56.2939 26.0078 55.9004 26.2321 55.9004 26.6807C55.9004 26.9007 56.002 27.0869 56.2051 27.2393C56.4124 27.3916 56.861 27.6011 57.5508 27.8677C58.1305 28.092 58.5516 28.2972 58.814 28.4834C59.0763 28.6696 59.271 28.8854 59.3979 29.1309C59.5249 29.3721 59.5884 29.6619 59.5884 30.0005ZM64.2729 32.127C63.1812 32.127 62.3263 31.8096 61.7085 31.1748C61.0949 30.5358 60.7881 29.6577 60.7881 28.5405C60.7881 27.3937 61.0737 26.4924 61.645 25.8364C62.2163 25.1805 63.0013 24.8525 64 24.8525C64.9268 24.8525 65.6589 25.134 66.1963 25.6968C66.7337 26.2596 67.0024 27.034 67.0024 28.02V28.8262H62.3242C62.3454 29.5075 62.5295 30.0322 62.8765 30.4004C63.2235 30.7643 63.7122 30.9463 64.3428 30.9463C64.7575 30.9463 65.1426 30.9082 65.498 30.832C65.8577 30.7516 66.2428 30.6204 66.6533 30.4385V31.6509C66.2894 31.8244 65.9212 31.9471 65.5488 32.019C65.1764 32.091 64.7511 32.127 64.2729 32.127ZM64 25.9824C63.526 25.9824 63.1452 26.1326 62.8574 26.4331C62.5739 26.7336 62.4046 27.1715 62.3496 27.7471H65.5361C65.5277 27.1673 65.388 26.7293 65.1172 26.4331C64.8464 26.1326 64.474 25.9824 64 25.9824ZM73.0898 32L72.7915 31.0225H72.7407C72.4022 31.4499 72.0615 31.7419 71.7188 31.8984C71.376 32.0508 70.9359 32.127 70.3984 32.127C69.7087 32.127 69.1691 31.9408 68.7798 31.5684C68.3947 31.196 68.2021 30.6691 68.2021 29.9878C68.2021 29.2642 68.4709 28.7183 69.0083 28.3501C69.5457 27.9819 70.3646 27.7809 71.4648 27.7471L72.6772 27.709V27.3345C72.6772 26.8859 72.5715 26.5516 72.3599 26.3315C72.1525 26.1073 71.8288 25.9951 71.3887 25.9951C71.029 25.9951 70.6841 26.048 70.354 26.1538C70.0239 26.2596 69.7065 26.3844 69.4019 26.5283L68.9194 25.4619C69.3003 25.263 69.7171 25.1128 70.1699 25.0112C70.6227 24.9054 71.0501 24.8525 71.4521 24.8525C72.3451 24.8525 73.0179 25.0472 73.4707 25.4365C73.9277 25.8258 74.1562 26.4373 74.1562 27.271V32H73.0898ZM70.8682 30.9844C71.4098 30.9844 71.8436 30.8341 72.1694 30.5337C72.4995 30.229 72.6646 29.8037 72.6646 29.2578V28.6484L71.7632 28.6865C71.0607 28.7119 70.5487 28.8304 70.2271 29.042C69.9097 29.2493 69.751 29.5688 69.751 30.0005C69.751 30.3136 69.8441 30.557 70.0303 30.7305C70.2165 30.8997 70.4958 30.9844 70.8682 30.9844ZM79.7993 24.8525C80.0998 24.8525 80.3473 24.8737 80.542 24.916L80.396 26.3062C80.1844 26.2554 79.9644 26.23 79.7358 26.23C79.1392 26.23 78.6546 26.4246 78.2822 26.814C77.9141 27.2033 77.73 27.709 77.73 28.3311V32H76.2383V24.9795H77.4062L77.603 26.2173H77.6792C77.9119 25.7983 78.2145 25.4661 78.5869 25.2207C78.9635 24.9753 79.3677 24.8525 79.7993 24.8525ZM84.6807 32.127C83.6185 32.127 82.8102 31.818 82.2559 31.2002C81.7057 30.5781 81.4307 29.6873 81.4307 28.5278C81.4307 27.3472 81.7184 26.4395 82.2939 25.8047C82.8737 25.1699 83.7095 24.8525 84.8013 24.8525C85.5418 24.8525 86.2083 24.9901 86.8008 25.2651L86.3501 26.4648C85.7196 26.2194 85.1991 26.0967 84.7886 26.0967C83.5741 26.0967 82.9668 26.9028 82.9668 28.5151C82.9668 29.3022 83.117 29.8947 83.4175 30.2925C83.7222 30.686 84.1665 30.8828 84.7505 30.8828C85.4149 30.8828 86.0433 30.7178 86.6357 30.3877V31.689C86.3691 31.8455 86.0835 31.9577 85.7788 32.0254C85.4784 32.0931 85.1123 32.127 84.6807 32.127ZM94.4624 32H92.9644V27.6836C92.9644 27.1419 92.8543 26.7378 92.6343 26.4712C92.4185 26.2046 92.0736 26.0713 91.5996 26.0713C90.9733 26.0713 90.512 26.2596 90.2158 26.6362C89.9238 27.0086 89.7778 27.6349 89.7778 28.5151V32H88.2861V22.123H89.7778V24.6304C89.7778 25.0324 89.7524 25.4619 89.7017 25.9189H89.7969C90 25.5804 90.2814 25.318 90.6411 25.1318C91.005 24.9456 91.4282 24.8525 91.9106 24.8525C93.6118 24.8525 94.4624 25.7095 94.4624 27.4233V32ZM98.0298 32H96.5381V24.9795H98.0298V32ZM96.4492 23.1196C96.4492 22.853 96.5212 22.6478 96.665 22.5039C96.8132 22.36 97.0226 22.2881 97.2935 22.2881C97.5558 22.2881 97.759 22.36 97.9028 22.5039C98.0509 22.6478 98.125 22.853 98.125 23.1196C98.125 23.3735 98.0509 23.5745 97.9028 23.7227C97.759 23.8665 97.5558 23.9385 97.2935 23.9385C97.0226 23.9385 96.8132 23.8665 96.665 23.7227C96.5212 23.5745 96.4492 23.3735 96.4492 23.1196ZM106.345 32H104.847V27.6836C104.847 27.1419 104.737 26.7378 104.517 26.4712C104.301 26.2046 103.956 26.0713 103.482 26.0713C102.852 26.0713 102.391 26.2575 102.099 26.6299C101.807 27.0023 101.661 27.6265 101.661 28.5024V32H100.169V24.9795H101.337L101.546 25.8999H101.623C101.834 25.5656 102.135 25.3075 102.524 25.1255C102.913 24.9435 103.345 24.8525 103.819 24.8525C105.503 24.8525 106.345 25.7095 106.345 27.4233V32ZM114.35 24.9795V25.7983L113.15 26.0205C113.26 26.1686 113.351 26.3506 113.423 26.5664C113.495 26.7822 113.531 27.0107 113.531 27.252C113.531 27.9756 113.281 28.5448 112.782 28.9595C112.282 29.3742 111.595 29.5815 110.719 29.5815C110.494 29.5815 110.291 29.5646 110.109 29.5308C109.788 29.7297 109.627 29.9624 109.627 30.229C109.627 30.3898 109.701 30.5104 109.849 30.5908C110.001 30.6712 110.279 30.7114 110.681 30.7114H111.906C112.68 30.7114 113.268 30.8765 113.67 31.2065C114.072 31.5366 114.273 32.0127 114.273 32.6348C114.273 33.4303 113.945 34.0439 113.29 34.4756C112.634 34.9072 111.686 35.123 110.446 35.123C109.489 35.123 108.759 34.9538 108.256 34.6152C107.752 34.2767 107.5 33.7943 107.5 33.168C107.5 32.7363 107.636 32.3724 107.907 32.0762C108.182 31.7842 108.565 31.5811 109.056 31.4668C108.857 31.3822 108.692 31.2467 108.561 31.0605C108.434 30.8701 108.37 30.6712 108.37 30.4639C108.37 30.2015 108.444 29.9793 108.592 29.7974C108.74 29.6154 108.96 29.4355 109.252 29.2578C108.889 29.1012 108.592 28.8473 108.364 28.4961C108.139 28.1406 108.027 27.7259 108.027 27.252C108.027 26.4902 108.266 25.8999 108.745 25.481C109.227 25.062 109.913 24.8525 110.801 24.8525C111 24.8525 111.208 24.8674 111.423 24.897C111.643 24.9224 111.808 24.9499 111.918 24.9795H114.35ZM108.833 33.0918C108.833 33.4134 108.977 33.661 109.265 33.8345C109.557 34.008 109.965 34.0947 110.49 34.0947C111.303 34.0947 111.908 33.9784 112.306 33.7456C112.703 33.5129 112.902 33.2039 112.902 32.8188C112.902 32.5142 112.792 32.2962 112.572 32.165C112.356 32.0381 111.952 31.9746 111.36 31.9746H110.23C109.803 31.9746 109.462 32.0741 109.208 32.2729C108.958 32.4761 108.833 32.749 108.833 33.0918ZM109.475 27.252C109.475 27.6921 109.587 28.0306 109.811 28.2676C110.04 28.5046 110.365 28.623 110.789 28.623C111.652 28.623 112.083 28.1618 112.083 27.2393C112.083 26.7822 111.976 26.431 111.76 26.1855C111.548 25.9359 111.224 25.811 110.789 25.811C110.357 25.811 110.029 25.9338 109.805 26.1792C109.585 26.4246 109.475 26.7822 109.475 27.252Z" fill="#444444"/>
<path fill-rule="evenodd" clip-rule="evenodd" d="M23.5 24C24.8807 24 26 22.8807 26 21.5C26 20.1193 24.8807 19 23.5 19C22.1193 19 21 20.1193 21 21.5C21 22.8807 22.1193 24 23.5 24ZM31 24.5C31 25.8807 29.8807 27 28.5 27C27.1193 27 26 25.8807 26 24.5C26 23.1193 27.1193 22 28.5 22C29.8807 22 31 23.1193 31 24.5ZM28.5 33C29.8807 33 31 31.8807 31 30.5C31 29.1193 29.8807 28 28.5 28C27.1193 28 26 29.1193 26 30.5C26 31.8807 27.1193 33 28.5 33ZM23.5 36C24.8807 36 26 34.8807 26 33.5C26 32.1193 24.8807 31 23.5 31C22.1193 31 21 32.1193 21 33.5C21 34.8807 22.1193 36 23.5 36ZM18.5 33C19.8807 33 21 31.8807 21 30.5C21 29.1193 19.8807 28 18.5 28C17.1193 28 16 29.1193 16 30.5C16 31.8807 17.1193 33 18.5 33ZM21 24.5C21 25.8807 19.8807 27 18.5 27C17.1193 27 16 25.8807 16 24.5C16 23.1193 17.1193 22 18.5 22C19.8807 22 21 23.1193 21 24.5Z" fill="#00AFD7"/>
<rect x="310" y="47" width="118" height="23" rx="11.5" fill="#C5EDE9"/>
<circle cx="321.5" cy="58.5" r="6" stroke="#00A499" stroke-width="5"/>
<path d="M336.225 63V53.7197H337.742V61.6987H341.671V63H336.225ZM351.51 58.3472C351.51 59.8579 351.132 61.0322 350.374 61.8701C349.621 62.708 348.552 63.127 347.168 63.127C345.768 63.127 344.691 62.7122 343.938 61.8828C343.188 61.0492 342.814 59.8664 342.814 58.3345C342.814 56.8026 343.191 55.6261 343.944 54.8052C344.701 53.9842 345.78 53.5737 347.181 53.5737C348.561 53.5737 349.627 53.9906 350.38 54.8242C351.134 55.6579 351.51 56.8322 351.51 58.3472ZM344.426 58.3472C344.426 59.4897 344.657 60.3573 345.118 60.9497C345.579 61.5379 346.263 61.832 347.168 61.832C348.07 61.832 348.749 61.54 349.206 60.9561C349.667 60.3721 349.898 59.5024 349.898 58.3472C349.898 57.2088 349.669 56.3455 349.212 55.7573C348.76 55.1691 348.083 54.875 347.181 54.875C346.271 54.875 345.584 55.1691 345.118 55.7573C344.657 56.3455 344.426 57.2088 344.426 58.3472ZM353.503 63V53.7197H355.021V63H353.503ZM366.611 63L365.685 60.4229H362.136L361.229 63H359.629L363.101 53.6816H364.751L368.224 63H366.611ZM365.285 59.1152L364.415 56.5889C364.352 56.4196 364.263 56.153 364.148 55.7891C364.038 55.4251 363.962 55.1585 363.92 54.9893C363.806 55.5098 363.639 56.0789 363.418 56.6968L362.581 59.1152H365.285ZM372.851 63.127C371.962 63.127 371.273 62.8075 370.782 62.1685H370.693C370.752 62.7609 370.782 63.1206 370.782 63.2476V66.123H369.29V55.9795H370.496C370.53 56.1107 370.6 56.4238 370.706 56.9189H370.782C371.247 56.208 371.945 55.8525 372.876 55.8525C373.752 55.8525 374.434 56.1699 374.92 56.8047C375.411 57.4395 375.657 58.3302 375.657 59.4771C375.657 60.6239 375.407 61.5189 374.908 62.1621C374.413 62.8053 373.727 63.127 372.851 63.127ZM372.489 57.0713C371.897 57.0713 371.463 57.2448 371.188 57.5918C370.917 57.9388 370.782 58.4932 370.782 59.2549V59.4771C370.782 60.3319 370.917 60.9518 371.188 61.3369C371.459 61.7178 371.901 61.9082 372.515 61.9082C373.031 61.9082 373.429 61.6966 373.708 61.2734C373.987 60.8503 374.127 60.2472 374.127 59.4644C374.127 58.6772 373.987 58.0827 373.708 57.6807C373.433 57.2744 373.027 57.0713 372.489 57.0713ZM380.951 63.127C380.062 63.127 379.372 62.8075 378.881 62.1685H378.792C378.852 62.7609 378.881 63.1206 378.881 63.2476V66.123H377.39V55.9795H378.596C378.63 56.1107 378.699 56.4238 378.805 56.9189H378.881C379.347 56.208 380.045 55.8525 380.976 55.8525C381.852 55.8525 382.533 56.1699 383.02 56.8047C383.511 57.4395 383.756 58.3302 383.756 59.4771C383.756 60.6239 383.507 61.5189 383.007 62.1621C382.512 62.8053 381.827 63.127 380.951 63.127ZM380.589 57.0713C379.996 57.0713 379.563 57.2448 379.288 57.5918C379.017 57.9388 378.881 58.4932 378.881 59.2549V59.4771C378.881 60.3319 379.017 60.9518 379.288 61.3369C379.558 61.7178 380.001 61.9082 380.614 61.9082C381.131 61.9082 381.528 61.6966 381.808 61.2734C382.087 60.8503 382.227 60.2472 382.227 59.4644C382.227 58.6772 382.087 58.0827 381.808 57.6807C381.533 57.2744 381.126 57.0713 380.589 57.0713ZM389.05 55.8525C389.351 55.8525 389.598 55.8737 389.793 55.916L389.647 57.3062C389.435 57.2554 389.215 57.23 388.987 57.23C388.39 57.23 387.906 57.4246 387.533 57.814C387.165 58.2033 386.981 58.709 386.981 59.3311V63H385.489V55.9795H386.657L386.854 57.2173H386.93C387.163 56.7983 387.465 56.4661 387.838 56.2207C388.215 55.9753 388.619 55.8525 389.05 55.8525ZM397.328 59.4771C397.328 60.6239 397.034 61.5189 396.445 62.1621C395.857 62.8053 395.038 63.127 393.989 63.127C393.333 63.127 392.753 62.9788 392.25 62.6826C391.746 62.3864 391.359 61.9611 391.088 61.4067C390.817 60.8524 390.682 60.2091 390.682 59.4771C390.682 58.3387 390.974 57.45 391.558 56.811C392.142 56.172 392.965 55.8525 394.027 55.8525C395.042 55.8525 395.847 56.1805 396.439 56.8364C397.031 57.4881 397.328 58.3683 397.328 59.4771ZM392.218 59.4771C392.218 61.0978 392.817 61.9082 394.014 61.9082C395.199 61.9082 395.792 61.0978 395.792 59.4771C395.792 57.8732 395.195 57.0713 394.001 57.0713C393.375 57.0713 392.92 57.2786 392.637 57.6934C392.357 58.1081 392.218 58.7026 392.218 59.4771ZM400.647 63L397.981 55.9795H399.556L400.984 60.061C401.229 60.7466 401.377 61.3009 401.428 61.7241H401.479C401.517 61.4194 401.665 60.8651 401.923 60.061L403.352 55.9795H404.938L402.26 63H400.647ZM409.071 63.127C407.979 63.127 407.124 62.8096 406.506 62.1748C405.893 61.5358 405.586 60.6577 405.586 59.5405C405.586 58.3937 405.872 57.4924 406.443 56.8364C407.014 56.1805 407.799 55.8525 408.798 55.8525C409.725 55.8525 410.457 56.134 410.994 56.6968C411.532 57.2596 411.8 58.034 411.8 59.02V59.8262H407.122C407.143 60.5075 407.327 61.0322 407.674 61.4004C408.021 61.7643 408.51 61.9463 409.141 61.9463C409.555 61.9463 409.94 61.9082 410.296 61.832C410.656 61.7516 411.041 61.6204 411.451 61.4385V62.6509C411.087 62.8244 410.719 62.9471 410.347 63.019C409.974 63.091 409.549 63.127 409.071 63.127ZM408.798 56.9824C408.324 56.9824 407.943 57.1326 407.655 57.4331C407.372 57.7336 407.202 58.1715 407.147 58.7471H410.334C410.326 58.1673 410.186 57.7293 409.915 57.4331C409.644 57.1326 409.272 56.9824 408.798 56.9824ZM415.863 63.127C414.987 63.127 414.303 62.8096 413.812 62.1748C413.322 61.54 413.076 60.6493 413.076 59.5024C413.076 58.3514 413.324 57.4564 413.819 56.8174C414.318 56.1742 415.008 55.8525 415.888 55.8525C416.811 55.8525 417.513 56.1932 417.996 56.8745H418.072C418 56.3709 417.964 55.9731 417.964 55.6812V53.123H419.462V63H418.294L418.034 62.0796H417.964C417.486 62.7778 416.785 63.127 415.863 63.127ZM416.263 61.9209C416.876 61.9209 417.323 61.7495 417.602 61.4067C417.881 61.0597 418.025 60.499 418.034 59.7246V59.5151C418.034 58.6307 417.89 58.0023 417.602 57.6299C417.314 57.2575 416.864 57.0713 416.25 57.0713C415.725 57.0713 415.321 57.285 415.038 57.7124C414.754 58.1356 414.612 58.7407 414.612 59.5278C414.612 60.3065 414.75 60.901 415.025 61.3115C415.3 61.7178 415.713 61.9209 416.263 61.9209Z" fill="#444444"/>
<rect x="738" y="78" width="106" height="23" rx="11.5" fill="#C5EDE9"/>
<path d="M769.482 94L768.556 91.4229H765.007L764.1 94H762.5L765.972 84.6816H767.623L771.095 94H769.482ZM768.156 90.1152L767.286 87.5889C767.223 87.4196 767.134 87.153 767.02 86.7891C766.91 86.4251 766.833 86.1585 766.791 85.9893C766.677 86.5098 766.51 87.0789 766.29 87.6968L765.452 90.1152H768.156ZM775.722 94.127C774.833 94.127 774.144 93.8075 773.653 93.1685H773.564C773.623 93.7609 773.653 94.1206 773.653 94.2476V97.123H772.161V86.9795H773.367C773.401 87.1107 773.471 87.4238 773.577 87.9189H773.653C774.118 87.208 774.817 86.8525 775.748 86.8525C776.624 86.8525 777.305 87.1699 777.792 87.8047C778.282 88.4395 778.528 89.3302 778.528 90.4771C778.528 91.6239 778.278 92.5189 777.779 93.1621C777.284 93.8053 776.598 94.127 775.722 94.127ZM775.36 88.0713C774.768 88.0713 774.334 88.2448 774.059 88.5918C773.788 88.9388 773.653 89.4932 773.653 90.2549V90.4771C773.653 91.3319 773.788 91.9518 774.059 92.3369C774.33 92.7178 774.772 92.9082 775.386 92.9082C775.902 92.9082 776.3 92.6966 776.579 92.2734C776.858 91.8503 776.998 91.2472 776.998 90.4644C776.998 89.6772 776.858 89.0827 776.579 88.6807C776.304 88.2744 775.898 88.0713 775.36 88.0713ZM783.822 94.127C782.933 94.127 782.243 93.8075 781.752 93.1685H781.664C781.723 93.7609 781.752 94.1206 781.752 94.2476V97.123H780.261V86.9795H781.467C781.501 87.1107 781.57 87.4238 781.676 87.9189H781.752C782.218 87.208 782.916 86.8525 783.847 86.8525C784.723 86.8525 785.404 87.1699 785.891 87.8047C786.382 88.4395 786.627 89.3302 786.627 90.4771C786.627 91.6239 786.378 92.5189 785.878 93.1621C785.383 93.8053 784.698 94.127 783.822 94.127ZM783.46 88.0713C782.868 88.0713 782.434 88.2448 782.159 88.5918C781.888 88.9388 781.752 89.4932 781.752 90.2549V90.4771C781.752 91.3319 781.888 91.9518 782.159 92.3369C782.43 92.7178 782.872 92.9082 783.485 92.9082C784.002 92.9082 784.399 92.6966 784.679 92.2734C784.958 91.8503 785.098 91.2472 785.098 90.4644C785.098 89.6772 784.958 89.0827 784.679 88.6807C784.404 88.2744 783.997 88.0713 783.46 88.0713ZM791.921 86.8525C792.222 86.8525 792.469 86.8737 792.664 86.916L792.518 88.3062C792.306 88.2554 792.086 88.23 791.858 88.23C791.261 88.23 790.777 88.4246 790.404 88.814C790.036 89.2033 789.852 89.709 789.852 90.3311V94H788.36V86.9795H789.528L789.725 88.2173H789.801C790.034 87.7983 790.337 87.4661 790.709 87.2207C791.086 86.9753 791.49 86.8525 791.921 86.8525ZM800.199 90.4771C800.199 91.6239 799.905 92.5189 799.316 93.1621C798.728 93.8053 797.909 94.127 796.86 94.127C796.204 94.127 795.624 93.9788 795.121 93.6826C794.617 93.3864 794.23 92.9611 793.959 92.4067C793.688 91.8524 793.553 91.2091 793.553 90.4771C793.553 89.3387 793.845 88.45 794.429 87.811C795.013 87.172 795.836 86.8525 796.898 86.8525C797.914 86.8525 798.718 87.1805 799.31 87.8364C799.903 88.4881 800.199 89.3683 800.199 90.4771ZM795.089 90.4771C795.089 92.0978 795.688 92.9082 796.885 92.9082C798.07 92.9082 798.663 92.0978 798.663 90.4771C798.663 88.8732 798.066 88.0713 796.873 88.0713C796.246 88.0713 795.791 88.2786 795.508 88.6934C795.229 89.1081 795.089 89.7026 795.089 90.4771ZM803.519 94L800.853 86.9795H802.427L803.855 91.061C804.1 91.7466 804.249 92.3009 804.299 92.7241H804.35C804.388 92.4194 804.536 91.8651 804.794 91.061L806.223 86.9795H807.81L805.131 94H803.519ZM811.942 94.127C810.85 94.127 809.995 93.8096 809.377 93.1748C808.764 92.5358 808.457 91.6577 808.457 90.5405C808.457 89.3937 808.743 88.4924 809.314 87.8364C809.885 87.1805 810.67 86.8525 811.669 86.8525C812.596 86.8525 813.328 87.134 813.865 87.6968C814.403 88.2596 814.671 89.034 814.671 90.02V90.8262H809.993C810.014 91.5075 810.198 92.0322 810.545 92.4004C810.892 92.7643 811.381 92.9463 812.012 92.9463C812.426 92.9463 812.812 92.9082 813.167 92.832C813.527 92.7516 813.912 92.6204 814.322 92.4385V93.6509C813.958 93.8244 813.59 93.9471 813.218 94.019C812.845 94.091 812.42 94.127 811.942 94.127ZM811.669 87.9824C811.195 87.9824 810.814 88.1326 810.526 88.4331C810.243 88.7336 810.074 89.1715 810.019 89.7471H813.205C813.197 89.1673 813.057 88.7293 812.786 88.4331C812.515 88.1326 812.143 87.9824 811.669 87.9824ZM818.734 94.127C817.858 94.127 817.174 93.8096 816.684 93.1748C816.193 92.54 815.947 91.6493 815.947 90.5024C815.947 89.3514 816.195 88.4564 816.69 87.8174C817.189 87.1742 817.879 86.8525 818.759 86.8525C819.682 86.8525 820.384 87.1932 820.867 87.8745H820.943C820.871 87.3709 820.835 86.9731 820.835 86.6812V84.123H822.333V94H821.165L820.905 93.0796H820.835C820.357 93.7778 819.656 94.127 818.734 94.127ZM819.134 92.9209C819.747 92.9209 820.194 92.7495 820.473 92.4067C820.752 92.0597 820.896 91.499 820.905 90.7246V90.5151C820.905 89.6307 820.761 89.0023 820.473 88.6299C820.185 88.2575 819.735 88.0713 819.121 88.0713C818.596 88.0713 818.192 88.285 817.909 88.7124C817.625 89.1356 817.483 89.7407 817.483 90.5278C817.483 91.3065 817.621 91.901 817.896 92.3115C818.171 92.7178 818.584 92.9209 819.134 92.9209Z" fill="#444444"/>
<circle cx="749" cy="89.5" r="8.5" fill="#00A499"/>
</svg>
