<?xml version="1.0" encoding="utf-8"?>
<!-- Generator: Adobe Illustrator 17.0.0, SVG Export Plug-In . SVG Version: 6.00 Build 0)  -->
<!DOCTYPE svg PUBLIC "-//W3C//DTD SVG 1.1//EN" "http://www.w3.org/Graphics/SVG/1.1/DTD/svg11.dtd">
<svg version="1.1" id="Layer_1" xmlns="http://www.w3.org/2000/svg" xmlns:xlink="http://www.w3.org/1999/xlink" x="0px" y="0px"
	 width="960px" height="560px" viewBox="0 0 960 560" style="enable-background:new 0 0 960 560;" xml:space="preserve">
<g>
	<path style="fill:#02AA8A;" d="M58.952,160.064c2.546,0,4.32,0.281,5.327,0.837c1.007,0.556,1.51,1.469,1.51,2.745
		c0,1.487-1.352,2.939-4.057,4.373c-1.165,0.632-2.043,1.136-2.622,1.51c-1.007,0.632-1.721,1.604-2.148,2.903
		c-0.427,1.3-0.638,3.325-0.638,6.082v80.622c0,2.33,0.123,4.068,0.363,5.21c0.24,1.141,0.65,2.107,1.229,2.903
		c0.48,0.632,1.908,1.563,4.291,2.786c2.388,1.218,3.577,2.57,3.577,4.051c0,1.329-0.503,2.254-1.51,2.786
		c-1.007,0.533-2.78,0.796-5.327,0.796H39.073c-2.599,0-4.39-0.263-5.368-0.796c-0.978-0.533-1.469-1.458-1.469-2.786
		c0-1.428,1.352-2.862,4.057-4.291c1.218-0.632,2.148-1.165,2.786-1.586c0.954-0.638,1.639-1.616,2.066-2.944
		c0.421-1.329,0.638-3.366,0.638-6.123v-80.634c0-2.33-0.123-4.051-0.363-5.169c-0.24-1.112-0.65-2.072-1.229-2.862
		c-0.527-0.632-1.984-1.563-4.373-2.786c-2.382-1.218-3.577-2.564-3.577-4.051c0-1.276,0.492-2.189,1.469-2.745
		c0.978-0.556,2.769-0.837,5.368-0.837h19.873V160.064z"/>
	<path style="fill:#02AA8A;" d="M108.252,277.664c-2.119,0-3.606-0.252-4.455-0.755c-0.849-0.503-1.27-1.34-1.27-2.505
		c0-1.698,1.376-3.102,4.139-4.215c1.376-0.533,2.464-1.036,3.26-1.516c1.007-0.632,1.709-1.598,2.107-2.898
		c0.398-1.305,0.597-3.699,0.597-7.194v-81.582c0-3.77-0.48-6.111-1.434-7.036c-0.954-0.931-2.81-1.393-5.567-1.393
		c-3.711,0-7.118,0.439-10.22,1.317c-3.102,0.872-6.105,2.213-9.026,4.016c-1.434,0.954-3.337,2.581-5.725,4.894
		c-2.388,2.306-4.373,3.46-5.965,3.46c-0.901,0-1.54-0.24-1.908-0.72c-0.369-0.474-0.556-1.376-0.556-2.699
		c0-3.77,0.316-7.288,0.954-10.578c0.638-3.29,1.247-5.303,1.826-6.047c0.585-0.796,1.434-1.346,2.546-1.668
		c1.112-0.316,3.102-0.474,5.965-0.474h1.908h68.699c3.389,0,5.655,0.094,6.796,0.281c1.141,0.181,2.031,0.486,2.663,0.913
		c1.06,0.743,1.949,2.74,2.663,6c0.714,3.26,1.077,7.118,1.077,11.573c0,1.376-0.158,2.295-0.48,2.74
		c-0.322,0.451-0.901,0.679-1.75,0.679c-1.698,0-3.787-1.223-6.281-3.659c-1.218-1.165-2.224-2.072-3.02-2.704
		c-3.179-2.494-6.533-4.332-10.057-5.526c-3.53-1.188-7.463-1.791-11.807-1.791c-2.757,0-4.613,0.462-5.567,1.393
		c-0.954,0.925-1.428,3.272-1.428,7.036v2.622v78.954c0,3.02,0.129,5.116,0.398,6.281c0.263,1.165,0.691,2.119,1.27,2.857
		c0.585,0.743,2.131,1.616,4.648,2.622c2.517,1.013,3.781,2.359,3.781,4.057c0,1.165-0.427,2.002-1.27,2.505
		c-0.849,0.503-2.306,0.755-4.379,0.755h-23.134V277.664z"/>
	<path style="fill:#02AA8A;" d="M221.233,281.241c-17.227,0-30.972-5.508-41.227-16.537c-10.256-11.028-15.383-25.815-15.383-44.371
		c0-9.12,1.34-17.385,4.016-24.802c2.675-7.428,6.691-14.025,12.047-19.803c5.672-6.152,12.193-10.747,19.557-13.791
		c7.364-3.044,15.612-4.572,24.732-4.572c7.949,0,15.506,1.112,22.66,3.337c7.159,2.23,11.871,4.695,14.154,7.399
		c0.901,1.007,1.563,3.231,1.99,6.679c0.421,3.448,0.632,8.166,0.632,14.154c0,1.645-0.211,2.757-0.632,3.337
		c-0.427,0.585-1.194,0.872-2.306,0.872c-1.961,0-3.553-1.481-4.771-4.455c-0.901-2.172-1.803-3.945-2.704-5.327
		c-3.711-5.725-8.189-10.057-13.44-13.001c-5.245-2.939-11.128-4.414-17.649-4.414c-12.299,0-22.291,4.905-29.977,14.71
		c-7.686,9.811-11.532,22.665-11.532,38.57c0,15.846,3.846,28.384,11.532,37.61c7.686,9.22,18.1,13.832,31.247,13.832
		c5.298,0,10.203-0.784,14.71-2.341c4.507-1.569,9.067-4.098,13.674-7.598c1.908-1.481,4.174-3.776,6.802-6.878
		c2.622-3.097,4.513-4.654,5.684-4.654c1.06,0,1.996,0.41,2.821,1.235c0.825,0.825,1.229,1.762,1.229,2.821
		c0,1.85-0.901,4.203-2.699,7.036c-1.803,2.833-4.139,5.42-7.001,7.75c-5.461,4.455-11.315,7.768-17.567,9.94
		C235.575,280.152,228.708,281.241,221.233,281.241z"/>
	<path style="fill:#02AA8A;" d="M362.775,281.083c-6.416,0-12.299-0.901-17.655-2.704c-5.356-1.803-10.15-4.478-14.388-8.031
		c-3.448-3.02-6.24-6.304-8.388-9.858c-2.148-3.553-3.22-6.626-3.22-9.225c0-1.639,0.48-2.944,1.434-3.899
		c0.954-0.948,2.224-1.428,3.817-1.428c2.014,0,3.899,1.78,5.649,5.327c1.165,2.382,2.224,4.244,3.179,5.567
		c3.659,5.034,7.885,8.786,12.685,11.251c4.8,2.464,10.326,3.699,16.583,3.699c9.647,0,17.415-2.312,23.298-6.919
		c5.883-4.613,8.827-10.654,8.827-18.135c0-6.252-2.014-11.04-6.047-14.347c-4.027-3.313-11.742-6.088-23.139-8.312
		c-9.805-1.961-16.589-3.6-20.359-4.929s-6.919-2.944-9.46-4.853c-3.553-2.646-6.281-5.883-8.189-9.7
		c-1.908-3.811-2.862-7.949-2.862-12.404c0-10.496,3.512-18.896,10.537-25.206c7.024-6.304,16.42-9.46,28.185-9.46
		c6.521,0,12.626,0.767,18.328,2.306c5.701,1.54,10.086,3.577,13.159,6.123c1.218,1.007,2.066,2.178,2.546,3.5
		c0.48,1.329,0.72,4.004,0.72,8.031v2.786c0,2.224-0.176,3.629-0.515,4.215c-0.345,0.585-0.995,0.872-1.949,0.872
		c-0.901,0-2.57-1.364-5.005-4.092c-2.441-2.734-4.665-4.999-6.679-6.796c-3.5-3.026-7.159-5.274-10.976-6.761
		c-3.817-1.481-7.768-2.224-11.848-2.224c-6.995,0-12.603,1.891-16.818,5.684c-4.215,3.787-6.322,8.786-6.322,14.991
		c0,5.461,1.668,9.834,5.005,13.118c3.342,3.29,8.669,5.807,15.98,7.557c2.757,0.632,6.708,1.458,11.848,2.464
		c10.39,1.908,17.52,3.975,21.389,6.205c4.981,2.804,8.722,6.439,11.216,10.888c2.488,4.455,3.735,9.647,3.735,15.588
		c0,11.824-4.057,21.296-12.164,28.42C386.786,277.518,376.08,281.083,362.775,281.083z"/>
	<path style="fill:#02AA8A;" d="M417.711,240.213c0-11.719,3.723-21.301,11.175-28.747c7.446-7.44,17.058-11.169,28.823-11.169
		c11.819,0,21.43,3.711,28.823,11.128c7.393,7.428,11.093,17.017,11.093,28.788c0,11.713-3.7,21.266-11.093,28.66
		c-7.393,7.393-17.005,11.093-28.823,11.093c-11.824,0-21.442-3.694-28.864-11.093C421.422,261.479,417.711,251.926,417.711,240.213
		z M431.707,240.213c0,9.43,2.388,16.999,7.159,22.7c4.771,5.701,11.052,8.546,18.843,8.546s14.06-2.845,18.802-8.546
		c4.741-5.701,7.118-13.27,7.118-22.7c0-9.489-2.371-17.099-7.118-22.818c-4.747-5.731-11.011-8.593-18.802-8.593
		c-7.739,0-14.008,2.892-18.802,8.669C434.107,223.249,431.707,230.829,431.707,240.213z"/>
	<path style="fill:#02AA8A;" d="M578.09,208.17v44.289c0,3.764,0.082,6.825,0.24,9.179c0.158,2.359,0.345,3.781,0.556,4.256
		c0.585,1.223,1.27,2.201,2.072,2.944c0.796,0.743,2.119,1.458,3.975,2.148c0.263,0.105,0.609,0.234,1.036,0.392
		c1.908,0.743,2.862,1.809,2.862,3.184c0,1.481-0.913,2.505-2.745,3.056s-5.631,0.837-11.409,0.837c-2.968,0-5.034-0.661-6.205-1.99
		c-1.165-1.323-1.75-3.682-1.75-7.077c0-0.263,0.023-0.714,0.082-1.346c0.053-0.632,0.082-1.112,0.082-1.428
		c-3.342,4.455-7.147,7.762-11.409,9.934c-4.267,2.172-9.155,3.266-14.669,3.266c-9.331,0-16.115-2.798-20.359-8.394
		c-4.244-5.59-6.357-14.64-6.357-27.155v-25.042c0-2.599-0.304-4.373-0.913-5.327s-1.82-2.02-3.618-3.184
		c-0.053,0-0.105-0.023-0.158-0.082c-2.178-1.27-3.26-2.546-3.26-3.811c0-1.54,1.616-3.015,4.853-4.414
		c3.231-1.405,6.837-2.107,10.812-2.107c1.75,0,2.997,0.632,3.74,1.908c0.738,1.27,1.112,3.53,1.112,6.755v35.625
		c0,8.798,1.51,15.26,4.531,19.399c3.02,4.133,7.739,6.205,14.154,6.205c6.205,0,11.116-1.75,14.751-5.251
		c3.629-3.5,5.45-8.265,5.45-14.306v-32.599c0-1.698-0.187-2.956-0.556-3.781c-0.369-0.82-0.978-1.499-1.826-2.025
		c-0.316-0.211-0.796-0.509-1.434-0.872c-2.33-1.329-3.5-2.628-3.5-3.899c0-1.698,1.616-3.307,4.853-4.853
		c3.231-1.534,6.626-2.306,10.18-2.306c1.75,0,2.997,0.585,3.74,1.75C577.721,203.212,578.09,205.249,578.09,208.17z"/>
	<path style="fill:#02AA8A;" d="M597.811,202.287h15.348c3.073,0,5.116,0.211,6.123,0.632c1.007,0.421,1.51,1.194,1.51,2.306
		c0,0.591-0.135,1.112-0.398,1.592c-0.263,0.474-0.638,0.872-1.112,1.188c-0.105,0.059-0.345,0.187-0.714,0.398
		c-3.711,2.283-5.567,4.531-5.567,6.755c0,3.237,1.03,7.99,3.102,14.271c2.066,6.281,4.929,13.241,8.587,20.868
		c1.856,3.817,3.588,6.972,5.21,9.46c1.616,2.494,3.19,4.373,4.73,5.649c1.645-1.639,3.29-3.74,4.929-6.281
		c1.639-2.54,3.313-5.59,5.011-9.143c3.547-7.317,6.398-14.324,8.546-21.038c2.148-6.708,3.22-11.543,3.22-14.511
		c0-1.487-1.112-3.05-3.337-4.695c-0.533-0.421-0.931-0.738-1.194-0.954c-1.165-0.896-1.867-1.586-2.107-2.066
		c-0.24-0.48-0.357-1.089-0.357-1.826c0-0.954,0.398-1.627,1.194-2.031c0.796-0.392,2.224-0.597,4.291-0.597h11.608
		c2.172,0,3.74,0.222,4.689,0.673c0.954,0.451,1.434,1.206,1.434,2.265c0,1.223-0.673,2.441-2.025,3.659
		c-1.352,1.223-2.137,2.072-2.347,2.546c-0.632,1.223-1.627,4.349-2.98,9.389c-1.352,5.04-2.64,9.278-3.857,12.72
		c-4.718,13.469-9.811,24.568-15.266,33.313c-5.456,8.745-9.858,13.118-13.2,13.118c-2.699,0-6.386-3.536-11.052-10.613
		c-4.665-7.071-9.301-16.256-13.914-27.547c-2.33-5.778-4.478-12.035-6.439-18.767c-1.961-6.726-3.179-10.519-3.659-11.368
		c-0.369-0.585-1.376-1.399-3.02-2.464c-1.645-1.06-2.464-2.23-2.464-3.5c0-1.218,0.421-2.09,1.27-2.622
		C594.445,202.55,595.85,202.287,597.811,202.287z"/>
	<path style="fill:#02AA8A;" d="M692.991,249.672c1.323,6.205,4.162,11.116,8.511,14.751c4.343,3.629,9.541,5.45,15.582,5.45
		c3.231,0,6.281-0.398,9.143-1.194c2.862-0.796,5.672-2.043,8.429-3.74c1.323-0.796,2.968-1.932,4.929-3.419
		c2.704-1.961,4.478-2.939,5.327-2.939c0.849,0,1.551,0.316,2.107,0.954c0.556,0.632,0.837,1.458,0.837,2.464
		c0,1.639-1.101,3.618-3.302,5.924c-2.195,2.306-5.128,4.519-8.786,6.644c-3.073,1.803-6.322,3.149-9.741,4.051
		c-3.419,0.896-7.013,1.346-10.777,1.346c-11.186,0-20.119-3.319-26.798-9.975c-6.679-6.656-10.016-15.547-10.016-26.681
		c0-12.193,3.963-22.408,11.889-30.65s17.69-12.363,29.298-12.363c8.851,0,15.664,1.826,20.435,5.491
		c4.771,3.664,7.153,8.827,7.153,15.5c0,7.902-4.414,14.142-13.235,18.726C725.151,244.597,711.489,247.817,692.991,249.672z
		 M691.797,241.483c14.418-1.376,25.007-3.799,31.762-7.276c6.761-3.471,10.139-8.148,10.139-14.031c0-3.922-1.364-6.995-4.092-9.22
		c-2.734-2.23-6.48-3.337-11.251-3.337c-7.791,0-14.166,3.02-19.124,9.061c-4.958,6.047-7.434,13.891-7.434,23.538L691.797,241.483
		L691.797,241.483z"/>
	<path style="fill:#02AA8A;" d="M768.205,264.142v-36.334c0-5.145-0.187-8.494-0.556-10.062c-0.369-1.563-1.06-2.716-2.072-3.46
		c-0.632-0.474-1.856-1.077-3.659-1.791s-2.704-1.68-2.704-2.903c0-1.428,1.604-3.337,4.812-5.725
		c3.208-2.388,5.848-3.577,7.914-3.577c1.481,0,2.833,1.1,4.057,3.296c1.218,2.201,2.306,5.497,3.26,9.899
		c3.395-4.343,7.305-7.633,11.731-9.863c4.425-2.224,9.266-3.337,14.511-3.337c8.956,0,15.647,2.933,20.078,8.786
		c4.425,5.86,6.638,14.775,6.638,26.757v28.782c0,1.75,0.105,2.997,0.316,3.741s0.609,1.299,1.194,1.668
		c0.48,0.316,1.165,0.714,2.072,1.188c2.172,1.165,3.261,2.388,3.261,3.659c0,1.007-0.41,1.727-1.229,2.148
		c-0.825,0.421-2.213,0.632-4.174,0.632h-16.22c-1.961,0-3.354-0.199-4.174-0.597c-0.825-0.398-1.229-1.077-1.229-2.031
		c0-1.329,0.872-2.382,2.622-3.179c0.527-0.269,0.901-0.451,1.112-0.562c1.856-0.896,2.968-1.75,3.342-2.546
		c0.369-0.796,0.556-2.277,0.556-4.455v-28.624c0-8.903-1.499-15.401-4.49-19.481c-2.997-4.08-7.727-6.123-14.195-6.123
		c-6.152,0-11.052,1.78-14.71,5.327c-3.659,3.547-5.485,8.347-5.485,14.394v36.334c0,1.112,0.082,1.949,0.24,2.505
		c0.158,0.562,0.451,1.024,0.872,1.393c0.48,0.316,1.247,0.743,2.306,1.27c2.066,1.065,3.102,2.201,3.102,3.419
		c0,1.112-0.41,1.885-1.229,2.312c-0.825,0.421-2.371,0.632-4.654,0.632h-15.108c-2.014,0-3.395-0.181-4.139-0.556
		s-1.112-1.007-1.112-1.908c0-0.796,0.187-1.446,0.556-1.949c0.369-0.503,1.27-1.153,2.699-1.949
		c0.211-0.105,0.503-0.263,0.872-0.474C767.198,269.709,768.205,267.485,768.205,264.142z"/>
	<path style="fill:#02AA8A;" d="M858.451,220.334c0-1.908-0.199-3.231-0.597-3.975c-0.398-0.743-1.177-1.487-2.341-2.23
		c-0.48-0.316-1.194-0.714-2.148-1.188c-1.908-0.954-2.862-1.961-2.862-3.026c0-0.796,0.281-1.51,0.837-2.142
		c0.556-0.638,1.522-1.329,2.903-2.072l1.112-0.632c6.468-3.395,10.759-5.093,12.884-5.093c1.112,0,1.879,0.509,2.306,1.516
		c0.422,1.007,0.632,3.337,0.632,6.995V264.3c0,1.376,0.158,2.523,0.48,3.419c0.316,0.901,0.796,1.516,1.434,1.826
		c0.738,0.322,1.639,0.691,2.704,1.112c2.757,1.112,4.133,2.412,4.133,3.899c0,1.165-0.451,1.973-1.352,2.423
		c-0.901,0.451-2.599,0.673-5.087,0.673h-17.093c-2.283,0-3.828-0.222-4.654-0.673c-0.82-0.451-1.229-1.206-1.229-2.271
		c0-0.796,0.211-1.481,0.638-2.066c0.422-0.585,1.194-1.141,2.306-1.668c0.422-0.211,1.007-0.48,1.75-0.796
		c2.172-0.901,3.26-2.763,3.26-5.567v-44.277H858.451z M854.078,176.999c0-2.441,0.861-4.431,2.581-5.971
		c1.721-1.534,3.963-2.306,6.72-2.306c2.704,0,4.888,0.773,6.562,2.306c1.668,1.54,2.505,3.53,2.505,5.971
		c0,2.546-0.849,4.566-2.546,6.082c-1.698,1.51-3.922,2.265-6.679,2.265c-2.81,0-5.034-0.755-6.679-2.265
		C854.898,181.571,854.078,179.545,854.078,176.999z"/>
	<path style="fill:#02AA8A;" d="M896.939,261.362v-34.993c0-3.337-0.252-5.696-0.755-7.077c-0.503-1.376-1.341-2.488-2.505-3.337
		c-0.849-0.685-2.119-1.399-3.817-2.142c-2.441-1.112-3.659-2.464-3.659-4.057c0-0.632,0.345-1.417,1.036-2.341
		c0.691-0.925,1.639-1.838,2.862-2.745c1.698-1.329,3.249-2.353,4.654-3.097s2.505-1.112,3.296-1.112
		c2.441,0,4.519,1.961,6.24,5.883c1.721,3.928,2.745,9.12,3.061,15.582c2.704-6.995,5.912-12.398,9.623-16.22
		s7.557-5.731,11.532-5.731c2.81,0,4.981,1.054,6.521,3.143c1.539,2.09,2.306,5.075,2.306,8.944c0,1.218-0.386,2.224-1.153,3.02
		c-0.767,0.796-1.762,1.194-2.979,1.194c-1.27,0-3.009-0.544-5.21-1.627c-2.201-1.089-3.752-1.627-4.648-1.627
		c-3.501,0-6.697,2.968-9.582,8.903c-2.892,5.941-4.332,13.177-4.332,21.711v17.415c0,3.337,0.199,5.508,0.597,6.515
		c0.398,1.013,1.1,1.727,2.107,2.148c0.796,0.322,2.043,0.691,3.741,1.112c3.231,0.849,4.853,2.142,4.853,3.893
		c0,1.065-0.41,1.82-1.235,2.271c-0.82,0.451-2.371,0.673-4.648,0.673h-20.359c-2.224,0-3.711-0.199-4.455-0.597
		c-0.743-0.398-1.112-1.124-1.112-2.189c0-1.376,1.194-2.646,3.577-3.811c1.27-0.638,2.195-1.141,2.781-1.516
		c0.638-0.421,1.077-1.06,1.311-1.908c0.24-0.849,0.363-2.277,0.363-4.291v-1.99H896.939z"/>
</g>
<g>
	<path style="fill:#022426;" d="M51.922,313.026c1.791,0.48,3.582,1.235,5.374,2.26c0.732,0.433,1.095,0.983,1.095,1.651
		c0,0.375-0.123,0.855-0.38,1.417c-0.41,0.866-0.937,1.305-1.563,1.305c-0.275,0-0.609-0.111-1.007-0.328
		c-2.974-1.774-6.023-2.658-9.155-2.658c-2.125,0-3.992,0.562-5.596,1.68c-1.604,1.124-2.845,2.728-3.717,4.8
		c-0.878,2.072-1.317,4.513-1.317,7.305s0.439,5.245,1.317,7.329c0.872,2.084,2.113,3.688,3.717,4.812
		c1.604,1.118,3.471,1.68,5.596,1.68c3.132,0,6.181-0.884,9.155-2.658c0.392-0.217,0.732-0.328,1.007-0.328
		c0.626,0,1.153,0.433,1.563,1.305c0.258,0.574,0.38,1.042,0.38,1.417c0,0.667-0.363,1.218-1.095,1.651
		c-1.791,1.024-3.582,1.78-5.374,2.26c-1.791,0.48-3.67,0.726-5.643,0.726c-3.009,0-5.666-0.755-7.955-2.265
		c-2.295-1.504-4.068-3.635-5.333-6.392c-1.264-2.757-1.891-5.936-1.891-9.541c0-3.6,0.626-6.773,1.891-9.524
		c1.259-2.745,3.038-4.87,5.333-6.375c2.295-1.51,4.946-2.265,7.955-2.265C48.252,312.301,50.131,312.546,51.922,313.026z"/>
	<path style="fill:#022426;" d="M88.32,321.895c2.16,1.223,3.852,2.921,5.081,5.093c1.229,2.178,1.844,4.636,1.844,7.37
		c0,2.74-0.615,5.198-1.844,7.37c-1.229,2.178-2.921,3.875-5.081,5.093c-2.154,1.223-4.572,1.832-7.247,1.832
		c-2.681,0-5.093-0.609-7.253-1.832c-2.154-1.218-3.846-2.915-5.081-5.093c-1.229-2.172-1.844-4.63-1.844-7.37
		c0-2.734,0.615-5.192,1.844-7.37c1.229-2.172,2.927-3.869,5.081-5.093c2.16-1.218,4.572-1.826,7.253-1.826
		C83.748,320.068,86.166,320.677,88.32,321.895z M76.021,325.694c-1.458,0.843-2.581,2.008-3.383,3.518
		c-0.796,1.504-1.194,3.225-1.194,5.151c0,1.932,0.398,3.647,1.194,5.157c0.796,1.504,1.926,2.675,3.383,3.518
		c1.458,0.837,3.143,1.253,5.052,1.253s3.594-0.416,5.052-1.253c1.458-0.843,2.581-2.014,3.383-3.518
		c0.796-1.51,1.194-3.225,1.194-5.157c0-1.926-0.398-3.647-1.194-5.151c-0.796-1.51-1.926-2.675-3.383-3.518
		c-1.458-0.837-3.143-1.253-5.052-1.253S77.479,324.857,76.021,325.694z"/>
	<path style="fill:#022426;" d="M129.015,320.859c0.328,0.299,0.486,0.79,0.486,1.481v24.035c0,0.685-0.146,1.182-0.445,1.475
		c-0.299,0.299-0.831,0.445-1.592,0.445h-0.059c-0.767,0-1.3-0.146-1.592-0.445c-0.293-0.293-0.445-0.79-0.445-1.475v-4.812
		c-1.34,2.066-3.044,3.764-5.11,5.093c-2.072,1.329-4.156,1.996-6.263,1.996c-2.974,0-5.274-0.855-6.907-2.57
		c-1.633-1.709-2.453-4.062-2.453-7.054v-16.689c0-0.691,0.164-1.182,0.486-1.481c0.322-0.293,0.89-0.439,1.698-0.439h0.059
		c0.808,0,1.376,0.146,1.698,0.439c0.328,0.299,0.486,0.79,0.486,1.481v16.238c0,1.774,0.439,3.167,1.317,4.18
		c0.872,1.013,2.23,1.522,4.057,1.522c1.698,0,3.36-0.539,5.005-1.604c1.645-1.077,2.991-2.535,4.045-4.373
		c1.054-1.838,1.58-3.84,1.58-6.006v-9.951c0-0.691,0.164-1.182,0.486-1.481c0.328-0.293,0.89-0.439,1.698-0.439h0.059
		C128.119,320.42,128.687,320.572,129.015,320.859z"/>
	<path style="fill:#022426;" d="M166.062,320.683c0.966,0.322,1.446,0.948,1.446,1.891c0,0.316-0.041,0.62-0.117,0.913
		c-0.176,0.65-0.386,1.136-0.632,1.463c-0.246,0.328-0.556,0.486-0.931,0.486c-0.217,0-0.433-0.041-0.65-0.117
		c-1.1-0.357-2.189-0.533-3.249-0.533c-2.265,0-4.39,0.685-6.375,2.066c-1.99,1.376-3.582,3.237-4.782,5.567
		c-1.2,2.33-1.803,4.87-1.803,7.604v6.351c0,0.685-0.164,1.182-0.486,1.475c-0.322,0.299-0.89,0.445-1.698,0.445h-0.059
		c-0.808,0-1.37-0.146-1.698-0.445c-0.322-0.293-0.486-0.79-0.486-1.475V322.34c0-0.691,0.146-1.182,0.445-1.481
		c0.293-0.293,0.825-0.439,1.592-0.439h0.059c0.767,0,1.3,0.146,1.592,0.439c0.299,0.299,0.445,0.79,0.445,1.481v6.942
		c1.715-2.892,3.74-5.157,6.088-6.779c2.341-1.621,4.823-2.435,7.44-2.435C163.469,320.068,164.757,320.273,166.062,320.683z"/>
	<path style="fill:#022426;" d="M192.357,321.175c0.287,0.304,0.427,0.825,0.427,1.551v21.026h9.477
		c0.667,0,1.147,0.164,1.434,0.486c0.287,0.328,0.427,0.872,0.427,1.639c0,0.767-0.14,1.317-0.427,1.639s-0.761,0.486-1.434,0.486
		H179.11c-0.667,0-1.147-0.158-1.434-0.486c-0.287-0.328-0.427-0.872-0.427-1.639c0-0.767,0.14-1.317,0.427-1.639
		c0.287-0.322,0.761-0.486,1.434-0.486h9.243v-18.779h-7.469c-0.667,0-1.147-0.164-1.434-0.492
		c-0.287-0.328-0.427-0.866-0.427-1.633c0-0.773,0.14-1.317,0.427-1.639c0.287-0.322,0.761-0.486,1.434-0.486h10.039
		C191.59,320.718,192.07,320.864,192.357,321.175z M192.193,314.999c-0.392,0.287-1.13,0.427-2.213,0.427s-1.82-0.14-2.213-0.427
		c-0.392-0.287-0.591-0.784-0.591-1.493v-3.834c0-0.708,0.193-1.206,0.591-1.493c0.398-0.287,1.13-0.427,2.213-0.427
		s1.82,0.14,2.213,0.427c0.392,0.287,0.591,0.784,0.591,1.493v3.834C192.784,314.22,192.585,314.718,192.193,314.999z"/>
	<path style="fill:#022426;" d="M233.684,321.795c2.008,1.153,3.547,2.745,4.624,4.771c1.071,2.025,1.686,4.379,1.844,7.054
		c0.041,0.65-0.094,1.118-0.398,1.405s-0.79,0.421-1.463,0.421h-21.383c0.135,2.939,0.966,5.157,2.482,6.661
		c1.516,1.51,3.653,2.265,6.41,2.265c1.967,0,3.893-0.228,5.772-0.679c1.879-0.451,3.5-1.077,4.859-1.861
		c0.334-0.176,0.638-0.263,0.913-0.263c0.375,0,0.714,0.141,1.019,0.427c0.304,0.287,0.55,0.691,0.726,1.223
		c0.14,0.357,0.211,0.708,0.211,1.065c0,0.79-0.433,1.387-1.3,1.803c-1.592,0.773-3.477,1.387-5.637,1.861
		c-2.166,0.468-4.355,0.708-6.556,0.708c-2.857,0-5.286-0.574-7.294-1.715c-2.008-1.141-3.536-2.786-4.578-4.935
		c-1.042-2.142-1.569-4.695-1.569-7.651c0-2.81,0.597-5.303,1.785-7.469c1.194-2.16,2.851-3.84,4.976-5.028
		c2.125-1.194,4.548-1.791,7.264-1.791C229.247,320.068,231.676,320.642,233.684,321.795z M220.338,326.197
		c-1.592,1.229-2.64,2.939-3.132,5.122h18.164c-0.416-2.242-1.376-3.969-2.88-5.169c-1.504-1.2-3.536-1.803-6.1-1.803
		C223.949,324.347,221.936,324.968,220.338,326.197z"/>
	<path style="fill:#022426;" d="M274.853,320.683c0.966,0.322,1.446,0.948,1.446,1.891c0,0.316-0.041,0.62-0.117,0.913
		c-0.176,0.65-0.386,1.136-0.632,1.463c-0.246,0.328-0.556,0.486-0.931,0.486c-0.217,0-0.433-0.041-0.65-0.117
		c-1.1-0.357-2.189-0.533-3.249-0.533c-2.265,0-4.39,0.685-6.375,2.066c-1.99,1.376-3.582,3.237-4.782,5.567
		c-1.2,2.33-1.803,4.87-1.803,7.604v6.351c0,0.685-0.164,1.182-0.486,1.475c-0.322,0.299-0.89,0.445-1.698,0.445h-0.059
		c-0.808,0-1.37-0.146-1.698-0.445c-0.322-0.293-0.486-0.79-0.486-1.475V322.34c0-0.691,0.146-1.182,0.445-1.481
		c0.293-0.293,0.825-0.439,1.592-0.439h0.059c0.767,0,1.3,0.146,1.592,0.439c0.299,0.299,0.445,0.79,0.445,1.481v6.942
		c1.715-2.892,3.74-5.157,6.088-6.779c2.341-1.621,4.823-2.435,7.44-2.435C272.26,320.068,273.547,320.273,274.853,320.683z"/>
	<path style="fill:#022426;" d="M342.609,314.425c1.92,0.989,3.372,2.365,4.355,4.139c0.983,1.774,1.475,3.822,1.475,6.17
		c0,2.324-0.492,4.367-1.475,6.129c-0.983,1.762-2.435,3.126-4.355,4.092c-1.92,0.96-4.226,1.446-6.925,1.446h-7.528v9.98
		c0,0.685-0.164,1.182-0.486,1.475c-0.322,0.299-0.89,0.445-1.698,0.445h-0.059c-0.808,0-1.376-0.146-1.703-0.445
		c-0.322-0.293-0.486-0.79-0.486-1.475v-31.422c0-0.726,0.14-1.241,0.427-1.551c0.287-0.304,0.761-0.457,1.434-0.457h2.57h7.528
		C338.382,312.95,340.689,313.442,342.609,314.425z M341.631,330.213c1.504-1.294,2.26-3.114,2.26-5.485
		c0-2.4-0.755-4.256-2.26-5.567s-3.694-1.961-6.574-1.961h-6.907v14.944h6.907C337.938,332.144,340.127,331.5,341.631,330.213z"/>
	<path style="fill:#022426;" d="M383.643,320.683c0.966,0.322,1.446,0.948,1.446,1.891c0,0.316-0.041,0.62-0.117,0.913
		c-0.176,0.65-0.386,1.136-0.632,1.463c-0.246,0.328-0.556,0.486-0.931,0.486c-0.217,0-0.433-0.041-0.65-0.117
		c-1.101-0.357-2.189-0.533-3.249-0.533c-2.265,0-4.39,0.685-6.375,2.066c-1.99,1.376-3.582,3.237-4.782,5.567
		c-1.2,2.33-1.803,4.87-1.803,7.604v6.351c0,0.685-0.164,1.182-0.486,1.475c-0.322,0.299-0.89,0.445-1.698,0.445h-0.059
		c-0.808,0-1.37-0.146-1.698-0.445c-0.322-0.293-0.486-0.79-0.486-1.475V322.34c0-0.691,0.146-1.182,0.445-1.481
		c0.293-0.293,0.825-0.439,1.592-0.439h0.059c0.767,0,1.3,0.146,1.592,0.439c0.299,0.299,0.445,0.79,0.445,1.481v6.942
		c1.715-2.892,3.74-5.157,6.088-6.779c2.341-1.621,4.823-2.435,7.44-2.435C381.056,320.068,382.343,320.273,383.643,320.683z"/>
	<path style="fill:#022426;" d="M409.943,321.175c0.287,0.304,0.427,0.825,0.427,1.551v21.026h9.477
		c0.667,0,1.147,0.164,1.434,0.486c0.287,0.328,0.427,0.872,0.427,1.639c0,0.767-0.141,1.317-0.427,1.639s-0.761,0.486-1.434,0.486
		h-23.151c-0.667,0-1.147-0.158-1.434-0.486c-0.287-0.328-0.427-0.872-0.427-1.639c0-0.767,0.141-1.317,0.427-1.639
		c0.287-0.322,0.761-0.486,1.434-0.486h9.243v-18.779h-7.469c-0.667,0-1.147-0.164-1.434-0.492
		c-0.287-0.328-0.427-0.866-0.427-1.633c0-0.773,0.141-1.317,0.427-1.639s0.761-0.486,1.434-0.486h10.039
		C409.177,320.718,409.657,320.864,409.943,321.175z M409.78,314.999c-0.392,0.287-1.13,0.427-2.213,0.427s-1.82-0.14-2.213-0.427
		c-0.392-0.287-0.591-0.784-0.591-1.493v-3.834c0-0.708,0.193-1.206,0.591-1.493c0.398-0.287,1.13-0.427,2.213-0.427
		s1.82,0.14,2.213,0.427c0.392,0.287,0.591,0.784,0.591,1.493v3.834C410.371,314.22,410.172,314.718,409.78,314.999z"/>
	<path style="fill:#022426;" d="M455.327,320.935c0.919,0.585,1.645,1.469,2.189,2.658c0.539,1.194,0.814,2.652,0.814,4.384v18.404
		c0,0.685-0.164,1.182-0.486,1.475c-0.328,0.299-0.89,0.445-1.698,0.445h-0.059c-0.808,0-1.376-0.146-1.698-0.445
		c-0.328-0.293-0.486-0.79-0.486-1.475v-17.871c0-1.352-0.222-2.371-0.661-3.05c-0.439-0.679-1.159-1.019-2.142-1.019
		c-0.925,0-1.785,0.421-2.57,1.282c-0.79,0.855-1.411,2.055-1.873,3.571c-0.462,1.528-0.697,3.266-0.697,5.216v11.871
		c0,0.685-0.164,1.182-0.486,1.475c-0.328,0.299-0.89,0.445-1.703,0.445h-0.064c-0.808,0-1.376-0.146-1.698-0.445
		c-0.328-0.293-0.486-0.79-0.486-1.475v-17.871c0-1.352-0.222-2.371-0.661-3.05c-0.439-0.679-1.159-1.019-2.142-1.019
		c-0.925,0-1.785,0.421-2.57,1.282c-0.79,0.855-1.411,2.055-1.873,3.571c-0.462,1.528-0.697,3.266-0.697,5.216v11.871
		c0,0.685-0.164,1.182-0.486,1.475c-0.322,0.299-0.89,0.445-1.698,0.445h-0.059c-0.808,0-1.376-0.146-1.698-0.445
		c-0.328-0.293-0.486-0.79-0.486-1.475v-24.035c0-0.691,0.135-1.182,0.398-1.481c0.263-0.293,0.761-0.439,1.487-0.439h0.059
		c0.732,0,1.223,0.146,1.493,0.439c0.263,0.299,0.398,0.79,0.398,1.481v3.301c0.849-1.844,1.861-3.243,3.044-4.18
		c1.182-0.931,2.458-1.399,3.84-1.399c1.34,0,2.511,0.451,3.512,1.358c1.001,0.901,1.686,2.236,2.037,3.986
		c1.75-3.559,4.016-5.344,6.79-5.344C453.378,320.068,454.414,320.361,455.327,320.935z"/>
	<path style="fill:#022426;" d="M487.534,321.795c2.008,1.153,3.547,2.745,4.624,4.771c1.071,2.025,1.686,4.379,1.844,7.054
		c0.041,0.65-0.094,1.118-0.398,1.405s-0.79,0.421-1.463,0.421h-21.383c0.135,2.939,0.966,5.157,2.482,6.661
		c1.516,1.51,3.653,2.265,6.41,2.265c1.967,0,3.893-0.228,5.772-0.679c1.879-0.451,3.5-1.077,4.859-1.861
		c0.334-0.176,0.638-0.263,0.913-0.263c0.375,0,0.714,0.141,1.019,0.427c0.304,0.287,0.55,0.691,0.726,1.223
		c0.141,0.357,0.211,0.708,0.211,1.065c0,0.79-0.433,1.387-1.299,1.803c-1.592,0.773-3.477,1.387-5.637,1.861
		c-2.166,0.468-4.355,0.708-6.556,0.708c-2.857,0-5.286-0.574-7.294-1.715c-2.008-1.141-3.536-2.786-4.578-4.935
		c-1.042-2.142-1.569-4.695-1.569-7.651c0-2.81,0.597-5.303,1.785-7.469c1.194-2.16,2.851-3.84,4.976-5.028
		c2.125-1.194,4.548-1.791,7.264-1.791C483.091,320.068,485.526,320.642,487.534,321.795z M474.187,326.197
		c-1.592,1.229-2.64,2.939-3.132,5.122h18.164c-0.416-2.242-1.376-3.969-2.88-5.169c-1.504-1.2-3.536-1.803-6.1-1.803
		C477.799,324.347,475.78,324.968,474.187,326.197z"/>
	<path style="fill:#022426;" d="M559.621,313.026c1.791,0.48,3.582,1.235,5.374,2.26c0.732,0.433,1.095,0.983,1.095,1.651
		c0,0.375-0.123,0.855-0.38,1.417c-0.41,0.866-0.937,1.305-1.563,1.305c-0.275,0-0.609-0.111-1.007-0.328
		c-2.974-1.774-6.023-2.658-9.155-2.658c-2.125,0-3.992,0.562-5.596,1.68c-1.604,1.124-2.845,2.728-3.717,4.8
		c-0.878,2.072-1.317,4.513-1.317,7.305s0.439,5.245,1.317,7.329c0.872,2.084,2.113,3.688,3.717,4.812
		c1.604,1.118,3.471,1.68,5.596,1.68c3.132,0,6.181-0.884,9.155-2.658c0.392-0.217,0.732-0.328,1.007-0.328
		c0.626,0,1.153,0.433,1.563,1.305c0.258,0.574,0.38,1.042,0.38,1.417c0,0.667-0.363,1.218-1.095,1.651
		c-1.791,1.024-3.582,1.78-5.374,2.26c-1.791,0.48-3.67,0.726-5.643,0.726c-3.009,0-5.666-0.755-7.955-2.265
		c-2.295-1.504-4.068-3.635-5.333-6.392s-1.891-5.936-1.891-9.541c0-3.6,0.626-6.773,1.891-9.524
		c1.258-2.745,3.038-4.87,5.333-6.375c2.295-1.51,4.946-2.265,7.955-2.265C555.945,312.301,557.824,312.546,559.621,313.026z"/>
	<path style="fill:#022426;" d="M596.014,321.895c2.16,1.223,3.852,2.921,5.081,5.093c1.229,2.178,1.844,4.636,1.844,7.37
		c0,2.74-0.615,5.198-1.844,7.37c-1.229,2.178-2.921,3.875-5.081,5.093c-2.154,1.223-4.572,1.832-7.247,1.832
		c-2.681,0-5.093-0.609-7.253-1.832c-2.154-1.218-3.846-2.915-5.081-5.093c-1.229-2.172-1.844-4.63-1.844-7.37
		c0-2.734,0.615-5.192,1.844-7.37c1.229-2.172,2.927-3.869,5.081-5.093c2.16-1.218,4.572-1.826,7.253-1.826
		C591.442,320.068,593.859,320.677,596.014,321.895z M583.715,325.694c-1.458,0.843-2.581,2.008-3.383,3.518
		c-0.796,1.504-1.194,3.225-1.194,5.151c0,1.932,0.398,3.647,1.194,5.157c0.796,1.504,1.926,2.675,3.383,3.518
		c1.458,0.837,3.143,1.253,5.052,1.253s3.594-0.416,5.052-1.253c1.458-0.843,2.581-2.014,3.383-3.518
		c0.796-1.51,1.194-3.225,1.194-5.157c0-1.926-0.398-3.647-1.194-5.151c-0.796-1.51-1.926-2.675-3.383-3.518
		c-1.458-0.837-3.143-1.253-5.052-1.253S585.173,324.857,583.715,325.694z"/>
	<path style="fill:#022426;" d="M637.001,309.403c0.328,0.299,0.486,0.79,0.486,1.475v35.497c0,0.685-0.146,1.182-0.445,1.475
		c-0.293,0.299-0.825,0.445-1.592,0.445h-0.059c-0.767,0-1.299-0.146-1.592-0.445c-0.293-0.293-0.445-0.79-0.445-1.475v-2.751
		c-1.241,1.616-2.675,2.857-4.308,3.723c-1.633,0.866-3.413,1.305-5.344,1.305c-2.441,0-4.624-0.579-6.544-1.733
		c-1.92-1.147-3.424-2.804-4.513-4.958c-1.095-2.16-1.639-4.695-1.639-7.61c0-2.909,0.544-5.45,1.639-7.604
		c1.095-2.154,2.599-3.805,4.513-4.964c1.92-1.147,4.103-1.727,6.544-1.727c3.7,0,6.825,1.621,9.36,4.87v-14.055
		c0-0.685,0.164-1.177,0.486-1.475c0.322-0.299,0.89-0.439,1.698-0.439h0.059C636.111,308.964,636.679,309.11,637.001,309.403z
		 M619.463,325.694c-1.27,0.843-2.236,2.008-2.909,3.518c-0.673,1.504-1.007,3.225-1.007,5.151c0,1.932,0.334,3.647,1.007,5.157
		c0.667,1.504,1.639,2.675,2.909,3.518c1.27,0.837,2.78,1.253,4.531,1.253c1.75,0,3.313-0.392,4.683-1.182
		c1.364-0.784,2.441-1.926,3.219-3.424c0.779-1.493,1.165-3.266,1.165-5.315c0-2.049-0.386-3.817-1.165-5.315
		c-0.779-1.493-1.85-2.634-3.219-3.424c-1.37-0.784-2.927-1.177-4.683-1.177S620.734,324.857,619.463,325.694z"/>
	<path style="fill:#022426;" d="M668.857,321.795c2.008,1.153,3.547,2.745,4.624,4.771c1.071,2.025,1.686,4.379,1.844,7.054
		c0.041,0.65-0.094,1.118-0.398,1.405c-0.304,0.287-0.79,0.421-1.463,0.421H652.08c0.135,2.939,0.966,5.157,2.482,6.661
		c1.516,1.51,3.653,2.265,6.41,2.265c1.967,0,3.893-0.228,5.772-0.679c1.879-0.451,3.5-1.077,4.859-1.861
		c0.334-0.176,0.638-0.263,0.913-0.263c0.375,0,0.714,0.141,1.019,0.427c0.304,0.287,0.55,0.691,0.726,1.223
		c0.141,0.357,0.211,0.708,0.211,1.065c0,0.79-0.433,1.387-1.299,1.803c-1.592,0.773-3.477,1.387-5.637,1.861
		c-2.166,0.468-4.355,0.708-6.556,0.708c-2.857,0-5.286-0.574-7.294-1.715c-2.008-1.141-3.536-2.786-4.578-4.935
		c-1.042-2.142-1.569-4.695-1.569-7.651c0-2.81,0.597-5.303,1.785-7.469c1.194-2.16,2.851-3.84,4.976-5.028
		c2.125-1.194,4.548-1.791,7.264-1.791C664.414,320.068,666.843,320.642,668.857,321.795z M655.504,326.197
		c-1.592,1.229-2.64,2.939-3.132,5.122h18.164c-0.416-2.242-1.376-3.969-2.88-5.169c-1.504-1.2-3.536-1.803-6.1-1.803
		C659.122,324.347,657.102,324.968,655.504,326.197z"/>
</g>
<g>
	<g>
		<path style="fill:#F94A28;" d="M81.255,42.716c3.647,0,8.142,11.912,8.142,21.881c0,10.332-5.59,26.014-12.767,35.497
			c-7.171,9.36-19.083,17.625-25.528,17.625c-4.379,0-7.177-1.458-12.521-6.568c-6.076-5.713-7.54-8.142-7.54-12.398
			c0-5.35,2.066-17.14,4.016-22.976C39.19,63.62,47.333,51.344,57.179,42.593c3.893-3.53,7.054-5.473,8.634-5.473
			c2.189,0,3.893,1.58,8.634,8.025C80.283,42.716,80.283,42.716,81.255,42.716z M64.724,62.168
			c-2.675,3.77-8.025,13.493-9.723,17.748c-4.133,9.969-5.836,15.073-5.836,17.748c0,1.34,0.609,2.189,1.58,2.189
			c1.703,0,4.864-3.893,10.7-13.253c5.959-9.606,9.12-17.385,9.12-22.613c0-2.189-1.34-4.741-2.435-4.864
			C67.399,59.007,65.941,60.341,64.724,62.168z"/>
		<path style="fill:#F94A28;" d="M112.39,42.47c0.972-2.675,3.647-4.133,7.54-4.133c3.407,0,9.237,5.713,9.237,9.12
			c0,1.095-0.849,3.524-2.915,7.78c-2.435,4.987-4.741,10.215-5.11,10.94c0,0.123-1.458,3.284-4.379,9.606
			c-0.246,0.486-0.972,1.943-1.703,3.284c4.741-0.246,6.199-1.58,13.979-13.253c2.921-4.133,3.77-4.987,4.987-4.987
			c2.066,0,5.104,1.703,6.076,3.284c1.218,2.189,2.189,5.59,2.189,7.294c0,1.943,0,1.943-4.379,8.511
			c-3.278,4.981-3.278,4.981-6.679,7.048c-3.407,2.066-3.77,2.312-5.596,3.161c-0.246,1.463-0.363,2.921-0.363,3.407
			c0,4.864,1.34,10.092,4.624,17.385c0.363,0.855,0.609,1.58,0.609,2.066c0,1.463-0.972,2.066-3.893,2.558
			c-1.943,0.363-6.076,1.458-8.025,2.312c-1.095,0.486-2.189,0.849-2.675,0.849c-3.044,0-6.445-10.455-6.445-19.569l0.123-7.417
			v-2.429c-2.066,4.256-2.798,5.959-7.054,17.871c-1.095,3.284-1.943,5.227-2.552,6.199c-0.363,0.609-0.363,0.609-2.552,1.34
			c-1.826,0.609-2.798,0.855-3.161,0.855c-1.703,0-2.552-0.732-3.893-3.161c-1.095-1.949-1.095-2.066-3.407-3.77
			c-1.58-1.218-2.552-2.675-2.552-3.647c0-0.849,0.363-1.826,1.095-3.161c0.246-0.486,0.849-1.943,1.943-4.256
			c1.095-2.675,4.741-10.332,7.662-15.928c5.959-11.672,6.199-12.275,10.209-22.244c2.066-5.104,3.647-8.634,4.379-10.332
			c0.978-2.189,1.58-3.77,1.826-4.379L112.39,42.47z"/>
		<path style="fill:#F94A28;" d="M180.234,108.119c-0.486,8.265-1.095,9.729-4.133,9.729c-1.218,0-2.921-0.486-6.685-1.703
			c-1.095-0.486-3.77-1.34-5.11-1.703c-1.34-0.486-1.826-0.978-1.826-1.949c0-0.363,0-0.855,0.246-1.458
			c-7.54,4.619-9.114,5.35-11.672,5.35c-2.066,0-4.133-1.218-6.562-3.77c-4.133-4.133-5.959-8.148-5.959-13.253
			c0-10.092,5.227-22.004,12.884-29.42c6.322-6.199,15.196-11.789,18.357-11.789c1.218,0,1.218,0.123,4.016,5.104
			c0.363,0.486,0.609,1.218,1.095,1.826c0.363-0.972,0.732-1.943,0.855-2.189c1.463-3.893,2.675-5.104,4.987-5.104
			c2.921,0,6.808,2.435,13.253,8.634C185.707,82.591,180.966,96.933,180.234,108.119z M165.887,91.342
			c0.609-2.066,1.218-4.016,1.826-5.959c0.732-2.435,1.34-4.016,2.798-7.417c-3.038,0.246-5.713,2.066-8.025,5.227
			c-3.038,4.256-5.713,10.455-5.713,13.13c0,0.972,0.363,1.458,1.095,1.458c1.095,0,2.066-0.732,6.082-4.016
			c0.246-0.123,0.849-0.732,1.58-1.218L165.887,91.342z"/>
		<path style="fill:#F94A28;" d="M227.778,64.357c0.486-2.066,0.972-2.675,1.943-2.675c0.732,0,2.189,0.486,4.379,1.463
			c3.77,1.82,6.322,5.836,6.322,10.209c0,5.596-2.921,12.644-10.332,24.802c-10.215,16.777-20.546,29.538-31.364,38.295
			c-5.836,4.864-7.54,5.836-9.606,5.836c-2.189,0-3.284-0.732-4.501-2.675c-0.972-1.949-1.703-3.161-1.826-3.284
			c-0.609-0.609-1.34-1.34-1.943-2.066c-1.095-1.095-1.703-2.189-1.703-3.161c0-0.732,0.486-2.558,0.732-3.044
			c0.486-0.732,0.486-0.732,4.501-2.189c5.713-2.435,8.874-5.227,15.436-13.493c-5.713-3.647-6.808-4.987-6.808-8.265
			c0-6.205,2.798-25.651,4.981-34.402c1.58-6.562,2.798-8.511,5.35-8.511c2.312,0,5.227,1.458,9.846,4.741
			c3.038,2.312,3.893,3.284,3.893,4.864c0,0.732-0.246,2.066-0.732,3.284c-4.016,10.7-5.959,18.234-6.199,24.433
			C216.714,89.03,219.998,82.708,227.778,64.357z"/>
		<path style="fill:#F94A28;" d="M253.44,114.804c-1.826,2.435-2.558,3.044-3.53,3.044c-1.218,0-3.647-1.703-6.808-4.864
			c-3.161-3.161-4.619-5.59-4.619-7.294c0-2.189,0.855-3.893,11.063-22.244c4.619-8.388,8.265-17.871,8.997-23.701
			c-3.161-1.949-3.524-2.798-3.524-8.388c0-6.199,0.732-8.634,3.038-9.483c4.01-1.58,13.616-2.921,21.032-2.921
			c6.685,0,11.789,1.826,15.196,5.473c4.987,5.35,9.729,15.319,9.729,20.423c0,4.741-3.77,16.291-8.148,25.165
			c-4.864,9.723-12.884,18.597-20.546,22.853c-4.741,2.675-10.455,4.987-12.158,4.987c-1.218,0-2.552-0.732-5.35-3.161
			c-0.363-0.363-1.463-1.218-2.675-2.066C254.412,113.586,253.68,114.558,253.44,114.804z M276.779,61.922
			c0,2.066-2.066,9.606-4.379,16.045c-2.066,5.836-4.379,10.578-9.114,19.206c4.01-0.123,7.294-2.798,11.789-9.606
			c6.199-9.36,10.818-20.663,10.818-26.5c0-3.407-2.312-4.987-7.294-4.987c-2.312,0-3.77,0.246-7.054,1.095
			C275.075,58.398,276.779,59.979,276.779,61.922z"/>
	</g>
</g>
<rect x="57.248" y="396.495" transform="matrix(-0.7071 -0.7071 0.7071 -0.7071 -174.315 843.7126)" style="fill:#FFFFFF;" width="60.667" height="122.926"/>
<rect x="142.686" y="396.498" transform="matrix(-0.7071 -0.7071 0.7071 -0.7071 -28.4643 904.131)" style="fill:#02AA8A;" width="60.667" height="122.926"/>
<rect x="228.12" y="396.496" transform="matrix(-0.7071 -0.7071 0.7071 -0.7071 117.3813 964.539)" style="fill:#058F74;" width="60.667" height="122.926"/>
<rect x="399.022" y="396.495" transform="matrix(-0.7071 -0.7071 0.7071 -0.7071 409.1305 1085.3829)" style="fill:#F94A28;" width="60.667" height="122.926"/>
<rect x="484.456" y="396.493" transform="matrix(-0.7071 -0.7071 0.7071 -0.7071 554.9771 1145.7914)" style="fill:#E0351E;" width="60.667" height="122.926"/>
<rect x="312.958" y="396.493" transform="matrix(-0.7071 -0.7071 0.7071 -0.7071 262.2104 1024.5233)" style="fill:#015B60;" width="60.667" height="122.926"/>
<rect x="570.732" y="396.495" transform="matrix(-0.7071 -0.7071 0.7071 -0.7071 702.2577 1206.7999)" style="fill:#022426;" width="60.667" height="122.926"/>
</svg>
