<?xml version="1.0" encoding="utf-8"?>
<!DOCTYPE svg PUBLIC "-//W3C//DTD SVG 1.1//EN" "http://www.w3.org/Graphics/SVG/1.1/DTD/svg11.dtd">
<svg version="1.1" id="Layer_1" xmlns="http://www.w3.org/2000/svg" xmlns:xlink="http://www.w3.org/1999/xlink" x="0px" y="0px" viewBox="0 0 360 90"
	 xml:space="preserve">
<g>
	<path style="fill:#F94A28;" d="M24.749,63.9v7.695h13.486l-0.007,0.256c0,1.826-0.282,4.16-1.623,4.913
		c-0.739,0.415-3.021,1.112-10.005,1.112c-6.799,0-9.344-0.711-10.281-1.307c-1.165-0.741-1.781-2.794-1.781-5.958l-0.079-4.706
		l0.04-3.724c0-3.215,0.623-5.311,1.801-6.06c0.775-0.493,3.179-1.32,10.576-1.32c6.871,0,9.018,0.486,9.687,0.776
		c0.883,0.383,1.405,1.543,1.55,3.449l0.089,1.165h12.756v-1.261c0-5.297-1.639-8.806-4.873-10.431
		c-2.993-1.503-9.237-2.234-19.091-2.234c-7.496,0-12.693,0.46-15.888,1.406c-3.355,0.993-5.896,2.957-7.557,5.841
		c-1.331,2.345-1.977,7.563-1.977,15.953c0,6.751,1.71,11.339,5.083,13.637C9.92,85.328,16.2,86.41,25.851,86.41
		c10.447,0,17.053-0.805,20.197-2.462c3.362-1.772,5.068-5.624,5.068-11.476l-0.183-8.574H24.749V63.9z"/>
	<path style="fill:#F94A28;" d="M96.974,67.256c1.48-1.628,2.2-4.413,2.2-8.514c0-4.56-1.458-7.789-4.334-9.599
		c-2.727-1.716-7.408-2.55-14.31-2.55H52.743v39.494h12.73v-12.46h13.441c6.938,0,6.938,3.236,6.938,4.454v8.006h12.73v-9.413
		c0-2.69-0.956-5.802-4.814-7.397C95.175,68.736,96.237,68.065,96.974,67.256z M65.473,55.019h14.112
		c4.127,0,5.368,0.619,5.708,0.885c0.299,0.232,0.993,1.098,0.993,4.111c0,2.121-0.419,3.557-1.21,4.151
		c-0.515,0.386-2.005,1.034-6.201,1.034H65.473V55.019z"/>
	<rect x="101.24" y="46.593" style="fill:#F94A28;" width="12.73" height="39.494"/>
	<path style="fill:#F94A28;" d="M157.503,49.428c-2.777-1.908-7.826-2.835-15.436-2.835h-25.62v39.494h12.73V74.141h10.775
		l2.351-0.027c7.684,0,12.711-0.868,15.366-2.652c2.776-1.867,4.184-5.535,4.184-10.906
		C161.854,55.156,160.39,51.412,157.503,49.428z M148.965,60.692c0,2.202-0.432,3.62-1.249,4.099
		c-0.589,0.345-2.434,0.924-8.172,0.924h-10.367V55.019h11.392c5.537,0,6.993,0.619,7.361,0.886
		C148.174,56.079,148.965,56.943,148.965,60.692z"/>
	<path style="fill:#F94A28;" d="M204.37,49.428c-2.777-1.908-7.826-2.835-15.436-2.835h-25.62v39.494h12.73V74.141h10.775
		l2.351-0.027c7.684,0,12.711-0.868,15.366-2.652c2.776-1.867,4.184-5.535,4.184-10.906C208.72,55.156,207.256,51.412,204.37,49.428
		z M195.831,60.692c0,2.202-0.432,3.62-1.249,4.099c-0.589,0.345-2.434,0.924-8.172,0.924h-10.367V55.019h11.392
		c5.537,0,6.993,0.619,7.361,0.886C195.04,56.079,195.831,56.943,195.831,60.692z"/>
	<polygon style="fill:#F94A28;" points="222.855,69.726 248.081,69.726 248.081,62.031 222.855,62.031 222.855,55.019
		249.46,55.019 249.46,46.592 210.124,46.592 210.124,86.086 249.697,86.086 249.697,77.66 222.855,77.66 	"/>
	<path style="fill:#F94A28;" d="M295.482,67.256c1.48-1.628,2.201-4.413,2.201-8.514c0-4.56-1.458-7.789-4.334-9.599
		c-2.727-1.716-7.408-2.55-14.31-2.55h-27.788v39.494h12.73v-12.46h13.441c6.938,0,6.938,3.236,6.938,4.454v8.006h12.73v-9.413
		c0-2.69-0.956-5.802-4.814-7.397C293.684,68.736,294.746,68.065,295.482,67.256z M263.982,55.019h14.112
		c4.127,0,5.367,0.619,5.708,0.885c0.298,0.232,0.992,1.098,0.992,4.111c0,2.121-0.418,3.557-1.21,4.151
		c-0.515,0.386-2.005,1.034-6.201,1.034h-13.402V55.019z"/>
	<path style="fill:#F94A28;" d="M340.318,64.484c-2.547-1.368-7.812-2.188-16.099-2.506c-8.664-0.323-10.969-0.764-11.573-0.999
		c-0.878-0.341-1.009-2.04-1.009-3.023c0-1.869,0.774-2.43,1.448-2.708c0.91-0.376,3.211-0.826,8.997-0.826
		c5.098,0,6.735,0.422,7.257,0.674c0.836,0.404,1.168,1.766,1.298,2.862c0.007,0.223,0.037,0.508,0.092,0.868l0.166,1.068h12.313
		v-2.669c0-4.342-1.663-7.323-4.943-8.861c-3.01-1.41-8.535-2.097-16.892-2.097c-8.822,0-14.596,0.749-17.654,2.288
		c-3.298,1.66-4.97,4.942-4.97,9.753c0,4.704,1.415,7.856,4.207,9.37c2.56,1.388,8.078,2.235,16.864,2.589l5.641,0.244
		c3.864,0.154,5.168,0.621,5.6,0.885c0.555,0.34,0.836,1.176,0.836,2.487c0,1.31-0.212,2.983-1.221,3.518
		c-0.603,0.32-2.465,0.855-8.16,0.855c-7.418,0-9.608-0.477-10.253-0.76c-1.006-0.442-1.217-2.194-1.217-3.586l-0.101-2.047h-12.431
		l0.077,2.615c0,4.791,1.632,8.049,4.848,9.684c2.979,1.513,8.678,2.249,17.421,2.249c9.703,0,15.862-0.751,18.832-2.296
		c3.196-1.663,4.817-5.243,4.817-10.639C344.509,69.005,343.099,65.979,340.318,64.484z"/>
	<g>
		<g>
			<path style="fill:#D4F9EF;" d="M281.281,11.783c-1.054,0-1.784,0.082-3.891,0.243c0.81,1.946,1.053,2.757,1.053,3.567
				s-0.324,1.622-1.459,3.972c-5.756,14.025-9.891,25.295-11.35,31.132c-0.405,1.54-0.974,2.27-1.865,2.27
				c-0.568,0-3.567-0.973-4.54-1.459c-2.432-1.216-4.378-4.297-4.378-6.972c0-2.514,0.73-4.621,6.162-17.836
				c3.487-8.35,5.351-13.053,5.757-13.945c-2.595,0.486-3.567,0.729-4.621,1.135c-0.648,0.325-1.216,0.486-1.621,0.486
				c-0.648,0-0.973-0.568-1.297-1.946c-0.487-2.351-0.973-5.918-0.973-6.891c0-1.54,0.486-2.108,2.189-2.595
				C264.987,1.729,273.013,1,281.12,1c1.703,0,2.595,0.324,3.324,1.298c1.297,1.621,2.108,2.675,2.513,3.161
				c0.892,1.135,1.135,1.459,1.135,1.946c0,0.486-0.648,1.865-1.46,3.243c-0.648,0.973-1.053,1.297-2.108,1.297
				c-0.082,0-0.973-0.081-2.108-0.162L281.281,11.783L281.281,11.783z"/>
			<path style="fill:#F94A28;" d="M263.77,53.467c-0.729,0-3.838-1.05-4.763-1.512c-2.61-1.305-4.655-4.563-4.655-7.419
				c0-2.615,0.695-4.637,6.199-18.026c2.015-4.824,3.486-8.428,4.449-10.786c0.401-0.984,0.716-1.753,0.943-2.302
				c-1.864,0.364-2.717,0.589-3.614,0.935c-0.663,0.333-1.301,0.52-1.802,0.52c-1.14,0-1.506-1.151-1.783-2.331
				c-0.472-2.279-0.986-5.939-0.986-7.006c0-1.754,0.644-2.53,2.551-3.076c4.528-1.212,12.499-1.964,20.811-1.964
				c1.896,0,2.906,0.406,3.725,1.498c0.623,0.778,1.14,1.434,1.551,1.955c0.429,0.544,0.74,0.939,0.946,1.187
				c0.913,1.161,1.251,1.592,1.251,2.266c0,0.834-1.17,2.887-1.528,3.497c-0.715,1.075-1.245,1.543-2.538,1.543
				c-0.038,0-0.24-0.015-0.556-0.041c-0.383-0.031-0.946-0.077-1.587-0.123l-1.102,0.001c-0.808,0-1.431,0.05-2.67,0.149
				l-0.498,0.04c0.638,1.585,0.831,2.338,0.831,3.122c0,0.924-0.34,1.768-1.509,4.19c-5.864,14.291-9.888,25.322-11.315,31.035
				C265.819,51.959,265.251,53.467,263.77,53.467z M267.622,12.086l-0.397,0.876c-0.17,0.375-0.599,1.426-1.299,3.141
				c-0.964,2.358-2.437,5.966-4.451,10.79c-5.379,13.085-6.123,15.229-6.123,17.643c0,2.467,1.841,5.394,4.103,6.524
				c0.966,0.483,3.878,1.406,4.315,1.407c0.411,0,0.939-0.216,1.382-1.897c1.438-5.752,5.477-16.833,11.371-31.194
				c1.158-2.401,1.422-3.104,1.422-3.783c0-0.727-0.228-1.484-1.016-3.375l-0.266-0.638l1.864-0.146
				c1.269-0.102,1.905-0.152,2.754-0.152l1.137,0c0.681,0.047,1.247,0.093,1.633,0.125c0.261,0.021,0.434,0.036,0.483,0.037
				c0.812,0,1.08-0.171,1.683-1.074c0.943-1.606,1.375-2.706,1.375-2.966c0-0.302-0.168-0.542-1.028-1.636
				c-0.2-0.241-0.518-0.644-0.954-1.197c-0.41-0.52-0.926-1.173-1.557-1.961c-0.624-0.833-1.362-1.11-2.934-1.11
				c-8.23,0-16.103,0.739-20.544,1.928c-1.578,0.452-1.817,0.879-1.817,2.112c0,0.914,0.476,4.438,0.962,6.791
				c0.336,1.426,0.593,1.546,0.808,1.546c0.337,0,0.847-0.158,1.398-0.434c1.144-0.443,2.155-0.692,4.752-1.179L267.622,12.086z"/>
		</g>
		<g>
			<path style="fill:#D4F9EF;" d="M293.169,19.98c2.432,1.945,3.648,3.648,3.648,5.108c0,0.892,0,0.892-1.54,3.486
				c-2.676,5.757-4.135,9.567-7.134,19.133c-0.243,0.729-0.486,1.54-0.729,2.351c-0.324,1.054-0.648,2.027-0.729,2.27
				c-0.568,2.027-1.621,2.919-3.487,2.919c-0.648,0-1.054-0.243-1.945-1.216c-0.892-0.892-1.216-1.054-2.757-1.459
				c-1.297-0.324-1.621-0.568-2.513-1.864c-0.486-0.648-0.729-1.379-0.648-1.946c0.163-2.027,2.27-7.62,8.594-22.376
				c3.081-7.215,3.892-8.594,5.108-8.594C289.926,17.79,291.304,18.52,293.169,19.98z M299.006,4.333
				c0.973,0.648,1.621,1.054,1.784,1.135c0.405,0.243,0.648,0.405,0.973,0.568c1.054,0.568,1.46,1.135,1.46,2.189
				c0,0.649-0.405,1.622-1.054,2.675c-0.648,0.973-1.054,1.622-1.135,1.703c-0.243,0.406-0.568,1.216-0.973,2.189
				c-0.73,2.189-1.46,2.999-2.432,2.999c-0.811,0-3-1.297-5.594-3.324c-1.865-1.378-2.351-2.189-2.27-3.324
				c0.082-1.297,1.703-6.081,2.595-7.621c0.73-1.135,1.46-1.702,2.432-1.702C295.439,1.82,295.439,1.82,299.006,4.333z"/>
			<path style="fill:#F94A28;" d="M283.197,55.747c-0.898,0-1.44-0.425-2.313-1.378c-0.802-0.8-1.038-0.925-2.516-1.314
				c-1.414-0.353-1.833-0.662-2.798-2.064c-0.553-0.737-0.831-1.603-0.731-2.3c0.17-2.139,2.429-8.036,8.628-22.502
				c3.08-7.211,3.963-8.897,5.568-8.897c1.015,0,2.468,0.751,4.442,2.296c2.585,2.067,3.84,3.866,3.84,5.501
				c0,1.029-0.061,1.131-1.61,3.742c-2.54,5.47-3.999,9.18-7.087,19.027c-0.235,0.708-0.469,1.484-0.703,2.263
				c-0.349,1.139-0.674,2.111-0.758,2.362C286.538,54.703,285.277,55.747,283.197,55.747z M289.035,18.291
				c-0.901,0-1.771,1.549-4.648,8.29c-6.074,14.174-8.393,20.196-8.555,22.22c-0.065,0.464,0.147,1.068,0.551,1.606
				c0.837,1.216,1.064,1.387,2.233,1.679c1.65,0.435,2.041,0.643,2.989,1.591c0.89,0.97,1.167,1.07,1.592,1.07
				c1.627,0,2.497-0.74,3.005-2.554c0.092-0.276,0.413-1.239,0.733-2.281c0.261-0.869,0.497-1.653,0.732-2.362
				c2.903-9.257,4.375-13.203,7.156-19.187c1.493-2.521,1.493-2.521,1.493-3.275c0-1.293-1.164-2.88-3.461-4.717
				C290.66,18.652,289.565,18.291,289.035,18.291z M297.628,18.291c-1.403,0-4.873-2.625-5.902-3.43
				c-1.936-1.43-2.559-2.379-2.461-3.753c0.087-1.388,1.729-6.225,2.661-7.836c0.871-1.356,1.751-1.952,2.865-1.952
				c0.807,0,0.807,0,4.503,2.605c0.978,0.652,1.596,1.035,1.719,1.096l0.334,0.201c0.232,0.142,0.416,0.255,0.64,0.367
				c1.253,0.675,1.735,1.412,1.735,2.636c0,0.913-0.613,2.101-1.128,2.938c-0.268,0.401-0.486,0.736-0.661,1.004
				c-0.295,0.452-0.414,0.631-0.491,0.728c-0.188,0.325-0.447,0.951-0.746,1.671l-0.174,0.418
				C299.983,16.602,299.208,18.291,297.628,18.291z M294.791,2.319c-0.746,0-1.349,0.44-2.012,1.473
				c-0.832,1.438-2.439,6.143-2.517,7.382c-0.062,0.878,0.23,1.533,2.067,2.891c3.033,2.369,4.828,3.226,5.298,3.226
				c0.53,0,1.177-0.316,1.957-2.657l0.187-0.451c0.339-0.816,0.605-1.46,0.833-1.838l0.075-0.096
				c0.042-0.054,0.189-0.284,0.416-0.629c0.176-0.271,0.396-0.608,0.656-0.997c0.612-0.996,0.97-1.876,0.97-2.398
				c0-0.846-0.279-1.255-1.196-1.749c-0.236-0.118-0.44-0.242-0.7-0.401l-0.293-0.178c-0.178-0.087-0.916-0.555-1.804-1.147
				C295.281,2.32,295.271,2.32,294.791,2.319z"/>
		</g>
		<g>
			<path style="fill:#D4F9EF;" d="M304.861,20.169c0.974-2.676,1.054-3,1.297-3.81c0.568-1.946,1.135-2.594,2.432-2.594
				c0.729,0,0.729,0,2.757,1.622c2.432,2.027,2.432,2.027,3.324,2.918c0.81-0.162,1.46-0.243,1.784-0.324
				c1.054-0.162,2.189-0.324,2.27-0.324c0.81-0.243,1.54-0.324,1.865-0.324c1.378,0,2.675,0.973,4.702,3.406
				c2.837,3.486,4.134,6.648,4.134,9.972c0,6.404-4.864,15.485-11.268,21.16c-2.432,2.108-5.27,3.811-6.486,3.811
				c-1.297,0-3.161-1.621-6.161-5.432c-1.135,2.595-1.135,2.595-2.513,5.918l-1.865,4.702l-1.297,3.324
				c-1.946,5.026-2.189,5.351-3.405,5.351c-0.568,0-0.892-0.243-1.54-0.974c-0.486-0.567-0.892-0.892-1.297-0.973
				c-0.082,0-0.324,0-0.811-0.081h-0.973c-1.621,0-3.729-2.757-3.729-4.783c0-1.946,0.729-3.648,6.972-17.025
				c1.703-3.648,3.161-7.054,4.297-10.215l2.757-7.54c0-0.081,0.405-1.054,0.648-1.702c-0.811-2.757-0.973-3.486-0.973-3.973
				c0-0.567,0.486-0.973,1.621-1.459L304.861,20.169z M308.509,42.95c0.324,0.162,0.648,0.243,0.811,0.243
				c2.513,0.162,8.999-9.404,8.999-13.377c0-1.216-0.648-1.784-1.945-1.784c-0.648,0-1.216,0.081-2.27,0.406
				C312.643,32.897,311.346,36.384,308.509,42.95z"/>
			<path style="fill:#F94A28;" d="M296.43,70.043c-0.77,0-1.213-0.352-1.914-1.142c-0.426-0.498-0.759-0.762-1.021-0.814
				c0.009,0.009-0.266,0.01-0.795-0.078l-0.891,0.007c-2.002,0-4.229-3.149-4.229-5.283c0-2.074,0.793-3.896,7.02-17.236
				c1.829-3.921,3.229-7.249,4.278-10.172l2.743-7.501c0.029-0.123,0.112-0.338,0.343-0.92c0.088-0.222,0.181-0.458,0.263-0.672
				c-0.801-2.732-0.945-3.419-0.945-3.953c0-0.909,0.77-1.424,1.924-1.918l1.259-0.56c0.817-2.251,0.96-2.727,1.154-3.376
				l0.062-0.208c0.544-1.867,1.195-2.95,2.911-2.95c0.905,0,0.986,0.065,3.068,1.731c2.275,1.896,2.444,2.037,3.178,2.768
				c0.304-0.057,0.58-0.103,0.82-0.143c0.289-0.048,0.521-0.086,0.675-0.125c0.062-0.012,1.827-0.282,2.294-0.332
				c0.779-0.229,1.545-0.332,1.964-0.332c1.529,0,2.908,0.972,5.085,3.585c2.901,3.564,4.251,6.833,4.251,10.292
				c0,6.499-4.917,15.756-11.437,21.534c-2.26,1.958-5.324,3.937-6.817,3.937c-1.427,0-3.198-1.451-6.036-4.972
				c-0.817,1.87-0.95,2.191-2.177,5.149l-3.158,8.016C298.418,69.236,298.06,70.043,296.43,70.043z M302.604,28.016l-0.03,0.109
				l-2.757,7.54c-1.06,2.95-2.47,6.305-4.312,10.254c-6.056,12.975-6.926,14.961-6.926,16.813c0,1.761,1.901,4.283,3.229,4.283
				h0.973c0.528,0.081,0.741,0.081,0.812,0.081c0.603,0.111,1.089,0.462,1.677,1.147c0.645,0.726,0.84,0.799,1.16,0.799
				c0.84,0,0.99,0,2.939-5.032l3.163-8.03c1.383-3.336,1.383-3.336,2.52-5.934l0.334-0.765l0.517,0.656
				c1.771,2.25,4.297,5.241,5.77,5.241c0.914,0,3.528-1.41,6.158-3.688c6.323-5.604,11.096-14.54,11.096-20.782
				c0-3.216-1.278-6.285-4.022-9.657c-1.931-2.316-3.141-3.221-4.313-3.221c-0.246,0-0.922,0.063-1.722,0.303l-0.144,0.021
				c-0.09,0.008-1.072,0.146-2.194,0.318c-0.126,0.034-0.385,0.078-0.709,0.132c-0.298,0.05-0.655,0.109-1.053,0.188l-0.262,0.053
				l-0.189-0.189c-0.876-0.875-0.876-0.875-3.291-2.888c-1.882-1.506-1.882-1.506-2.436-1.506c-0.917,0-1.392,0.311-1.952,2.234
				l-0.063,0.21c-0.205,0.685-0.353,1.18-1.245,3.631l-0.072,0.2l-1.653,0.735c-1.175,0.503-1.324,0.799-1.324,1.002
				c0,0.402,0.143,1.078,0.952,3.832l0.047,0.16l-0.059,0.157c-0.096,0.255-0.217,0.561-0.328,0.844
				C302.765,27.594,302.647,27.885,302.604,28.016z M309.385,43.696L309.385,43.696c-0.331-0.002-0.737-0.118-1.099-0.297
				l-0.425-0.211l0.188-0.435c2.933-6.787,4.18-10.198,5.578-14.469l0.081-0.246l0.247-0.077c1.024-0.315,1.657-0.427,2.417-0.427
				c1.577,0,2.446,0.811,2.446,2.283c0,2.279-1.856,5.857-3.593,8.446C314.371,39.537,311.422,43.696,309.385,43.696z
				 M309.175,42.669c0.075,0.019,0.128,0.023,0.147,0.025c0.891,0,2.876-1.714,5.073-4.989c2.08-3.099,3.424-6.195,3.424-7.888
				c0-0.77-0.246-1.283-1.446-1.283c-0.523,0-0.993,0.051-1.876,0.309C313.154,32.927,311.921,36.292,309.175,42.669z"/>
		</g>
		<g>
			<path style="fill:#D4F9EF;" d="M337.029,40.34c-2.661-1.269-4.303-3.704-4.651-7.01c-0.543-5.16,1.655-9.06,6.921-12.467
				c3.28-2.139,7.426-3.798,10.006-4.07c2.016-0.212,4.456,0.509,6.721,1.902c1.311,0.84,1.914,1.918,2.101,3.692
				c0.178,1.693-0.132,4.171-0.691,5.045c-0.632,0.964-3.997,2.296-6.578,2.568c-0.725,0.076-1.243-0.195-1.303-0.76
				c-0.009-0.08-0.034-0.323,0.004-0.734c0.055-0.25,0.03-0.493-0.004-0.815c-0.094-0.887-0.386-1.345-1.031-1.278
				c-1.773,0.187-4.481,2.347-4.362,3.476c0.068,0.645,0.513,1.006,1.71,1.532c5.966,2.47,7.443,4.108,7.91,8.542
				c0.492,4.676-1.625,8.568-7.048,12.806c-3.086,2.444-6.263,4.002-8.682,4.257c-4.354,0.458-11.275-4.112-11.648-7.66
				c-0.136-1.29,0.9-3.845,2.517-6.298c0.849-1.23,1.379-1.612,2.024-1.681c0.968-0.102,1.6,0.484,2.682,2.245
				c1.171,1.833,2.232,2.618,3.441,2.491c1.371-0.145,2.432-0.909,4.477-3.161C340.538,41.928,340.538,41.928,337.029,40.34z"/>
			<path style="fill:#F94A28;" d="M337.423,57.557c-4.683,0-11.141-4.563-11.517-8.139c-0.149-1.406,0.87-4.007,2.597-6.625
				c0.896-1.3,1.542-1.813,2.388-1.902c1.301-0.13,2.095,0.745,3.16,2.48c0.987,1.543,1.868,2.266,2.767,2.266l0,0
				c0.065,0,0.131-0.003,0.197-0.01c1.149-0.122,2.079-0.753,3.84-2.652c-0.668-0.657-1.058-0.833-4.031-2.179
				c-2.829-1.349-4.581-3.98-4.942-7.413c-0.559-5.311,1.712-9.423,7.146-12.94c3.306-2.155,7.511-3.861,10.225-4.147
				c2.104-0.223,4.641,0.5,7.036,1.973c1.437,0.92,2.133,2.134,2.337,4.065c0.178,1.691-0.113,4.346-0.769,5.368
				c-0.807,1.23-4.458,2.533-6.945,2.794c-1.034,0.116-1.766-0.386-1.853-1.205c-0.026-0.241-0.025-0.522,0.003-0.832
				c0.048-0.234,0.027-0.426-0.003-0.716c-0.089-0.836-0.316-0.836-0.414-0.836c-1.729,0.178-4.061,2.209-3.985,2.93
				c0.033,0.31,0.153,0.572,1.414,1.126c6.103,2.526,7.715,4.283,8.206,8.948c0.511,4.854-1.721,8.941-7.237,13.253
				c-3.162,2.505-6.421,4.095-8.938,4.359C337.883,57.546,337.655,57.557,337.423,57.557z M331.148,41.877
				c-0.05,0-0.101,0.003-0.152,0.008c-0.435,0.046-0.864,0.307-1.665,1.467c-1.551,2.354-2.553,4.808-2.431,5.961
				c0.335,3.192,7.012,7.637,11.099,7.215c2.334-0.246,5.404-1.759,8.425-4.151c5.287-4.133,7.338-7.83,6.861-12.362
				c-0.446-4.238-1.867-5.758-7.604-8.133c-1.234-0.542-1.917-1.011-2.016-1.94c-0.157-1.503,2.889-3.824,4.807-4.025
				c0.96-0.104,1.451,0.496,1.581,1.722c0.037,0.346,0.068,0.645-0.005,0.976c-0.013,0.181-0.015,0.395,0.005,0.571
				c0.026,0.254,0.306,0.366,0.753,0.318c2.539-0.267,5.703-1.568,6.212-2.345c0.479-0.748,0.784-3.087,0.613-4.719
				c-0.174-1.639-0.699-2.57-1.874-3.324c-2.197-1.351-4.511-2.024-6.399-1.825c-2.532,0.267-6.647,1.946-9.785,3.992
				c-5.154,3.335-7.219,7.035-6.697,11.997c0.328,3.119,1.839,5.404,4.369,6.611c3.519,1.592,3.586,1.623,4.658,2.725l0.327,0.337
				l-0.315,0.348c-2.167,2.388-3.287,3.164-4.794,3.323c-0.102,0.011-0.202,0.016-0.303,0.016l0,0c-1.29,0-2.404-0.843-3.613-2.735
				C332.157,42.199,331.675,41.877,331.148,41.877z"/>
		</g>
	</g>
</g>
</svg>
