<?xml version="1.0" encoding="utf-8"?>
<!DOCTYPE svg PUBLIC "-//W3C//DTD SVG 1.1//EN" "http://www.w3.org/Graphics/SVG/1.1/DTD/svg11.dtd">
<svg version="1.1" id="Layer_1" xmlns="http://www.w3.org/2000/svg" xmlns:xlink="http://www.w3.org/1999/xlink" x="0px" y="0px"
	 viewBox="0 0 324 228" enable-background="new 0 0 324 228" xml:space="preserve">
<rect x="0" y="0" width="324" height="228" fill="#ffffff"/>
<polygon points="49.467,0 36.973,0 25.313,0 12.82,0 0,0 0,10.695 0,60 12,60 12,12 24,12 24,48 36,48 36,12 48,12 48,60 60,60
	60,10.695 60,0 "/>
<polygon points="49.467,120 36.973,120 25.313,120 12.82,120 0,120 0,130.695 0,180 12,180 12,132 24,132 24,168 36,168 36,132
	48,132 48,180 60,180 60,130.695 60,120 "/>
<polygon points="157.466,120 144.973,120 133.313,120 120.82,120 108,120 108,130.695 108,180 120,180 120,132 132,132 132,168
	144,168 144,132 156,132 156,180 168,180 168,130.695 168,120 "/>
<rect x="156" width="12" height="60"/>
<rect x="276" y="120" width="12" height="60"/>
<polygon points="144,12 144,0 131.921,0 120,0 120,10.695 120,23.189 120,36 132,36 132,48 120,48 120,60 131.921,60 144,60 144,48
	144,36 144,24 132,24 132,12 "/>
<polygon points="324,132 324,120 311.922,120 300,120 300,130.695 300,143.189 300,156 312,156 312,168 300,168 300,180
	311.922,180 324,180 324,168 324,156.001 324,144 312,144 312,132 "/>
<g>
	<path d="M98.277,195.967h-4.963l-2.078,7.734h5.272c2.308,0,4.271-0.577,5.425-1.731c0.692-0.692,1.116-1.616,1.116-2.732
		c0-0.923-0.27-1.577-0.847-2.154C101.471,196.352,100.163,195.967,98.277,195.967z"/>
	<path d="M165.269,195.621c-5.656,0-9.35,5.426-9.35,10.081c0,4.001,2.424,6.849,6.849,6.849c5.656,0,9.35-5.425,9.35-10.081
		C172.117,198.468,169.692,195.621,165.269,195.621z"/>
	<path d="M300.788,195.967h-3.848l-2.192,8.234h4.041c3.924,0,6.578-1.77,6.578-4.81c0-0.886-0.308-1.655-0.885-2.231
		C303.675,196.352,302.559,195.967,300.788,195.967z"/>
	<path d="M0,180v48h324v-48H0z M28.593,212.589c2.078,0,3.617-0.499,4.809-1.039l1.27-4.386h-5.964l1.386-5.118H41.79l-3.809,13.429
		c-2.655,1.501-5.733,2.539-9.773,2.539c-6.156,0-12.659-3.656-12.659-11.697c0-8.389,7.118-16.161,16.814-16.161
		c5.694,0,9.119,2.194,11.004,4.656l-4.386,3.887c-1.577-1.731-3.694-3.117-7.08-3.117c-5.772,0-10.196,4.925-10.196,10.542
		C21.706,210.319,24.783,212.589,28.593,212.589z M106.781,205.124c-1.501,1.501-3.579,2.617-6.233,3.232l4.578,9.197h-6.733
		l-4.155-8.62h-4.425l-2.309,8.62h-5.926l7.234-26.935h9.811c4.002,0,6.734,0.886,8.543,2.695c1.347,1.346,2.077,3.231,2.077,5.424
		C109.243,201.314,108.358,203.546,106.781,205.124z M162.075,218.014c-7.426,0-12.313-5.156-12.313-11.927
		c0-8.042,6.541-15.931,16.199-15.931c7.426,0,12.314,5.157,12.314,11.929C178.274,210.126,171.732,218.014,162.075,218.014z
		 M243.803,206.664c-0.924,3.462-2.27,6.118-4.156,8.003c-2.192,2.193-5.156,3.308-9.157,3.308c-6.232,0-10.081-3.347-10.081-9.08
		c0-1.348,0.23-2.809,0.654-4.309l3.732-13.969h5.925l-3.885,14.507c-0.27,0.923-0.424,1.809-0.424,2.924
		c0,2.654,1.654,4.463,4.694,4.463c1.77,0,3.232-0.577,4.387-1.694c1.154-1.154,2.038-2.809,2.615-5.002l4.079-15.199h5.925
		L243.803,206.664z M298.48,209.396h-5.117l-2.193,8.157h-5.926l7.233-26.935h8.543c3.848,0,6.502,0.77,8.464,2.732
		c1.386,1.386,2.078,3.194,2.078,5.541C311.562,205.586,305.83,209.396,298.48,209.396z"/>
</g>
<polygon points="24,72 24,60 12,60 0,60 0,72 0,84 0,96 0,120.001 12,120.001 12,96 24,96 24,84 12,84 12,72 "/>
<path d="M60,60H48H36v12v36v12.001h12h12h12V108V71.659V60H60z M60,108H48V72h12V108z"/>
<path d="M108.34,60H95.848H84v12v12v12v24.001h12V95.915h5.677v24.086h12.495V95.915H120V84.152V71.659V60H108.34z M108,84H96V72h12
	V84z"/>
<path d="M216,156.001L216,156.001V144v-12.341v-11.659h-11.659h-12.493H180V132v12v12.001V180h12v-23.999 M204,144h-12v-12h12V144z"
	/>
<polygon points="95.986,0.03 95.986,48.005 83.993,48.005 83.993,0.03 72,0.03 72,48.005 72,60 83.238,60 95.231,60 107.979,60
	107.979,48.005 107.979,0.03 "/>
<polygon points="204,12.025 204,0.03 192.006,0.03 180.014,0.03 180.014,12.025 180.014,48.005 180.014,60 192.006,60 204,60
	204,48.005 192.006,48.005 192.006,12.025 "/>
<polygon points="180,60 144.022,60 144.022,71.992 156.015,71.992 156,120.001 168,120.001 168.007,71.992 180,71.992 "/>
<polygon points="216,60 216,84 204,84 204,60 192,60 192,84.021 192,96.013 192,120.001 204,120.001 204,96 216,96 216,120.001
	228,120.001 228,96 228,84.001 228,60 "/>
<polygon points="252,119.999 252,143.999 240,143.999 240,119.999 228,119.999 228,144.02 228,156.012 228,180 240,180 240,155.999
	252,155.999 252,180 264,179.999 264,155.999 264,144 264,119.999 "/>
<polygon points="264,72 264,60 252.005,60 240,60 240,72 240,84 240,96 240,108 240,120.001 252,120.001 264,120.001 264,108.001
	252,108.001 252,96 264,96 264,84 252,84 252,72 "/>
<polygon points="96,132 96,120.001 84.005,120.001 72,120.001 72,132 72,144 72,156.001 72,168 72,180 84,180 96,180 96,168.001
	84,168.001 84,156.001 96,156.001 96,144 84,144 84,132 "/>
</svg>
