<svg width="1116" height="148" viewBox="0,0,1116,148" style="max-width: 100%; height: auto;"><g><text class="legendTitle chartArea chartArea0" text-anchor="start" x="1004" y="112" fill="#FF833A" opacity="1">Fabrication</text><text class="legendTitle chartArea chartArea1" text-anchor="start" x="1004" y="96" fill="#E2AD3B" opacity="1">Branding</text><text class="legendTitle chartArea chartArea2" text-anchor="start" x="1004" y="80" fill="#9DEF60" opacity="1">Research</text><text class="legendTitle chartArea chartArea3" text-anchor="start" x="1004" y="64" fill="#00E392" opacity="1">Frontend</text><text class="legendTitle chartArea chartArea4" text-anchor="start" x="1004" y="48" fill="#00BEBE" opacity="1">Strategy</text><text class="legendTitle chartArea chartArea5" text-anchor="start" x="1004" y="32" fill="#1783D8" opacity="1">UX</text></g><g><path fill="#FF833A" opacity="1" shape-rendering="geometricPrecision" d="M32,58C64.133,58,64.133,64,96.267,64C128.4,64,128.4,76,160.533,76C192.667,76,192.667,84,224.8,84C256.933,84,256.933,96,289.067,96C321.2,96,321.2,108,353.333,108C385.467,108,385.467,113,417.6,113C449.733,113,449.733,115,481.867,115C514,115,514,115,546.133,115C578.267,115,578.267,115,610.4,115C642.533,115,642.533,115,674.667,115C706.8,115,706.8,115,738.933,115C771.067,115,771.067,115,803.2,115C835.333,115,835.333,115,867.467,115C899.6,115,899.6,115,931.733,115C963.867,115,963.867,115,996,115L996,118C963.867,118,963.867,118,931.733,118C899.6,118,899.6,118,867.467,118C835.333,118,835.333,118,803.2,118C771.067,118,771.067,118,738.933,118C706.8,118,706.8,118,674.667,118C642.533,118,642.533,118,610.4,118C578.267,118,578.267,118,546.133,118C514,118,514,118,481.867,118C449.733,118,449.733,118,417.6,118C385.467,118,385.467,118,353.333,118C321.2,118,321.2,118,289.067,118C256.933,118,256.933,118,224.8,118C192.667,118,192.667,118,160.533,118C128.4,118,128.4,118,96.267,118C64.133,118,64.133,118,32,118Z" class="chartArea chartArea0"><title>Fabrication</title></path><path fill="#E2AD3B" opacity="1" shape-rendering="geometricPrecision" d="M32,50C64.133,50,64.133,52,96.267,52C128.4,52,128.4,66,160.533,66C192.667,66,192.667,72,224.8,72C256.933,72,256.933,85,289.067,85C321.2,85,321.2,91,353.333,91C385.467,91,385.467,96,417.6,96C449.733,96,449.733,101,481.867,101C514,101,514,103,546.133,103C578.267,103,578.267,105,610.4,105C642.533,105,642.533,102,674.667,102C706.8,102,706.8,100,738.933,100C771.067,100,771.067,102,803.2,102C835.333,102,835.333,105,867.467,105C899.6,105,899.6,104,931.733,104C963.867,104,963.867,107,996,107L996,115C963.867,115,963.867,115,931.733,115C899.6,115,899.6,115,867.467,115C835.333,115,835.333,115,803.2,115C771.067,115,771.067,115,738.933,115C706.8,115,706.8,115,674.667,115C642.533,115,642.533,115,610.4,115C578.267,115,578.267,115,546.133,115C514,115,514,115,481.867,115C449.733,115,449.733,113,417.6,113C385.467,113,385.467,108,353.333,108C321.2,108,321.2,96,289.067,96C256.933,96,256.933,84,224.8,84C192.667,84,192.667,76,160.533,76C128.4,76,128.4,64,96.267,64C64.133,64,64.133,58,32,58Z" class="chartArea chartArea1"><title>Branding</title></path><path fill="#9DEF60" opacity="1" shape-rendering="geometricPrecision" d="M32,40C64.133,40,64.133,41,96.267,41C128.4,41,128.4,58,160.533,58C192.667,58,192.667,66,224.8,66C256.933,66,256.933,75,289.067,75C321.2,75,321.2,79,353.333,79C385.467,79,385.467,84,417.6,84C449.733,84,449.733,88,481.867,88C514,88,514,89,546.133,89C578.267,89,578.267,88,610.4,88C642.533,88,642.533,89,674.667,89C706.8,89,706.8,86,738.933,86C771.067,86,771.067,88,803.2,88C835.333,88,835.333,87,867.467,87C899.6,87,899.6,85,931.733,85C963.867,85,963.867,90,996,90L996,107C963.867,107,963.867,104,931.733,104C899.6,104,899.6,105,867.467,105C835.333,105,835.333,102,803.2,102C771.067,102,771.067,100,738.933,100C706.8,100,706.8,102,674.667,102C642.533,102,642.533,105,610.4,105C578.267,105,578.267,103,546.133,103C514,103,514,101,481.867,101C449.733,101,449.733,96,417.6,96C385.467,96,385.467,91,353.333,91C321.2,91,321.2,85,289.067,85C256.933,85,256.933,72,224.8,72C192.667,72,192.667,66,160.533,66C128.4,66,128.4,52,96.267,52C64.133,52,64.133,50,32,50Z" class="chartArea chartArea2"><title>Research</title></path><path fill="#00E392" opacity="1" shape-rendering="geometricPrecision" d="M32,32C64.133,32,64.133,30,96.267,30C128.4,30,128.4,41,160.533,41C192.667,41,192.667,45,224.8,45C256.933,45,256.933,46,289.067,46C321.2,46,321.2,49,353.333,49C385.467,49,385.467,53,417.6,53C449.733,53,449.733,53,481.867,53C514,53,514,53,546.133,53C578.267,53,578.267,53,610.4,53C642.533,53,642.533,56,674.667,56C706.8,56,706.8,68,738.933,68C771.067,68,771.067,70,803.2,70C835.333,70,835.333,72,867.467,72C899.6,72,899.6,72,931.733,72C963.867,72,963.867,74,996,74L996,90C963.867,90,963.867,85,931.733,85C899.6,85,899.6,87,867.467,87C835.333,87,835.333,88,803.2,88C771.067,88,771.067,86,738.933,86C706.8,86,706.8,89,674.667,89C642.533,89,642.533,88,610.4,88C578.267,88,578.267,89,546.133,89C514,89,514,88,481.867,88C449.733,88,449.733,84,417.6,84C385.467,84,385.467,79,353.333,79C321.2,79,321.2,75,289.067,75C256.933,75,256.933,66,224.8,66C192.667,66,192.667,58,160.533,58C128.4,58,128.4,41,96.267,41C64.133,41,64.133,40,32,40Z" class="chartArea chartArea3"><title>Frontend</title></path><path fill="#00BEBE" opacity="1" shape-rendering="geometricPrecision" d="M32,32C64.133,32,64.133,30,96.267,30C128.4,30,128.4,41,160.533,41C192.667,41,192.667,45,224.8,45C256.933,45,256.933,46,289.067,46C321.2,46,321.2,44,353.333,44C385.467,44,385.467,45,417.6,45C449.733,45,449.733,44,481.867,44C514,44,514,43,546.133,43C578.267,43,578.267,42,610.4,42C642.533,42,642.533,44,674.667,44C706.8,44,706.8,51,738.933,51C771.067,51,771.067,52,803.2,52C835.333,52,835.333,51,867.467,51C899.6,51,899.6,49,931.733,49C963.867,49,963.867,51,996,51L996,74C963.867,74,963.867,72,931.733,72C899.6,72,899.6,72,867.467,72C835.333,72,835.333,70,803.2,70C771.067,70,771.067,68,738.933,68C706.8,68,706.8,56,674.667,56C642.533,56,642.533,53,610.4,53C578.267,53,578.267,53,546.133,53C514,53,514,53,481.867,53C449.733,53,449.733,53,417.6,53C385.467,53,385.467,49,353.333,49C321.2,49,321.2,46,289.067,46C256.933,46,256.933,45,224.8,45C192.667,45,192.667,41,160.533,41C128.4,41,128.4,30,96.267,30C64.133,30,64.133,32,32,32Z" class="chartArea chartArea4"><title>Strategy</title></path><path fill="#1783D8" opacity="1" shape-rendering="geometricPrecision" d="M32,20C64.133,20,64.133,20,96.267,20C128.4,20,128.4,20,160.533,20C192.667,20,192.667,20,224.8,20C256.933,20,256.933,20,289.067,20C321.2,20,321.2,20,353.333,20C385.467,20,385.467,20,417.6,20C449.733,20,449.733,20,481.867,20C514,20,514,20,546.133,20C578.267,20,578.267,20,610.4,20C642.533,20,642.533,20,674.667,20C706.8,20,706.8,20,738.933,20C771.067,20,771.067,20,803.2,20C835.333,20,835.333,20,867.467,20C899.6,20,899.6,20,931.733,20C963.867,20,963.867,20,996,20L996,51C963.867,51,963.867,49,931.733,49C899.6,49,899.6,51,867.467,51C835.333,51,835.333,52,803.2,52C771.067,52,771.067,51,738.933,51C706.8,51,706.8,44,674.667,44C642.533,44,642.533,42,610.4,42C578.267,42,578.267,43,546.133,43C514,43,514,44,481.867,44C449.733,44,449.733,45,417.6,45C385.467,45,385.467,44,353.333,44C321.2,44,321.2,46,289.067,46C256.933,46,256.933,45,224.8,45C192.667,45,192.667,41,160.533,41C128.4,41,128.4,30,96.267,30C64.133,30,64.133,32,32,32Z" class="chartArea chartArea5"><title>UX</title></path></g><g class="xAxis" transform="translate(0,110)" fill="none" font-size="10" font-family="sans-serif" text-anchor="middle"><g class="tick" opacity="1" transform="translate(32,0)"><line stroke="white" y2="8" opacity="0.5"></line><text fill="currentColor" y="12" dy="0.71em" x="0">2009</text></g><g class="tick" opacity="1" transform="translate(96.26666666666668,0)"><line stroke="white" y2="0" opacity="0.5"></line><text fill="currentColor" y="12" dy="0.71em" x="0"></text></g><g class="tick" opacity="1" transform="translate(160.53333333333336,0)"><line stroke="white" y2="0" opacity="0.5"></line><text fill="currentColor" y="12" dy="0.71em" x="0"></text></g><g class="tick" opacity="1" transform="translate(224.8,0)"><line stroke="white" y2="0" opacity="0.5"></line><text fill="currentColor" y="12" dy="0.71em" x="0"></text></g><g class="tick" opacity="1" transform="translate(289.0666666666667,0)"><line stroke="white" y2="0" opacity="0.5"></line><text fill="currentColor" y="12" dy="0.71em" x="0"></text></g><g class="tick" opacity="1" transform="translate(353.3333333333333,0)"><line stroke="white" y2="8" opacity="0.5"></line><text fill="currentColor" y="12" dy="0.71em" x="0">2014</text></g><g class="tick" opacity="1" transform="translate(417.6,0)"><line stroke="white" y2="0" opacity="0.5"></line><text fill="currentColor" y="12" dy="0.71em" x="0"></text></g><g class="tick" opacity="1" transform="translate(481.8666666666667,0)"><line stroke="white" y2="0" opacity="0.5"></line><text fill="currentColor" y="12" dy="0.71em" x="0"></text></g><g class="tick" opacity="1" transform="translate(546.1333333333333,0)"><line stroke="white" y2="0" opacity="0.5"></line><text fill="currentColor" y="12" dy="0.71em" x="0"></text></g><g class="tick" opacity="1" transform="translate(610.4,0)"><line stroke="white" y2="0" opacity="0.5"></line><text fill="currentColor" y="12" dy="0.71em" x="0"></text></g><g class="tick" opacity="1" transform="translate(674.6666666666666,0)"><line stroke="white" y2="8" opacity="0.5"></line><text fill="currentColor" y="12" dy="0.71em" x="0">2019</text></g><g class="tick" opacity="1" transform="translate(738.9333333333333,0)"><line stroke="white" y2="0" opacity="0.5"></line><text fill="currentColor" y="12" dy="0.71em" x="0"></text></g><g class="tick" opacity="1" transform="translate(803.2,0)"><line stroke="white" y2="0" opacity="0.5"></line><text fill="currentColor" y="12" dy="0.71em" x="0"></text></g><g class="tick" opacity="1" transform="translate(867.4666666666667,0)"><line stroke="white" y2="0" opacity="0.5"></line><text fill="currentColor" y="12" dy="0.71em" x="0"></text></g><g class="tick" opacity="1" transform="translate(931.7333333333333,0)"><line stroke="white" y2="0" opacity="0.5"></line><text fill="currentColor" y="12" dy="0.71em" x="0"></text></g><g class="tick" opacity="1" transform="translate(996,0)"><line stroke="white" y2="8" opacity="0.5"></line><text fill="currentColor" y="12" dy="0.71em" x="0">2024</text></g></g><g class="yAxis" transform="translate(28,0)" fill="none" font-size="10" font-family="sans-serif" text-anchor="end"><g class="tick" opacity="1" transform="translate(0,69)"><line stroke="currentColor" x2="0"></line><text fill="currentColor" x="-3" dy="0.32em">50%</text></g><g class="tick" opacity="1" transform="translate(0,20)"><line stroke="currentColor" x2="0"></line><text fill="currentColor" x="-3" dy="0.32em">100%</text></g></g><g><circle class="milestone milestone0" r="15" fill="rgba(0,0,0,0)" data-areas="0" cx="96.26666666666668" cy="138"></circle><circle class="milestone milestone1" r="15" fill="rgba(0,0,0,0)" data-areas="53" cx="289.0666666666667" cy="138"></circle><circle class="milestone milestone2" r="15" fill="rgba(0,0,0,0)" data-areas="54321" cx="481.8666666666667" cy="138"></circle><circle class="milestone milestone3" r="15" fill="rgba(0,0,0,0)" data-areas="5421" cx="738.9333333333333" cy="138"></circle><circle class="milestone milestone4" r="15" fill="rgba(0,0,0,0)" data-areas="5432" cx="931.7333333333333" cy="138"></circle></g><g class="milestoneIndicators"><circle class="milestoneIndicator milestoneIndicator0" cx="96.26666666666668" cy="133" r="4" opacity="0.5" fill="white"></circle><circle class="milestoneIndicator milestoneIndicator1" cx="289.0666666666667" cy="133" r="4" opacity="0.5" fill="white"></circle><circle class="milestoneIndicator milestoneIndicator2" cx="481.8666666666667" cy="133" r="4" opacity="0.5" fill="white"></circle><circle class="milestoneIndicator milestoneIndicator3" cx="738.9333333333333" cy="133" r="4" opacity="0.5" fill="white"></circle><circle class="milestoneIndicator milestoneIndicator4" cx="931.7333333333333" cy="133" r="4" opacity="0.5" fill="white"></circle></g><g class="milestoneIndicators"><line class="milestoneIndicator milestoneIndicator0" x1="96.26666666666668" x2="96.26666666666668" y1="20" y2="129" opacity="0.5" stroke="white"></line><line class="milestoneIndicator milestoneIndicator1" x1="289.0666666666667" x2="289.0666666666667" y1="20" y2="129" opacity="0.5" stroke="white"></line><line class="milestoneIndicator milestoneIndicator2" x1="481.8666666666667" x2="481.8666666666667" y1="20" y2="129" opacity="0.5" stroke="white"></line><line class="milestoneIndicator milestoneIndicator3" x1="738.9333333333333" x2="738.9333333333333" y1="20" y2="129" opacity="0.5" stroke="white"></line><line class="milestoneIndicator milestoneIndicator4" x1="931.7333333333333" x2="931.7333333333333" y1="20" y2="129" opacity="0.5" stroke="white"></line></g></svg>